<mxfile host="app.diagrams.net" modified="2020-11-26T05:12:58.865Z" agent="5.0 (Windows NT 10.0; WOW64) AppleWebKit/537.36 (KHTML, like Gecko) Chrome/86.0.4240.198 Safari/537.36" etag="rvPdrmpyBvFZXfnNNNmf" version="13.10.1" type="github">
  <diagram name="Page-1" id="bfe91b75-5d2c-26a0-9c1d-138518896778">
    <mxGraphModel dx="1296" dy="607" grid="1" gridSize="10" guides="1" tooltips="1" connect="1" arrows="1" fold="1" page="1" pageScale="1" pageWidth="1100" pageHeight="850" background="#ffffff" math="0" shadow="0">
      <root>
        <mxCell id="0" />
        <mxCell id="1" parent="0" />
        <mxCell id="L6_xuCTIjq3hUXFmm_F4-36" value="" style="rounded=1;arcSize=10;dashed=0;fillColor=none;gradientColor=none;strokeWidth=2;" parent="1" vertex="1">
          <mxGeometry x="70" y="456.36" width="200" height="103.64" as="geometry" />
        </mxCell>
        <mxCell id="NfwQ1fAhElnoeN3uriOs-1" value="" style="shape=image;verticalLabelPosition=bottom;verticalAlign=top;imageAspect=0;aspect=fixed;image=data:image/png,iVBORw0KGgoAAAANSUhEUgAAAi8AAAB+CAMAAAGsQDGbAAAAAXNSR0IArs4c6QAAAARnQU1BAACxjwv8YQUAAAIEUExURQAAAAAAAAAAAAAAAAAAAAAAAAAAAAAAAAAAAAAAAAAAAAAAAAAAAAAAAAAAAAAAAAAAAAAAAAAAAAAAAAAAAAAAAAAAAAAAAAAAAAAAAAAAAAAAAAAAAAAAAAAAAAAAAAAAAAAAAAAAAAAAAAAAAAAAAAAAAAAAAAAAAAAAAAAAAAAAAAAAAAAAAAAAAAAAAAAAAAAAAAAAAAAAAAAAAAAAAAAAAAAAAAAAAAAAAAAAAAAAAAAAAAAAAAAAAJycnOrq6ru7u/Hx8fHx8e/v7+7u7gAAABAQEBscGiEhISkqKDExMTc4N0NDQ0ZHRVNTU1RVU2JjYmRkZHBxcHFxcHR0dH9/foKAf4KBgIKCgoiGho2NjJCQkJiXlpqXlpqampucm5ybmpycnJ2dnZ6amZ6bmp6enqCenaCenqKfnqKioqOioqSioaWioaalpaelpaioqKmlpKmqqaqop6urq6ysrK2srK2tra6urq+vr7GxsbOysrOzs7Swr7W0tLa2tre0s7i4t7i4uLm5ubq6uru6uru7u729vb+8vMHBwcLAv8XFxcbGxsfHx8nIyMnJycvJyMvLy87My87MzNHPztLS0tTU1NbV1dnY2Nzc3N3c293d3d7e3t/e3t/f3+Dg4OLi4ePi4uPj4uPj4+Tk5Obm5urq6e7u7u/v7/Hx8fLy8v///53YoPwAAABGdFJOUwABAgMEBQYHCAkKCwwNDg8QERITFBUWFxgZGhscHR4gISIjJCUmKCkqKy0uLzA0NTY3OTo7PUBBQ0RFSEtMTWJjfODw8vPxvSQ0AAAACXBIWXMAABcRAAAXEQHKJvM/AAASZklEQVR4Xu2diWPjxnXGSYmijvVaktfHHk423qzaOonTuqnbxEnaNElBSTRXNl1ti1pt3Uu92zS1eqVp4qC100g9kpabpIfVrtPYgv7Jvu+9B3BwkSABEqQ0v10KMwNg+Oabh8EAHAxqtfpCcSgXvwRulpPNVj+b822DdzQxJ4lszmVRMJvz8zNeFssGeZyfpWTj7PuOQwvP83YQ2HFa/o5PASFuzevn5w+wDLOhLT2n06Fdsbd/6B/LzmEOTEKbe6/yImaN03MIhDyKIEAfBxEhkY1SQBuT8bMRzs81MBKTymY8Ssrmbq22eaM4a7WaNhlFqNdqj6hdhWjUHtNQIZr9bF5SB2Y0LS+JbPSQ0LS8xLPRVqtgNpSLZKRpdDTjeHZcbRictkdthhzrftvv8ZJIWiPmaJp/euS4Dv2nfbh52EGiZmMwTBv96mA/x3fpnxFVEtkompYXIxtpaBRNy4uRDfPuWO1EIpvRDWHi2YxJs7apoUIs1RrXtc0owJPUUixqjpWzXK/VS9GmDO4u1eqJ+hYvTmPEM+mIbDXTjDGPUD3chWqNYT00TFRpjBhimJM0xulR2yitMbWCwX9tEGnRQ5BbcvwTkHJE/b44g405ITt26YNOKZMwhjP2Xe79odWX7z1AMlL8bqsd2IBt2SLfP9KUGMOq6WUy5XUNEynVhNzFmFOHe80d32nJ97BtbB0vJIaQBngjg+EOHCGlmk4pZz1pkh1el60LjBF81+lQOieaazhokG5MJhU48K/pVyf5I91iMqQaY/B3ZMFXNDxxBhvzb78tfE/jE2aYMlMFxlx97pMvzgIvfKBRK+ceSRlQd6ZWnxFj2JYVrbLKWazVGjc1XDmP1GvNuxqunE0yZkvDlZNqjDT9aegGEyLdGD1HJ6jamPsnGgAVG/Om0c2r2piHcJRdjVRszBlsoZ6wRks0JrxlajLQGLKE6ogN0gTdoM9em/qQ9AHUveR7OfS/ownBB6n8CXqbxh3cPsOMub+9/doAY/Y7x46PD3Ac3L3hO9lsjEdf7Hme9MPZGA/mHmBT39edTAZXE5nx8it9W5LGdOnr6ZvVmB2yQb42VEZFIavYmB3X7XYlgeCNDIY4MBli2JJSTcgRxiBr+kLfx2XScWBMCyrQl4tFSCJlshlijOkwRIoDn0IGKSNU4F8K/BYbQ5dydFmH6yg2Ff8FThbjIgwzhqzRAEhWU5fUCH2m/y+sJv3gm3kjUcbFetnJZKgxEZLKRI8m/IN5B2wMiSYKsDGihBoj6XGKGlMq6cZkohtMiDk25n3dYEKkGmMAEzQ4eebJmLdgzG9qZOIMNuZ35br/9zU6aYZV01SZOWNm6SKu8YEX9J5EtXzyuav1Wn3tSf2JpVqub87a7RmyZrHRXLYENJsNEWZheUO92aJsLGPo1NL6Mxq3KM+sL1Ej03xsZs4Gs8LWZjOfMB76NCPy67rvPJJbmPPs3+WymPBvZJOlBGFe0WWCyy3Ml+mQ4cGTSS6zMG9KY2LeIe5zeYXhe8PM9rYxMCHgsgojsshvG3L7PMZkhdFbbzvOIS/9djtICtclOc5cE2dcYTCQBkjLe19j/V85QA5h+N6ip0stISD7Xc/FGo/XUwJuX8t9UwFF5N1AB0NkBKzg4mtcCPahXEic5NChBON7zAPRgsMSjDc0w4XhYT64/4oi7wQDbwjc0O90guJhgU0NYXoYrdpzOt09/5hcpUMCYlusCoSh3Hu+y79gcJTijut2MKbecU45ZQBF2pig5RWSp6ZcHoOfEqTI7CBKx+m6TkQYB79CpHgMhQ5RTpdAwUmtQBgsIIzG/Na+6+lXtPTGeTaFGl/+6Ukwf0YNyNXGUKlwKKkwkAEHBh1AVEBKPKCyOgdcRufIEIZ2o/Vym5831F1FFUih0QDaItgacCaDKCbM9vY9luU1jUUZLgz/isGloKKZh5KU7igoHsePRIAALZyHYwWIa0iqriP4UFLIByXAv7sNoagwaIazur55G1/Sg5dG44uicQOEIvQ/Q4XBL20IyzqiQmGyyXUojQt0ZDkFTdMFDj4hKkwfTcpmBGFGZ5LCTBorTAYTFebbuu88kluYH341FZVAY1G+/p7uO4/kFiadr6kwOfrYc0ZBYVSXSf/IXgEFhDl5+32VhXnrYnlNQY+5uFhhMrDCZCDCLG3c0bhF+IU7G/glcnH18dvPfuw5i/KxH/vQ46uLdTyNsthcWVm1KCvLTcgC6rPypM5MQGqIKguLS3Z4TJ/m0iIPj1lY+rw2ORbhC0sYHNO4olFLwCMNOiMtX9OYJeDa8kJtYfW6xiwB11dJl7WZeTpyZri1Bl1uacwScOuK1SWNp3Pq8p7ebRkF3XUuyanLN7SoIzHPN6xy6vKl5JiXYTw4f0t3nkesLulYXdIprEvmisutC9rX6JCygMusiw69u6fRCJdYl2BE4vnLmmByeXWRwVMgZUzv5dXFlGX3vib2uay6YFI64dXtl1LG3M2iLkNHrIaMrYuOb+YmlyWKj9GcsC46XCwcIObs80hXYA4lixIdsTeIcXXRMassiza/sTG9eXTxWs4+LTD+DcsAKSz/bfOsFZ7TClIDQl1kVOehcyC6eBjqSut4RHOA6tSVLCUymDF1wWM3QGIaeSgxJYcu+2w0CifLACqhqyOUJZ0HVJpbsC6yGwiyoNAAXeSRgRY0HsqYugRtrsQ0ItOyB+TQBXa2nGNdaqUSbjhcGeWlv6SLbBUgxcU8PZiqh1ZoQl8XUp3Hw/p+b08u7E91RHwuYcY9jvTY4dPQ6xKODevNqYvnYty3RhSPpwDitgBFZV2MZ0gIKjuGf/vOod+i8tIh0oOXEaEunIxPW2Qib9l3u51Oi7IcfiiN3e4GjcruPX2oIj7aOacu4TKIANGFioMJXI9Q2K76TwjWUtGP6XPAwil9f8H2wYejBuFw3yzG1iU8epTEIOgculAbwK0mW24WG7r08CTBnnPo7KHYhw7Xfx8q+4EMGUf191zX3SFFXLevS5cWtM++xPxuxz3SByl6w5++KaBLRJjktWMOXajYfKwHumito9BOBw/TIBFxKqxD22KXAGeHVknxtLmIHUdMdJ8RKKKLIUzKJXUeXfD0BFnO1tMfU5cuNb6ciDgVdh9ChPDZhlYJlKAhJ/AXcwg8AaE0CDiPgRTSJRQm7U5DPl3o7IBZrClgWkvO4e6FxWVdkCYrAaVSUXktIQnMbOiiwmgkSg5d8NwNnjdK6NLGYURxOocQx6KLzmvNkJZyrAR70RLHEadmHEdh2EzMoqAueAw09dnhXLrAQHQqsDT7L0GTSSU8olOSy7rE25fZ1mX7QYYseXThVoJ7+EATAfXq+bUb8khSi3XBI3sGabp40lWZCV0yydO+HIqXQBXz+oiOH+rs0fmZS0B/oEukOHisk3cTuGtI/oJN2hxXzH1kU0ZTBlCtLmNz0HczwDrIeZrbJA6Ay6bLxMmvy+hYXdKxuqRjdUnnEujyh1rUkfgX3XkeyanLf/+JlnUE/uCHuvM8klMX/1v6WGeU3xMFfkmjUb6ju84leXVJ5x9El69p9AJRTBeR5QI+/lmOLnM9wjCdQrqE8yOeaMLFoYguP1BVCE25OIyvyxv/qZowfznPnbgUxtflj2Wy8oA/1+QLQrF29+JidUnH6pKO1SUdq0s69vmjdPh5tdUbP6dRi/DzN6DL8uNbz/+0vqLC8uKnfub5rSdWFmr1pUdvbn1EJm2wEB/ZuvkoZvRYWL567Sl9i4jlxo2nrl1dXuT5GRrLdj6PPivL+vqSmXnLzKygE3oQPNPJosWSCvuK4SwLi43P2clOLNl84XONRW1fMF/Qip0DxjKYR1ZkHqV6fXFpbf0JTbVY0nlifbW5SC0MdXdXHn3ig5pqsaTzwSevruBCoL6wtLpxw86SaRnMnZsba0vsL821zVt2ulnLYLZubYb+8pj1F8sQtp7evNIs01/+6Y23J8+3w4ciLNOlZH85/i8dCzNp3nlXv9EyVUr2l79GXd7/xQnzkPzlH/UbLVOlZH/hZytGfvfYqDwgf7lgY/nmBesvllGYAX+5f5b26tBBWH+pjMr9RSbvepA+v2YG1l8qo1p/2Q3mNDs/fziCl1l/qYwq/WU3+p7vs9SpatOw/lIZ1fnLLtV6nJweY/2lMqryl3sP2UEipM1snIr1l8qoxl9ePmMHiYBJjXGGSkxunMT6S2VU4S/3TW85O3nt1fsnZ5ifNmhz3pTNsplrf3FkhkHh9Mjt7GhYOcZEuPudTmxW6Z7neTL9cn72nTYmDy2T6fuLTgounPSvo00vGnJD5uL4C+aDjc43fkoJezyrnyb4p+wpmNRS9ovMQh3ByJc4xWx1rVF9bAjT9hed11kxeyz9S2sw8IZMSf7SFZVlBl9jbrtW+kFp1CEqT38i5z0k6PNcsEcI0TJr1nlahXrFpjF4jz0KdN0d+ouZhDF7KHKVSVBH8pfDMOUUU/mW9IKu6frLS7F+i/lOk1c1LWBAP6YUf+lBz539bjjXN6Kui/pyWmkvX8DM9VrdqDzZhGtFHU78hU8vtEzzF51cmOiH+mAPtDcRkv5ikJrIHKNYgQkcKcdjpt2+vBS5LjJew7AbWcH9mUxK8RccpiwhmhmZI1wERv3E+hQMXKOHlR3solvIwa4VI06gb4kY7i+0hZwtYIbE4QDY0WjLUvwF4W4Q4ES4meHkxzgVtQ2nZ48xE8Zl+v2X6H0X9YvdyHnqLD7ffoxS/AWSRk7uFJc6RhOTMiALDZKHSfvbqE6uL2mkCMmInYAjCHBSEloV1Ds8tdVDXbb0+/oOFYJ3RsT8hXeEWwaJPKd16A2JNipEjC7C9P2FOGGvyGL4fd5S/IWrxuypUFTqGLWQNoCP6tVzHVoLf5G3MmBTVJ7UJLKkVojObmFeSYKtuQ0QA5CD00V95/QXTKEPEzURXmt2bNGY9Nmha60O9YS4+1u0ianEX+KdW5MHOfYuxV/k+oGO00BCCkf8Be+vCEG9Urtz0HEOdxyPKkR6A6g37ChnJ65Z6uYcDvWXox6ahBb3jcEh5Wge/IPPR7R924UBmnh62I2cazKc4iAyT/h4VOQv4UulYhjX1wMox18ID/UdtDIUiPhL5FjHGkqnCxePXIYSeEts0uXmgdsjqVm8PkP3SHIqHWQ6m3jOvvois6dNncT610dezF+wzEY96hBNShJZWYjK/GV7+xX2EJMv5xzVUJq/ENzKsJLBMvCXBFRxtIpW01/ZUjxFvEY2oBqjLk6X2oe02uETD9E5PE1UvG6vsRC8UAJ/sXluf8nYSFYWokJ/MV9zCHL/fFSqv0gl4sRAC6mzjP6u1GWb31OlFYOQgqjULDLM8BfPaaMzqrUKdJc+EtfzEUei/hIhNZFAevT7kcnc+8v29r3whkzyZaHZlOIvaPK5jxi4R6AxpE27npZa7Ij07E/wHPQkkQ6P08rHLdp0fwGyTYDu0kfipr8I1l8EvrwefLslQSn+wgq25f4cn01oOfB+XVg92ILjqFV0O9F3RfUElc99FOsvORjdX8hjTobcbklQzvlIr4/IO+RaR2MUN6+yTSA6NSxUmVwZaEekVlC95GJh5Yd9ohinHt/AoW2kM+u6OBmiiWLQ3MlqzpA+0pB59Ad3lxNvVhzkLy3t5ApcVl1bhBnwl9Ept/8yTbj1QpvEyzjiG/gZmtsXzz0UTw5uwBm3WIRB/pKCri2C9Zepgt+aNTiQ2HgGiu3xDZcYWf6C6+nozZZjNDIaLsIk/OX8bNLMrb/MPRPxlylg/aUarL9YRsH6i2UUrL9YRqFkf/nnMd5lOBZ/+n/6jZapUrK/vPetr/7qb+TmV7Tymfd/WVNz8Dt/9q/6hZbpUrK/EP/zvdx8RV1F+AtNHc5//K9+l2XalO8v+Tl5Rz1FeFuTLTNMlf7yN+ooAV/SdMvsUqG/HH9f/STgb3WFZXapzl9+8PfqJn1+S1dZZpaK/OXdb/yV+kiUt+w5abapwl/eeGcwuX7BtVRCFf7y798czHd1O8vsUWF/1zKHWH+xjIL1F8soWH+xjMLWLesvlvyY/rJ58+4XNdliSeOLd8P38S2trD91+9kff+HFT3/msz9rsUT57Gc+/akXfuLZ20+tr7K/1BvNK5vXP/QjH/3485/4KYslxid+8vmPf/RHb19/7MqyvIB6obG8tv749advP3PnwxZLnDvP3H76+rX1tSZeJ6wvuG+uXrm6vr6xsWmxRNnYWH/06pXVprzenqmTyzQaSxZLOo0GOUs9cBeGohZLJuwktdr/A2Nuz68C/x89AAAAAElFTkSuQmCC" parent="1" vertex="1">
          <mxGeometry x="397.91" y="130" width="399.29" height="90" as="geometry" />
        </mxCell>
        <mxCell id="NfwQ1fAhElnoeN3uriOs-12" value="&lt;b&gt;&lt;font style=&quot;font-size: 15px&quot;&gt;广州工厂&lt;/font&gt;&lt;/b&gt;" style="text;html=1;resizable=0;autosize=1;align=center;verticalAlign=middle;points=[];fillColor=none;strokeColor=none;rounded=0;" parent="1" vertex="1">
          <mxGeometry x="70" y="420" width="80" height="20" as="geometry" />
        </mxCell>
        <mxCell id="NfwQ1fAhElnoeN3uriOs-24" value="" style="rounded=1;whiteSpace=wrap;html=1;opacity=60;glass=1;" parent="1" vertex="1">
          <mxGeometry x="229.64000000000001" y="760" width="760" height="220" as="geometry" />
        </mxCell>
        <mxCell id="pmPGEmAbYdkGIdwM05D3-1" style="rounded=0;orthogonalLoop=1;jettySize=auto;html=1;endArrow=none;endFill=0;strokeWidth=2;strokeColor=#FF3333;dashed=1;dashPattern=1 4;" parent="1" edge="1">
          <mxGeometry relative="1" as="geometry">
            <mxPoint x="641.64" y="880.5" as="sourcePoint" />
            <mxPoint x="798.64" y="880.5999999999999" as="targetPoint" />
          </mxGeometry>
        </mxCell>
        <mxCell id="pmPGEmAbYdkGIdwM05D3-2" value="" style="endArrow=none;html=1;strokeWidth=2;fontFamily=Lucida Console;" parent="1" edge="1">
          <mxGeometry width="50" height="50" relative="1" as="geometry">
            <mxPoint x="639.64" y="799.95" as="sourcePoint" />
            <mxPoint x="800.64" y="800" as="targetPoint" />
          </mxGeometry>
        </mxCell>
        <mxCell id="pmPGEmAbYdkGIdwM05D3-3" value="" style="endArrow=none;html=1;strokeWidth=2;dashed=1;fillColor=#f8cecc;strokeColor=#0000CC;" parent="1" edge="1">
          <mxGeometry width="50" height="50" relative="1" as="geometry">
            <mxPoint x="641.64" y="840.95" as="sourcePoint" />
            <mxPoint x="798.64" y="840.5" as="targetPoint" />
          </mxGeometry>
        </mxCell>
        <mxCell id="pmPGEmAbYdkGIdwM05D3-5" style="rounded=0;orthogonalLoop=1;jettySize=auto;html=1;dashed=1;strokeWidth=2;strokeColor=#99CCFF;fontFamily=Lucida Console;" parent="1" edge="1">
          <mxGeometry relative="1" as="geometry">
            <mxPoint x="799.64" y="920" as="targetPoint" />
            <mxPoint x="639.64" y="920" as="sourcePoint" />
          </mxGeometry>
        </mxCell>
        <mxCell id="pmPGEmAbYdkGIdwM05D3-7" value="&lt;span style=&quot;font-size: 15px&quot;&gt;&lt;b&gt;IP-SEC 线路&lt;/b&gt;&lt;/span&gt;" style="text;html=1;resizable=0;autosize=1;align=left;verticalAlign=middle;points=[];fillColor=none;strokeColor=none;rounded=0;fontFamily=Lucida Console;" parent="1" vertex="1">
          <mxGeometry x="815.6399999999999" y="830" width="110" height="20" as="geometry" />
        </mxCell>
        <mxCell id="pmPGEmAbYdkGIdwM05D3-8" value="&lt;span style=&quot;font-size: 15px&quot;&gt;&lt;b&gt;4G接入&amp;nbsp;线路&lt;/b&gt;&lt;/span&gt;" style="text;html=1;resizable=0;autosize=1;align=left;verticalAlign=middle;points=[];fillColor=none;strokeColor=none;rounded=0;fontFamily=Lucida Console;" parent="1" vertex="1">
          <mxGeometry x="815.6399999999999" y="870" width="100" height="20" as="geometry" />
        </mxCell>
        <mxCell id="pmPGEmAbYdkGIdwM05D3-9" value="&lt;b&gt;&lt;font style=&quot;font-size: 15px&quot;&gt;Internet 线路&lt;/font&gt;&lt;/b&gt;" style="text;html=1;resizable=0;autosize=1;align=left;verticalAlign=middle;points=[];fillColor=none;strokeColor=none;rounded=0;fontFamily=Lucida Console;" parent="1" vertex="1">
          <mxGeometry x="815.64" y="790" width="130" height="20" as="geometry" />
        </mxCell>
        <mxCell id="pmPGEmAbYdkGIdwM05D3-10" value="&lt;b&gt;&lt;font style=&quot;font-size: 15px&quot;&gt;CPE 控制信道&lt;/font&gt;&lt;/b&gt;" style="text;html=1;resizable=0;autosize=1;align=left;verticalAlign=middle;points=[];fillColor=none;strokeColor=none;rounded=0;fontFamily=Lucida Console;" parent="1" vertex="1">
          <mxGeometry x="815.64" y="910" width="110" height="20" as="geometry" />
        </mxCell>
        <mxCell id="pmPGEmAbYdkGIdwM05D3-11" value="" style="shape=image;verticalLabelPosition=bottom;verticalAlign=top;imageAspect=0;aspect=fixed;image=data:image/png,iVBORw0KGgoAAAANSUhEUgAAAPwAAAD8CAMAAAETcgnDAAAAAXNSR0IArs4c6QAAAARnQU1BAACxjwv8YQUAAACTUExURQAAACAQECAYGCUVFSQYFCMWFiMYFSIXFCIYFCQXFSMYFSMXFCMYFSIXFSMYFSMXFQQAABQQECMYFSMgIDEmJDMwMD41MkNAQExDQVJQUFpSUGJgYGhgXnJwcHZvbYGAgIN9e5GLipGPj5+amaGfn62op7Gvr7q3tsC/v8jFxdDPz9bU0+Df3+Pi4u/v7/Hx8P///4t5IxcAAAAQdFJOUwAQIDBAUGBwgI+fr7/P3+8jGoKKAAAACXBIWXMAAA7DAAAOwwHHb6hkAAAaaElEQVR4XtWdh3rkrA6GN9vSM8n2elK2pG3K/V/dQdJnW4CEwfZM8r/Ps1kPCDSYJuq8iHm1f7SNx5zX7wbgpDmEVwece8T19pGQ55fwEcjlG/sKLAI/gj7CqyOSCM8f4D4QHI9K/iwh/vT94UYcB+Spk+j9T8iL/I+Pf9JnCLx59+4H+9+Ln8AuItFHAC9ALpEA3HvILUi8JYFL+P/7F/7c0P9/IUFRhCyCf/B4DF/ykf4nBwjsDwLBrUsF/ycC4S10Ao+P7ykY/5PPJLCtYxDw6UQEwpcMAr/FTYBAcIYAScRxEOSoBcAJe4AP5J8ISEjAEXQSPxmK+0oeHx+vB4Fr/R3whfsIUiU9wRlFKrwKQyI4IgKOIpPQ/iIRidD3U/6Q6EVC+gPw6mA3RVfkFfAR4JbwtujLbB/t4SkHoQm4aODTsQVnsBJXTuEveYYPww7sKfBn+AUSX0ILGN5aYMvyVgKxN9VtrvQkQN5HfbNCpYfLEMqjCPTB4SWQw5g/C8CbmhzN39ifnLglOLlA00Ax9P6fxf/x8fRn+IrUMnQC4k8fCXqiD6Y/q5F/V6Y//w1QgxRQ/uyV+L9/fPzR+/d+PRcc/B3lzgMJAEk4IP8uAnD8HQ+BUJN2On+p/fS9f8vjPYJDQJSehn940/+4psFfa+iBtyfQe5sCVMtX8DYEyKEPHuDPZ/AU37ifZicN3AfgLsAtAZ6v8LGEtgUYuFeQ2gmK1xBxobo6AiQtIEHgTSrgQUA8AZ6mEQEgYcUAD7MkaSCWxID2UZtHLiIaRQAnCIwCcQTugsMTnJ5ITZPawvBnhvuwPgL5AC8GATJu4N99hcbgAUgggoMQPFhlAbgKkLWAxOPjGQdL1EeGnY0IBiQcwosTRDqh7kE7EPLhnAOyjYHw8O4IDuI2hOsfCA5I3VOAHeAbOAl8D5/p3/FV+EMOPx+53yBYnAO+2OP/2AGeAfV4+pH+PqLNByzOAVFj2WEIpcILcXgWfuCAeH+/2OnxKwTKiCyH68LjCxBX37/6UK8DOBiNUPhBRaAJ2lSHo5FQVH7RZsE9xg0vYSj4ixc78oHdOYGAeivia2Rrh14+Dt5VAY4AQkwXvjN9hRD+VuQRmhAH5yWkQBhBBbhVxADBXQTsgfvQC1qIdRxAoAh4BSAdg0YrMHTMCa8gIJwj4EOwYxSQ9YCUA4RGkEqdEGydRt7uHq72d97gUxNpJ96kHL1ZQpbjNiUTACIlIOkBKQ/7m2vCIN0HMkw21dEB2Rxpihm0h4r/wScA8ZThuyNICnydCOAXm+MxaDdMO67TXrCeAhBKh4dDib+DoAcGj2kSuooLqRKQREAAR4iUgSxCMnCCwBgiTLYLEBugNvjjnYgjcEA+Ow0n998BfCREvo8AWQdP4f7jex6J8dwKYA9GAiA41MNLkAA3ybAWngEJIsGlqZGZNQD5Y62dgHccXp7hwUA65wQCUQT8FFnekDaAgA4vT3AWIGxwCglYP7b5UbJCIaK+AP9Ps4bEqAELuSG8sj9LX7xDpkYCkfmG8JA5/kdIuTtlw++GHN6zAw/8CQ4Xhf8uAv2X7PILNk8X/2f5wOH2Jbw0OuIdYP0yrxg+hXivxEF8ET0H5PkJNLfpuws2K4cYwnV2VBb+mhyQvp4QjEPKbEygT2AWnh3gGSBrPSSdBMOnkI7eQbgncUwU8l9usoe6Rp9Emv4P6ZL3x37Eb/rEAfX3H0x0JfqVjcg+CQJJR+HFUoJvFF4YC5+8gInhe6GR8CLM4Xb1+CkLZgNZDteZK3DLyoABJKUj6+rv/+Aa+I2hiokxgJYHuKYM+lIkWAgvrT9cU9zwMnrlbpyfnAjc8BKIgk8KL12g2PGY1mZ3mfsDPItJMeCzwHIShINHXwAhhK5CxK4kBmMM4XflU0N4CYDg3RegCCAjuOEhj9AB+cy1uAIMohCWEIeC5af5IsLR/KQ4OZkY0w2mEBLAcTwJ3QgQ4To6A7BsfvavLg3e22DlNEinF0AgDUrBu3dfIJwDAcP8JYbBZ2QL9fRjX0s7A28CYXqGwa8fPIogpKPLjMtBc8AdPBPxANoCgi4Qc/BXpwbMwTPjL33HvIR8DDwriUeSytifzZuDOO6Oo/YJgiYwTTXGgVm457BVWFFwiHceTGfLftU1FCcKauiWaydziIgm0DdmFh9+/Lq8vXt4fLi7/HP+DY42iK4Jpw358AfNkU03MZBQOenUYzUe3+r6xQACRCDiGvLCVrUgFBG11UzNcl8A0gP5HFQdaqZKqPgCacq7qddpwELpgRKPfYiBMROigt5OAFBkAhHgGw9tIDrgTgHHSV9KOYEoAdQlwFNY4LVr4iyw+iR4CWPzjgk3nzHafs9jaYto0SDrDKJZ7pak36c7RQL2d0DkTLJhKNLut6vdAOr4+KM4GLqFK/GPQPRM1BVF2r22NZ2NueonMk2MV6DboX2oJuDEQDSDN9Q0gYCKP9BBDJYnHBgIZtQtg8ZgikwhK9wClEc2HMRyEGMbCKvQ7x/q8YlwW/jRKUwbhFZAESHZr/p2o8ZduIW7Bp6Si4EqgtXjmYBER7FkV6HWtTvU66chm2rpo2a+3xMwk/eIrwfKCD/xCDwAdwZO/buVT7qgiwtAGwWUDcD7anvgTyCgAh6gd/l7yt+BPsf1jFx6dCao7melLXk10YdQNjRNdcra0QifpDWDJOL1EZktF6CO0OuK3TrBaBsT0hvawCCHz9TC4wkEiWhfwfHxV4mZgDpCLyUPvSyCeIQelv+q1StyGKC04rGHI2agjtCmJXwDCBEBL0beDj19D7pCUll7lPcsoRn6wE/QF3hxgIeAbI0nrO4lOH8nOsuCQK+GbA7qb1jEbC+GLwd1hB7IqX4eQTS2qyYoGJYIMiRiAuqIbmcKoYYyRpsTXPHkUVSvdo1CHeHV+7yLCY548iipV9aP6vSDzYMnAv5Cu3lRAHEyquS9jkbxSYc3WHbz0E1OAMqIpMfLzbx+tW8q/Vpqhxr6coevJzEgskbyGVZ8INpGVpI+Z+OZAxQRmPPQ8yhDu1/BBPVQw4j2eCplaPrGaVcPJQyUB+DANAzvmtXrGRc90IYTo6xdid9AlsoHTtP+VWE29skmLTgyQ/VHBDmp+vcV6qNBdjr9DGcBAerVD6vtOVAfjbDzyW94CKMTafdYYe2Asw8iFqwprnhupaUGjBPP8kFhQrKRDiEXIN4OaZxFAslcauMUi0Myt1dabEhewOQJzYFkcnVsgj07RFE9kWyQTqsW1+GAsvzBtEzIpnSL712h7L8ONQKq4Taf0K5JeUdaBpgvdW9B9jgk+MXdIZld7vnhrnU/nOdpFqYtayFwCWU3etQunlrk5bCNyiWMEoipmQUXVRvfwmr2CqLBm5q11P3Fl3Az3mbV4nB3gVyuZ+vN9u7eweHq6GB/b+ft6MG05djadbJgf9JG/Ra2xpbw99f3Hl5VLuLPaWY8ttQkzDgLv4PMCBilZpNLJf2upib0askMKjeMGMzYudDR/to1rdsGEmZsGwFz2sLi5o1KWmysCNPg6vly/uf6NljBd9eXf86KRse0zs8t7x/OTdv7Nh7LKKYUQWfn2VnR7L90dtAgzmrsF1+zd+USsjFtGWBu2qndkGpu3mlpBa3K3jTgNr5AfQEwCl3zaD//ArUDjdyqnDTOTffMVBbALO1Tt3GkW2aqWqBsi1zTPGdM+/g6K/NzhvfD4TowtmU03aTavlUsAfF0jBgBkOoob86rIimBRWs46V9nZPtAUgCgySIZuywzsZVON0BXTlLsZhU6jV7AKDQ/8AeLaU+bQCf744xfdFI1zn/oi4n7mUVK3UBU/s3WB35C8Zz8FBCvYNifUalvbeYvujVrf2IdMQvQORCbNwhSR38PgoDzgyk4VStkjV9U7loq/AW0KrKtMkxkiUJrR5T4UsZffX5//HVYGLU2CwbMN4DYmaTyR4mHuMGwLUEWxOMdG4pk1ZiJ+n/oFaLEuzU+es+0FcjVHpAgEbr2RaafNuo/QTgj3U0zsosNoTTQwEAzAycGohlZGRvZyma8f71ZURV+XeftU0kBxFpPvFOLgQ4GugNwYCCYMWHzHEIqdN/bz/9oC2u5xJuvH1qIvuXXE2YQy/B3xBQYFo87dNcH7frdVxf7KsrJx/yfXjhy63zFaVsDBFbo5RZRrycMIZSD+BrJ3762/EU9PhBuwZuo3uh/oYmQso8PRG7f3U+ocArEolDTQFz29aAOIj3phRDNIB6F7nhIvWrvk107C2yaQkwa6CJIPR6J2L6cvV8qcJLv04cugqoeHgkICNOqWk66T1+1PNTt4JGAAJO2M3yfBHGlbbvPV//+9jvrIBBLBBAjiDNfNTo667PuVVfhbpdKt2EI6vCJiIN3m5kFaCOimRxt4yHgQNSCSKEc9j+K2YMPTFxs4ShAGxEVfFXy8q2KcQNGBYPP1N+ccuHirKKHnrjowJGBNsLLeoRS8F0eRC8Q/oqhS4WL/oeASMSWmDZ9o82SeCDgHTCMdwVJSIM6OOAJiISGXMAZ1AW2bfUI40BWFOd8Z+mGjjVuH9VXA6rvVbO+O1PUh6QE6yO8476CZe8rj0MiJtRsAy5xEeAdQBCHkJLQIoYi15tAaTMh7ydiaP7UaO/AVD9yLiLEFP7SSE4+025UPIGbfAgy9L2q3Tky1Vt9Dd8CQ3wMcbNAEJRXHt4Gl3MInHymsp+NAjhmBuoCK6V+GNRbqdf1XioVVSZ6ooMPrIz9QN5fwSMAfUR13iv13csZBrqS8/hAGEYKfAJQF7BfvqM+23yPcUw3yg6PLKF38A+IbEAVvcMW9Zat//1iqPF2QDDMOShr0y75lqXhqNeEgHgy6K+N0s3Onq3eGDrPVS8RE2qS0Wn1jGiWU68med5q9crMzpM/U70yuaCNeKnHl3rFKCu8M9VLrAy0EdHuAPPut4556rW5BW1EPLiHv4CAi6AvM4/VO2UvgKALMFS6gCr4NLuHRwICHQg8myjt2taihV08EulBUKvna+Z9bGbHBT9eM4XEwFhpG+VjojwbYuoZTYhE/Pt7il3orfy8CtUlRU9ukXr99hdYtxsDmghZ08cHom0ZAWMtfKpDv3vZPjv5WBC6WnyqQ8/qs/Yo85tW6qeohx6im1fERwZSVUxQr1cUu1lV/fZblu8mqIcWBtonJ79dvZ7VGxYU4MA0LCO1q9dzmsO28Wg/PiQraFYfLaZBNwEXRu0OwtV8Bml3VJTtgQYGE8pMtF8EsgHEbZCrx4MBIksWsqFZgBsz7NdAeINJ6hE/E+9ejzZkQnpp9dEqNvR2wFWA/LLqo0006db9aF9k9/oR3iD1uhlXj7gFaB2Au4DSj/AGqRf9jIOHxBWdGsm37zWuoP+ESQFSmyYjWr+2ti/EuyMRainiPYzm+QX4CVO3qdnEe7fsnVPxXjV3SW0C2sQJQF9K/Ppn7xbrSbS7R0fgD5bSn2j3T+vEpX+h9x91c4U9U4Fko+QS5S8udW7GC+nxC8QxnXTH6siZIUj1zNy6le4dHz20AbmeOQUwKXQjexUFSA4grnbUuoFQdVgBsgON5zBBlvTafdqQVkwoAfkm5eqDGpDXNO7bzN5702El60RIwxcwlNeUugHz+FXdNYsP+WsPNJ5FdQ4DjR4RsBIe7IvmE4pJ+z/gv4NrM92BSbf5xv1vxI90Fub23FMdmHhMsOIo2Cfv3PFA+4vvKbyAWiYmXbBvda5n9h3OFTngMuO9D0z9Aqtp585zpnyBRVLeYdxHUGT5y6zrX8FqTeeha44HHq3j7HnPS+9OBGK14In7Am920h5xtb+9eG4vytarN9u7h5YhoTja39t5vVR9fXq23njH5cc42F34IPcGeb0zls2V7O/8l4rC1vbEvC6xv9ambBFe7y6T2w6Hz7UQbL1eQ35b7D+zF7C1s4Ax3MLBLMt5ObbWW9J9Djd6uYzB1hK3Mszg6VrBTVXyMjNv9JjE20UK+/igvIbDjTaBtbf9xHz6cfbrujwpdvnn/EdhbsRnU/m/1XrX2Zez6/ZD1Ne/yr+7k7OB+r/dUNw/fLuce3T87lfxApmY9Rb/rdKANuLD+cyFj4hL9/qalLUNql9VWjLfqi+DaSJdhXJY8vfXeuqa929LZnhOVSU4XHpio+Zqry8L34/gkN7bYrDoTFqFHbfmLI+pqAFLTYSMz13+b8H7QCq5HasAi+T+q7G6/q1xNXExxvJ/9l16Y0n/sJl67jFS/2e1/GO/PGlfKrdRRor/dLO3XNmfONMHinbwxKpfzvZPT1XTLezlcTByhZdJMdu/PH15j9HXlqQ0Z34x259d0on4yq6YtswvZfuzKvCaQtPfkvkFi+7ZNHMWhaavdrRfKvIbOBo0B3tXElO3Je2lb9fU/+LvVO5v/l5c/Pz5/fT04nd+KUcF9qWtRM3FoYV9EOss8VenzuUxX0+Nc2sF/Mwf36vij13Xlu33P80j4RHGTzi6+Jk/MtTz076mbL+qvi3oo/ETrjYPrslbbPbctH+Yku33V9/jPP15Ax9w33g51sfaGuDO+RXW+Ny0+9dLuXhZOpy/uhkv7TmV5d+1+NzUu6ZN3e5XxT3OwdlwMz4p6YR/L6Ym3fLf45g72QXJHc3VvZh04mbabXCgqg/MN58DM/VuH9c6Ez05T6uhXxgdx2v2jB7P/QGC1rTPPgxfQ03L7zX6xkkzbzGmNe3+D9AtSvY7lgZeyc8sXa+hb027c3Ps8tT80KKX+qS7N3+DINDc1i1x1V4dc1IfVfstZxmuuY9b7Ka/CmosHqe/j6q9U+jbfnSVwRfbBCdQWcSZ4VDnjpxzLR/a52yMe5fWR5W15zT5w2Kms9eissLfX/29+Pn988f3BL7XRqjKeqfa9wv5znGW8Wvh771B+IZIxkk25m8vDlnvdPHlQn//e6O5bFI3yLW3fKGzd7q5YsZfbKo7LxJdSOXitPjS3Tlztf4IvnUYvlZOxt+A3eZJrbf7eDfjZ97UvA7o5soCdtZzX++Uei/jk1t/c2zb4yY3/U4u1OAsqUdmJKUpr6K9Z9d6GtvaUxjOEfZ/43XdNbyioe5J3ljpy9m8SAo/vGBc/N9hL2SSoWO39fbqRM3lcQWrcxjx2e30MBr2IyncGez88og3n3vodvJmP1c1VC8kvkt9PxnRFeTvcOgNxKo3mOMEcwydLWfyyrTqSz/2UeRrn9Fc87u0R7NdcpOh/3q/9lcd5pdlDzg9v72It+1UebOtn9PD4atztuEbJs2XNFmllGHurtjk2va+3d7vOAM6q8rPmp+CHc5xSOHMii+Xh1LKEEep3Dt5b1f6PWdQY41pSpkyDqdYkia9cjbFy4WjOBki1aV8Tbo52rEnsvejH94YsPZTIvZpyGy7DAekaKajX+mqSgMGzNiPjCms2T27xTt07DvDxJnc3AVOJL1dtkq5j+/7lgtMC6W+swzGFgXMrEeyYlbmBSnmLTm1Vd7tpe6HegOZoQDDQO3TXhOJh2Xr2jZefeJrJ2mc7x2PhoY1p39/r9DzPd4PBboqEof4+l/BTPzKvprGtOwrx+/G974ffhmkJ1tyu9HxW5FcVba4RuLtOn/kWLdWgze6AifI966pJJ/7bunmNHmz9ZHkdAVJYbf2B85o3urqKsv9nO/dMyMSa4Bjb9Lbc4wc80rgsnXR8dSJt6q8beHtOra9vRuhyr594sSbEzv27P2289v0zpWANYtRT5v49LJ1wZ7IemPfhOYuUFak/kkTbw/pnW0aL7z5S2+Vbnw64ykT72xZsQ+k0HZke0eGfxXmWOb/viKK485xJkVi/JCaYJd6Wqh2Fur8hflnOH3LuHPYTqnniXt7XFfcfTYzX9eAMSHaY+/Kk9NHzk6k8p4MYyr6CeEflPJwMh6r1PaodvwC3GewWheIpv8t7Izv9ic4G/Dq9tb/rdg2vC4+n1as0zr7kPt9OVOz/j+B3dQPxy2dWj/t3t1nhr1ao/fgOvuR1nioJBof12ysmohT6PU5W2/r6foOUm0o8XfOZTTR5mtnjX591X5DiXfOnCRHbJ2CP2EzWh2bSbxz6CA9XO7dsrzczw3EbCTx3oGLbN+1t9t+wiGLGjaReO+IpXGfjHfx0Xo6vA0k3ku7ebLWqfaL5v1997NwkWX8Ho4V9lo9Tgf/7si+ScZLvf0zG/jiLZyOTE/QolbdLGmMMax58M7VOml3917b/T0UtzCWeCr+yyTe698Lt3C7F+tb8/hQ3MJY4mkGbpHEu4cqSzeQ+6nPt2pAcQtjiacF1iUS72y3DWk3DhcN+KnPzlRCcQtjiaeVpvmJn36U2K/36SoOFLcwmvjQ3M9OvH93kNfWKfw77+LMx6/ztfB3LPG/Hx9vINuCSnzh+oCqmzPcE7WNv+r5FBSujKq8J9BewRJaj5ptlFuvgwsUzk/H+M1eKPubvPutiTvnOA3RdFeOX/HXOMydxYN7Zj7QeEtSqeivbZw7nYfCJTnvVtVFvqeU+c/skqRirrdmu1DM/GdU90duhWvPdqGY+c+k5b8utPCBGb/o4x6qB+u/NahMsaoHjkbs2RG849U9T2j3/Cpn+pSGLsW9TqLjaWr/dbmmB9Rh4RmMX2v+acMXhrk/zzew3KXvNbe6t5+1n8bDWGkndqe3cwaF0c7A2fqWt8DdWUXKa8cwDZS7/Z4fa3sB11UJf7eqvfevjdo73t/9WNwCuC7acIoFWniP+tv9wxtYphF8uP5SleHMwbx+fZTq7Gc+nU0vBA/XpR8+zVljpiuKV+La/DhveAm3v77VZzZYbfC3ChuKf8KnH2fnfy6vr+/uYBo/3N3eXl/++XX2raF8J6y7uKc0/6LL2th0ysGE8r8wmyztOW+a2r9lWS1jvc/iSX66bLX7NIXdZHuDJWC185Rl3WETL+BpK/kY2/YO9gU42H5GJb3A62WbgdX+q+ec3yZbb+f+fuVq/23LUstz5PX23kHTW1gd7O389/J6nJdv3m7v7OztHRwcHlH7uFodHR7s7+/t7mxvv95sgl+8+D/soODcL6rJngAAAABJRU5ErkJggg==;rounded=1;shadow=1;glass=1;sketch=0;gradientColor=none;fontFamily=Lucida Console;" parent="1" vertex="1">
          <mxGeometry x="317.34" y="784" width="40" height="40" as="geometry" />
        </mxCell>
        <mxCell id="pmPGEmAbYdkGIdwM05D3-12" value="" style="shape=image;verticalLabelPosition=bottom;verticalAlign=top;imageAspect=0;image=data:image/png,iVBORw0KGgoAAAANSUhEUgAAAEYAAAAhCAMAAAEkBh3CAAAAAXNSR0IArs4c6QAAAARnQU1BAACxjwv8YQUAAAAzUExURQAAAACA/wB4/wB6/wB8/wB5/wB6/wB7/wB6/wB7/wB7/wB8/wB7/wB7/wB7/wB7/wB7/1kyc90AAAAQdFJOUwAQIDBAUGBwgI+fr7/P3+8jGoKKAAAACXBIWXMAAA7DAAAOwwHHb6hkAAABdElEQVQ4T82V65KCMAyFUwpUYLV5/6fdk0sFsYAD/vAbJ1vr4bRNaJZoMnpiKjCNjG/2KfwZN4r+hM8DEQZ62Mhhiv4EUZ990km8NDaqUx2HFwZoBl/e0aVfeHfK1ZkWwnvQX3DauuYVzETfiQPF6Md0IHvwASIxx00gEt0uuWg0Zm4kRJkQJk6ICw3SpCHPCRu5R3xqdoDmfqQRk8Ozy9q9167KgGNQ4+pN7rKcHHAbRkJ49eatCTwRS832wGJf1STZvYZu3l/wMrkGR1wGY2Du8KdoOomtBZg5Zlk0e3xT80meefBbUyUyt5KFffScye9alcluAHrFJQZ1mWSYz6JG6FDoplq40yQYJHkTjkpxAHaEWv2sTZtKluZRk6RFrQldeja6lU2jadfWoKNRRtqWFv+xDEmrdAllZWNv4k2G+vA8erPpZTbXbWSrz512sXTeebQktm5SsTnHD9rIvayV9GNuMMDt1Kt5Dauk3M4LjIHoHwdOMKNavHbIAAAAAElFTkSuQmCC" parent="1" vertex="1">
          <mxGeometry x="310.34" y="845" width="53.03" height="25" as="geometry" />
        </mxCell>
        <mxCell id="pmPGEmAbYdkGIdwM05D3-13" value="&lt;span style=&quot;font-size: 15px&quot;&gt;&lt;b&gt;SD-WAN CPE 设备&lt;/b&gt;&lt;/span&gt;" style="text;html=1;resizable=0;autosize=1;align=left;verticalAlign=middle;points=[];fillColor=none;strokeColor=none;rounded=0;fontFamily=Lucida Console;" parent="1" vertex="1">
          <mxGeometry x="402.71" y="847.5" width="150" height="20" as="geometry" />
        </mxCell>
        <mxCell id="pmPGEmAbYdkGIdwM05D3-14" value="&lt;span style=&quot;font-size: 15px&quot;&gt;&lt;b&gt;就近POP点&lt;/b&gt;&lt;/span&gt;" style="text;html=1;resizable=0;autosize=1;align=left;verticalAlign=middle;points=[];fillColor=none;strokeColor=none;rounded=0;fontFamily=Lucida Console;" parent="1" vertex="1">
          <mxGeometry x="402.71" y="794" width="90" height="20" as="geometry" />
        </mxCell>
        <mxCell id="L6_xuCTIjq3hUXFmm_F4-1" value="" style="group" parent="1" vertex="1" connectable="0">
          <mxGeometry x="420" y="380" width="355.1" height="235.37" as="geometry" />
        </mxCell>
        <mxCell id="CjMjSR9vqsGcoCLZpo86-3" value="" style="shape=image;verticalLabelPosition=bottom;verticalAlign=top;imageAspect=0;aspect=fixed;image=data:image/png,iVBORw0KGgoAAAANSUhEUgAAAS4AAADGCAYAAAEbJ12OAAAAAXNSR0IArs4c6QAAAARnQU1BAACxjwv8YQUAAAAJcEhZcwAAFxEAABcRAcom8z8AAEAnSURBVHhe7X17lCRFlTcNwzCyiCiiCKiIrAsLgi988hCfK+p09XOe0Di4LdPdVdX16npXZrNHV5RhnBVXR/zERRyGYQbm1TPT0z3it9+uuvt5VnZhVHQfnlXPqqsu7lkf31/z3V9kRHVUVlRlZmXWO37n3O6qjBuPjLh548aNm1Gn9QxG7z35wNi9J0/VI87aOlQ1YvvTr+FJp41uO/ltezpPah4Gt3/7vHKF204+wS/XRMsa10glTW+cn8LLjZOGPDD4aRjgN38VRIF+C5XLURFnc8botqf/reHMCqzb/t1LpbK2j99zMiR9LxNnV8M1Y4BwrNORocmoWXc7GyVQ1YZOaBTgqmGTk5Nn3pH91NyW9PY0vg/OnzgVTuRvxX/GwBFJFf5wYsJYg88izTCM02NzuTeKaxvyX7ken6dTqYsEz1jpsbtPnTo1gM8yKtqCD6P3Pv04+8IRTRuXjs/vu45/LVc6NjZ2htw49t1c/i0aM5PIvX9ycueZG4sP3RwOh89C+rB59BnBH0mnXzaTzL4tFos9Z7S095N1G4YGlVtoA/XGLaJQuTH4jIagUeJ7PJ5/KV1bHTKP/0DwxuPGC6emjHPGjX1foq8DaNiEYaxBumPD6M/2Wg0DphL5l29JpZ4rKkNjNhQevnvKMM6ZTKefh2ujpYMLIh3/5c/hZP490/Hce0Pm4pOiYfi/rrj3PldDSVbDf7EvHJFE5joUPGwe+xG+iwrDicIoY5AQNoxzh8wj38fnMWP/3tnZ3EvY59Lj+/AfYHnn5i5Bw/Cdeva/3TVMfGkzOrJhyna0u3Gj256aVbZBNo35pZahZqMERCIIDeWXmwq5Tn6pNmTmVhGv2h1UBQRNvKoehuquZbLPuU1HVQPIBOdJdvOZEU9qLrxUKIwCRs1Ytgl4aZSMRvJ4gp8KmtY4vwWL/JBBfsk/RKF+GgbI5aiIsznDnhELVJ7UEOxljWx7ypSvCeLsarhmDBCOdYpE+ML4pZahZuPa2SiBug3jX9uGinbUahQWD1i+hcylH2CVNJPM3TZSOvB1XOcsDOL7R2K5i4fNw/fL17DYkPnxGQtp8ZldlOC6YfzjaVimiaXasLnwTfpXXt0IPvyXP1v/l385E89eMTExUV6p23lkCF8vLNqaDYtGo+eFzOXfD5pLX5MbFotlLscSDOtL9Mh0yrhoamrqHFEprkfnCleCl1de7jX830pp4bBxrrhmR7k9tRomgALkhonK8J2vEVnFU9TgWC538Yjx+MfQOAxZNFUIYcErGiH/F5/tcGyYyIy7FytxGsaT4fDcJZylDKRxd4HUO8u/IiFjQw73ARbFIu3OROJFVNY38FnG2D1P3462sCmsVsPagaq2dErjajZMtkpbjapGCaw0rjXrSRmibrtjp4wyAxG/1FRQPcwF5qpOmbFV5GmOVhUQODVzseIFkCFlA2sQz9YfoBuukOuAaDsvvneguEmLXGxY21EvLICzdC9acVOtqKPpaMdNtKPOQGBvtF9Pghe0zU/YKOyNDdTJ5AH2drihkU8+9XaevXlQVSwTZ2s5VG1phHhx/qAqWBBbvncI0B6vHir7/cjEWdxDVQimeJ7ccxA+HDvx5NqAreQ5U4/Bfv81+6CKsdZSuA+gCmzjSRbskuW0z2gYxir4twRxf1jZz1omc/npsbE9LK0WhoxjfwJe/pUBITlyuQIob3B++QT/yjBoHL8XvPaAElFGyFyc4JcYUN9ac/nn/GtNqB5TnlQtXfyyEnAIoiFRw2BKlhq2ZjqTOR+f4fFE2h2x2AvQqYgxisTz1+PasHnsM+CxQ+SB+5ZfQsf8dsg8+hNc55dOmzSMs+18wn07VjqwxHnLnYaQIVxjROXxy6chvgnX7B2sgrJfhKez4mIdINprpHTwb0Rj0DE8qXzzwnUsEE3mXsOuc6++HdFk8S28rNMnJ62OCc8Zl+A/grvAg88jpUNfpY/sRiF9uDY1O3cV2oTPQ+bCTqQBosOiUcPyt9NnXPfSYYDcN0xN2R9HzucI3FwiYbzo1sz9H0UD0Bm1OmzIPPZNXKc8q/FfEF1nC3KE4+H7qPH4LP6Pl/buYNfj+bfiu6pcfFcRNhmQLjoMPn60bbh08K/x3VeHoX+qlhgOzjMS7+8MmksPo8PEKINw0+LGQuZCdq25GLN0jpV+J3UuL0KJmbhxheBNpVLPxTXcrLgGKWSMhLHSoxtwTXQOx8DG/P+aw3W0Te4wJOLa5vwXC6K8BiXM8rhUXCRiF2sAnYSbR1QptpHS1qizytEI3Cw6DhsfiUTiD+yKuw4GEOaIx4t/Z0DkKsrEDfNLTJ+JiFYZ4KGBOxd1YrJBeXS5omPQJnsdtVCzX7C2qpnYp6A+qHSA2v15FQE4nHhS38HeD3X7ws6IYA2e1PNQuYxcuazsmQTx5J6D6l5BPNk9HF+165TtKA+otdAWFNjOrBxf3GvUUrVTKyCtQ6n3tuk0CF4f536amctQdYRX4kX1LlQ37Zd40b0DuinHGIpaj5jLR7U3FLXixsrkdQcHUJUjiLN0J1Q3BOLJvqAqF8STuwuqGwk6XlF+8U8mntwdUHkxmhVDgaWWvS7mFu4WVDX+nqdv50lNQdf65eyNbtUoqx5JntSZqLsX1wLY625l+JRn2BvbiGngF/Y28Mudh05oqL0NbqhlbwJTZUrrvF2LXlUsgxdqyusYKvNAJs7WFqja0wjx4vxBVbCdOGtboGoPJAbrTGZmIJRBEYalIl6kdzgtajlb28HaY9/vcwDlqbnY9/xo1nrsmvKMtxEqA1cQZ6mPWrs7PLknobpfEE9Wo9aWEU/uaaj0GlQRT66GnRnEk/oCqqeKJ1XCzlSTscfhqh8cGfoIdfvCntiyJUGHoq6ToGZCDQyayz8UUXaDd51ATCiDiDZeoSUsg+pF4bGIaHtcKqKY7VHICGQDrxz0huA6q57j9/JLZaAMpNmiABm/mwA8ZZ9U9aKDT4pu4heoMJzMDc7MFYbxGQG2SLMafuLUTDK7+dbc5+8W38VRj3bQjbOw8pC59GN+qdwpIKTzy6fhPEFck6P6ppLJCyXecifKZaw1T/yCXy6HZk5NJS/kl2rCHsTM3lCRL4A4rxKiEQikxYjhezibvUDclGggQhjp2mrc4HDpwN/iGnhZITasL+xmgb4iXUQ2g7ZmMs9nTAR8D5nHfyaXg2sfyuxgwb1yEC94cG19YddD+C8GS3SWOODRCVV9U3WhDkQjQDbxZhBp/CuDkAh0Kr9UgZlE/hVIj8W2MYkR4d+gIfPYMq6JesPxwmvxHRCR0B+Jpi+1+Jd/yZNWBrX46KesNKtNLe0sIBxPv1Y0IDS/jDVZudPkhglQw1nY96i5/6P8UgXEywObjC+z9wnxQsBoad8DmzNfSvKyBvCyAj6L+HlgaP7IPbjGjmpJZN6Ez0IXic5CuPdMLH0tPiMwt+WdhYbMzhWuui17/ydQMQjXkCa+M0YO3ACuoeH0dcCKNB7DY8ry4H/IXGQThrjJeDzzKiFxkCARR0/pQocxRT2byt6AL9PTmfOtfFZninJQJ31ePWQs/jv7zl9EaFlnCWCUZlO5N6ByutklXMNnEGPgEI8LztKJpI2VV0qISCrYxCCkFSHe+I/XUugmmcThxvAfuo0VSICU4JqKkC53Fr7HMpnL8V2U5bqzaLKr6Bv5C7vgAUJqqLP+Bd/xGcQSOYbMxX24hveBxNsaLI7e6hBLqZNEgGdqtnAV/vMJgiTu+M8GzaXf4RokjRVIoDLZ4Vg4EhgnJYEiydwIrqEOe2ft2bPnjLHSvv24BmqJZFEj2FSP/2jQcPHgB/EdkoF00Ri8gUEduF18j8Sz7wY/K0QBUS5oQ+mRP+OXcaTx68V16DZcQzn4Ppssvo0xceBFLVzHGxqCR3QWgBeqRFkt6SxM66PFx5mxJyiayA7jkUT6qHFgt7geml/69ebCg5+bTWbfRo1fzQqog4n8fezs8IQkQZhBcW20tP+o6GzxqEYi2RczJg6kD5uH/w6SyDrLXHp2Q/4rW3kyM2AxaKq8tVDVN3bXhNOWFjXk7ChN19FU4Y8wzcvWN14hEY8ZbqqWMarCGOwy6dEEcIMoRwwGgEcf11SmCwxWIYH4T2VVDBJ9X0VtqqijHuR+AdW+2OeAV1juk/KxDvJFELvY56jZJ66dXn0CldeUJ1mom9hncOwL+ypbydQHsPdBzRMO7YwgntQX8Hz/njP0CBq+b1XGZkf0tQu1tv+c7M0KqAoA8eSegOr+QJ46SkBVUJk8xhd0CqjtdV9q4GyNQfVDaD1JQcbDKivoEeK3GDxU1m1XUqvj59lM0iWdx9RJF77f3VJgQBENY/ciuCXk68sXRTVWwIKXbXsMraC6YVwa3YlOnV56Lfq2L1Br5dvp1NCCU6M18LNODdpWcnqpwol4MRrtRCNaql1GdyMCp7VZG+BVqNr1cwC14LX9WshaBA8rva44oAaaVNF2JfEsGkFDdTSmijr6iII6UJ5+oiDt0ggYjieAWtQTR2m5ss1avWXQq3CzCuSsPQXVfdqJs2o0AkcHaI8/wf36YDUdjoZun0wNjnudvB+wouTn8mzHQ1lLMHEdbymjf1vyQ3WdAtysW2coz9IXUN1/S6ib4xcbjUDg2fsKqn5oB3Waz7CMekcLuaV+PXiC7t3x4OpWEzuWoJ1w67+pR+xcLx2QptReLI7Mp+0Ee82lu6cmtdT/Vuugt7pEhqje6qiNVvdNozMNzx48vAqVFqbugVftxrP5h6ddfz3FdT3gAlGOrY2w+udZGoOqUBVxdo0egltt5nmGcruZzNk1ehhu3EquV5dupsF2BeZptA8qOaggp50V1QERdtKGev9CJQ8VVEvAIDTKDBJxVj9gx36K8wNBqiOiNDoXTtt4yilSxSgTZ2sIJFDs9Mx6FDKPfwvCxrOUz2h0RebSSZxJxrO6BvLE4/mXinKG5hdytc40EyeJCspYZ9cqH4wt/CA6UKh07ADOc+NJFcA5a3KZIHH0ay2IQ+5kQtsoqaotOFNueP5wSfClrTN0fT/MKvmQibNZcFoZ+IgCHdi6NfN8cXOjxceXplO5100ljQtjMeMFsVzu4mgy95poPPdeHAoqDrQDcLCeyAfCkY44iG8mnr1iivLMpLI30OfQWPGxJ2Q+Eg7H0woFIEg4hlGcugriA1ABCOGQcaR8OiIjc+lX8qnRAhjQkHH0oODDAabIz5PLYHzm4pPgGSod/Yngp2v/WOse0N5IOl0+DHW0tP/vxef1xUffZJ8FcJggjpwUPDhmMqiZQiUnMnG25mktaKLZjHGZuLnh0sJR1YDghu03bRcufOdJZaB8HKg6M5u9QeZV1VEL0JDymcrDpaMP24UBJ2yL9HAqt0V8npszLsGAczZgAO0R6RsLuz9aQ1hPx5mjgi88l3tzNJF+u/g+WjoQlrW4gF241pd271xXePiL5Xz5x8bk9jRZuOruiTLb3Mnt4Cd2HTeCc0bXFR/5nLhBRubS1/gA1rxRN8IlgKlic+HBmOC9Nf9X71INTg0M4FTf0dLBBZEfWhXXkYh2Cq2FU36nZ3OvGzaPPiN4cRwy+ADiXR2aX/yGSMNJwIp2DMjCOk1ChXsLh7MXjBn794rr9ICU2yBgF66x4r57UMfm7BcL4trI/NG/FALWTOECVPIiiAUiOAXv8XIaBm4U9gmezi2Ze9lp6HYKGce/IDpEwItw4YjneMZ4leAdLe77hHy+rBOo7lUzceMKkT9kHjtB1zA1VQhCJJG5Du3AVC6ujZr7o1yABsRBwKBwPP9WKqM8zQvIdtaweeRJDDjuHcdKh5P5V4bM5d+LdLsGBl/ltLj3k7Ft254DwcTx1eL6oHl8EeW1U7hAjnuGvBzfwE2FwzvOgiaLpQvXRudy78OpzuUOIeICxG7ei3DddJOxatx8PCF4yX573cTExBq7ES7TWnP5OxAqXgSrT/z4BIj/kMXqodKRQ/geMhZ/mCRbEQMMTTdSOvTVMm/YOBfT65B57J8YL9lwsOXAy4tnQH3DxpFdIh9O7EefQDhB0IIzsdwbRTqVsyS3EeXZhYs/ROwhmEmk37GSd+l7WFj0hXDZgY7CoEAbiJunJ+6fy6dUexAu+woqkci/HIMCYYjE89eLA+kFzSby75jJZq+QtRsGV/x0AgiCgsEQ3yGwEATwwhiHoS7SRoyFL4gfAgHBhqs64RsmQjb7YsHjlmSBqCNcAD28xrk4gn0l//IvR0v7tonvLRcuJ8cpL6dh4GZq3RA6a2PxoZvFzePXUqamprCsdiVcEIhB4/gewYMpBVNWraW/EyDY0WTxLaK8odLCEvtvHvkefkNIvo9oNHreeOmRT6/Uffw/8J+M8QVoNmKpuGcMvOAdNha+OZNIvGIy/XF23LxM0ahxHlbF7FccOD/yogwH4WJg2m9uRfvJ1HLhcmLys9WDwRoyF/9OdaN22pL79J0fieUuRgeyvNTRKj4VDZsLJyOpzC3RdPrSycmdFb/W5QWo2+6aAKk0Eew82EgyHwi2G5VTsdpEXvww1gpP9gr5dw3sAL9s10ED4Zob4QKIbw3aLNtvoBYLl/W+qSKhghhTA4BmYTYWPUmRVOED04ns+kgyuzmcyN9KBu8m/G4KluBwV1CHYDos3zg6E4MQiWffCWNVEKa1mWTmXfBzYQDwIziYFlEXz+oLkzt3nonpMZzK3oRf1sBPm0CbUFLVoMDgxvSINjJKZK/eLK0eOQamDOOcmVjh2nAse3M4kf1jF64S9vNP1FfXoFwICu4RwoXFEUwJ6rcb8SMctYQUDxkEMRJPX4/+Qlnc2RoInDz1nI2EwCFkmS0rfcP6xTcIAZ56/Md3SgjsSdJoDRxD3LfZzqx2ChLrq3fhNOpCJR8ycbZKqBgrSEea9j2UciFR3agZVQaZdCxXf8JN1Iyr2U2V0U6cVaMP4OblHE8v1aoKqCK74abRU3A03Dlxdm/gB2AoC5TJdQy1RlfArVAFolyUBdcgnkWjC+Fm+hPEswQHVSX1iGfT6GB4PTSm6e9QOPnEalHHnqTSJ4BgdM0JRK7nZgeCOoaLQwufP0B4mJ1MtlCjCkCmjjkEOChB09Rm6oaD4dy8A6mp/dQzTnE253tYkWgKkDBV6u07DY0uAbcFcRJyQwYuHMQ6IkSDAcLU6HLbDbFpXU8v/QM//htfpPdWexfsbM8A/DlBkJ+XhzU6CI0eGNsS6uYfEOhnYPrrFE3lRLzJGt0AGrCO+zEAJ9KhSB2OoLQV27+k6RTl8aLrAjaU09FSbokXqdFJ8GVbBeyR5kJe/6f86pA2+DsINCDep0FouBb4oBoWeu26aD887z+SULUrXEfZnjoEfxzPqtFqeBasDvCWow3KttUiehh4Vo1WwZNgdeAU42UB4PvnTTTco1d+Y8iTFtM2WPPhZUDcuhLaDVXblaQ9+s2FstPt1IV2ivI+FNQtD0zXAUKj6vAK6mID2NX9EXF2jaDg1s7i7F0L1T1Vkba/goWyk23EWbseqnuzk361LiDgSVV1cAV18KrQK9j2keoebcTZNRqFy462DmztIbgxA/QepE84HdYK4qw9B9W92omzajQCVYdWUA9Nhyoo71mmHr//psFxi6cP9t3cvEzCWTW8QNWRMvWLQ1F17zJxNv6q3FOz2LdkQqnym+EaLZDY3uY9T9/el6tOx22ePtBaAm7szqCopw9Jpht0FfiHIDyepefh1jURNMEs4U3oXrBoTZdbH4J41r6Bqg9aSt22ad5oCHA/RmgG9QJIANTZPkVHe8qB+mlKFGjX1FiLOuYkQRlBGKe8qL6Dqi/aTR2xYm/4LRgF8SL7Dqq+UBLZr9xHuB22EraJBGE1aLkqgluBojzexNYDfhVVo1wTOovUcL/4tWqhjkN1u9++gRB6XVTZiRfVOjTcYBLIfhcmO6B5eN+wh41fDhx+ZpmWOGUbNUA70lDsYzSySm3qgqsRwdJC1dnwbKM1wy/mVbDaagxqeIZqDGtS0AKmrKQGaZuqO+HpheSgQoKUhStIn4HQ/fDiCOdZGoeHObnnQpL7GYrxVRJn9w4Y46oC7aSN9t6EaqyraFsDIVJuDXj9Y+q9DdWY28nzCyUunaR6KuxxuFUynN0ZZY9xHYItxtk1ehxuPPuu5UGV2U6cVaNPgG07lRzIxFlrAzaUKmMFBeXj0OgqKGVBJifjXplJJpJgzqrRZ3Bjf3HWarixtTirRp/Cye9Z05HuYoXof3V46tSAYRinj42NnQHCZ7o6YCVqdAMUclFBnK0SKkaZOFtDgBCtNRdjg/MnTlWRufyb0bsWXk2SVyFklGfVoHnif2rkefqD5tLDQ8bi1VxAGwIEfKWO5RP1ypqcnDxT1D9kHPsTulTroRiQeXEf/HoVkLbWXP45+PC/Hq+AXHZo/sS/1cuD+xPlO7TZNRx3bewb207eeD/vumHABs2lr4kOqUWJROIPiJ3dPPKEw9kLVHwqGjaO3HKKtCLyesBAKpV6LgnVL0U5k4ZxNk+rwJ49e84YNo98tlynufQjauNqnlwBDPZQ6diXBW84m71A1Tbc47C5kC2XSRSaP/pxCARnqQIr21zcJ+ehtnwX1zmLjIF0Ov08wTc8f7gEweRpDcPR9rIb9komiXxEOgxMyjdoLpwMJ7LjM4nc+8OJ3Acjiez6YfPwSaSFw3OXoMORaWxszxmxWOZykS+SyH8onMjfOpPMbsb/DcWHvxwyF/9TpINC5vEdIr9boG0jxce+KMqYSiYvVAlCLBZ7Dg3ir+T6qK5zeXIFJieNs0mz/hY8ofnl38ViuYtV7ZowjDWCTybUxVmqQOWsGTKOHLHn2ZrJPJ+SK9qN+5iaSl4oeMZKj92NOnmyL6hkRCbOZkHFIBNn8ww8KSQES+IGI/Hsu2dnM5dNZzLn44mOZTKXRxPpG3E9PGdUCFc0VfgjkS+ayL99a7RwJa5NzRWuiiSK14WTmfdEktmNggc0etfRD3sRMAwkyhL5R8zD91P+Ki2AwZPrAU2njIsUdQ3EYsYLBM+YcWCPauAJA9PTmfMF36bCA2UBj8eNFyLdYqsE1Xf2kLFwTPCWiYSU0io0KYRrdjb3EsEzWtr7yaCEyymStRwW7aTm/EyJmGYGzeP/LG4Q2mjnzp1Qzeg8GPeroD2gMeRpsUq45gpXjo0Zq3EdAkv51mAQSQv+cTiZGxR8Vh21n3w7UH8kVfjDcn7STvb8xHN6eG7uErkO0HDp6MPIz9kYwBuP518qeGbmcm9UtYdNs8aRz6/wFYbFZ7q+y16uAF2vEK4Nxa98RXweLz4+ImvdZgqXs8zwYFEne8tPcP4WsmlIc/2LuEFMEYpph60g8d/6qhAu+oxrPFlgAJ0F4Vhf3P0FwUuduI6X5wxqSySSfTEN6JPluqJGhQmAgaapaDfSyN75T5DgxRTI2RgmJ3eeSenLIh1tUwkKe+g4z1jp8X3TqdzraFr/mbjGH7Qq2IULpoX4DKL0svA0U7gAlazIxJicrH/G1CCmpqbOGTce/VS5A+oYwjJcChcDBiJGGkLwhsyl74fD4bN4siOmpoxzPpT9zGaRH1qK2lgWTtmGGi/u3bWu+PD9ghfak1jKDwXaItJoAfBkJJt9MQSYJwsMEN+LBF80kXkThGBL+r7bxbUa+aqEK5LIvH5jYdc28Z3ScqLtHSFcqgSZGFODwCBHk7nXiBsUNFQ8/H55AO3wIlxYXc0k8q+Qy58yjHN4siPGSNinY3OvFnlDxtGD8qpKtrdmZrM30KLibeL7xuJDN0v3MQB7SaRBYCG4PK0MlE3a7evgCZnLvw8n86+EAJP9eI3Ii3TVys4uXLOZzGVkM74e5YhrYsXbdOFy2G+0mBQJMjGmBoGOxw1GUplbxE3KNPJnS3S/1ULmRbgIA3dCE5hLzwp+GMs8zRGon9lJ5nI5v5iWkIaFhrgO2y+aSpXbFZpf/AbxME0MIR8rPFrWgLG5wqshuEiTAYETPOPGvi+hrcgLk2HYPPqMSINJwbOUQXVVCBfyMK2Xv+9PxbVBc3Efymu2cDntQzMmVUKZAthLROeHk8lXTsczHxg2Dv1DuRMEmcu/4YPg1eYqA4uCkHH8XwV/MmkoXQo1MADtNFrc9yWRf5Kv2NhqlzQZrg2Zx3+KFSKz0cyj3xa8QjvhPkPmsW+y6ySokXT6ZRBOpAngO02rN4i8ZGu9ga6xAQ+HjXOnE+m3i7Tx/EM3KvJXai4SHuSPJLJXD84v/Vpcp2vnIG9TNZdDvD1zX6kSBAX1ihimx63x+Esj8fz18HMNlw6WB0cQOomzexYuPOVyWehUCBc6GMS0ikS4RtnKwmd3SYzn92wCn2x4j5ce+TSckhCmLfnPbhLXEwnjRbCP5DZAUFUuCKp3NWnY7zM+c+nXmM5RD9IgyFOzc1eJMsh2/DH4WUYO+q4SrtPh2plJ5t+1kvf43yBvM4XLacXIXqJVJUgUWLQpOhFPJ+yEmVT2BgiZvPJaay7/QtgZjWguwQuCdoHLQ75mJ26bsMGngahwSUAD4YGQfVYwnicmjDV2G23YWLgX+SFkK7zF6xQuiAqH8sbiro/H4/EXju3ZIwR+FRzJw+aCpf2IotEoVq5lASWeKuHCQ4R+Qx9R3qdEGoR7OpW6SHwPWrgAhbyUyVG4mhAjz3xbELKpWObyaDz3XtkY3brVeto9CRd1LlZXgnfIPPoP6FjYTfT0/0Rct1OF5xxl2FwSEARMbeI72os2IA+ui3ajDtQ1YhwyBa/KBQEBGjUPhAWPGxo2DpeEZgNqCRclDcCFEk5lbyrnp5W53P5WCxeLrVclSNSsOHkSoLHVkUj6ZWPFvQ+JDoBhjcHzIlzofNkheXv2cxsx2NZUl716Jpl5F63I3rNCmfdEk5m3YIegLFwEu0silstdPFQ6egifQ8biD6WtIWajwfsueCGYNBX9AJ8hoPgOgbVKtjAxMbFG3sd0Rebyb2WBqCNcTPuyaba4f1Gky9Nsx2muZh/OigEdLe7fJTpgNmNcBmHxIlwQJMEHgkDBmw/BgYBBS0ILCQobpDWpXgwGL4LBPt2NGPs/Jj6Pl/buQDmcldlo8E+J9K3RuSvF5xouiAHKU55iNxYe/EwklrmlUugtwr7riHH4W4JX9qXVEy4ALpjwXO7NIn3t/NJ/ic+tNuiZ812VUKZG3kurRJX3XQYTDHPpd6IDoun0peB3KVwom7SBxQO6PfsXH8EUyev0BOSRXRKkif5DlDubyr0uHN5RdswS76podMUlMVI6xFaUIAio3QVh3+6BYMLekoVeELSePL0hH/KjHKq3rnDhwYQTeF1xd7kuQYELF87+UskMJ4tJkSATY2oM8ERbWsVc/k2ouPg+3DwGEQQjlATru+LmsQ2CjkVn2YVr1Nz/0bXzi3HEhLG4MHPpYZQp0kHjpX2HoLVgdPP6vaLKJSGINMorZeFGG+HuGDKPlP1SjMylZ8XUzlkZmJe/zLP8bCKRfzn6gidXQBjncrnCMeokXAB4sfiQ84OCFi6nzWvG5BSBypgaADpYdkDWI9ISP4fPhzqWdaJduJzojvSnElihwVVg72wvsOy0FZcEiAToe8LdwNkYEAt2a/avEjJvDRfEAOw7wbO+sOvPFTwy2PbQaOlAObQG33HdjXCh36dI8KHFBR8ocM3lRm7oQ90fIGBMDQA3iRXZHdkdW0l4/lu+UZk2FHc9iGlANrAhXIigkFeSMoXMYz8aKz72RDiV3wTbZXaucBUES+RvFJR/FVaFJFCWL4qI2VCK7SS4KmZi6WuF8zJE//GAQEA5CwM01Hhh921Wu5d/j+0wp71PasfZ4diK7TRm7o/ddNNNq7Zt2/acDcYjJaus4z9FvJbqYYL2hhZfV3q0vOgIx9OvDe9Ymdr9QiUrMjEmx/CJxs+CYNMiNFAknn3ndDI3EkkWNiLYD0Q3vx7GK+wZ7MlhYHk+S+uFsxewVR0ZudPx3HsFReay7w7Hsjej82fi2Suw9YPB8qOxJLAlPaYVFmNGQo8VGKIdeHoZaCOm8Wiy+Ba0aTaZfdtsLvcS+3QHewkanPn24vm3Ig/y8mQlrDxzLE80kb8xkjbg7V9FtBpTNNqFSArYaMRedd/oC2a/JbPXRFLZd7K6qTz41DiLb6hkpUzyzo6SQSLO1gDIfqIOgTMQWgwdg7256XjmVRi0O2m6wZOu6mx0JoQTqzvZ4GU+MtIkPN8q+3TlF2gLyhb12LemZJTbSLz4z9pTDUxnq+HBr8NTBdheWHVi+uWaDm0YwGeUBTuult0G4D4wDSI/ykF5PMk3nMK0Ks6PUDHIxNn8gK0a0RmC8D1owdBoDVQyIhNns0AX6tpd+pgkDRkqGZGJs1lwsrtAnFWjz+F0vKVyy1DFKFNf/kCkRhVUsiETZ6uEm0NIOKtGn8LJcVp3R0eZQSLPp8hp9BRUMiFT3dnNzXHRnFWjz+D4Gj8RZ60NVSaZXJ8ip9EzcHMCkqufb3GcV4n09Ng/cONJ8BQ9oyzARiwAX6PnoRp7O3mSBRhmqkLsxNk1ehROkQ+cvEcr1/mRyQri7Bo9BjcGPIize4eqMBVxdo0egVvB8m0aqQpVkfbg9wZcToXBLOq8/JJVE15F02gRvIwzUXBvhbn5FQWZeDaNLoEb95OgoN7Cr4BTgJiCmvXOo0ZA8Ko0KiJMg4YbT20VNeN3kTV8gbmaXNpWgpqisezwODfLpDVZm+FZU3FqebCoqhFuSRv+rQMEyq1rQUVt8wK4dbQ6EVSuq41PjbrArIIHN5Bx8bJf2Cz4mCY1dSh13DsTbmLBNHU2dXw4lZ/5XVObiKbAropyCcoe09RE6jahsqMB56umJlNPrta1oLWJSENBoPoqwBMefy/7WppcEAkSFld4kPtKmDRaBwgW3ETsAbZmjO1sRb/t5BOwh9nCiwSxTJJwgpDO7GbwQ1jhiyTth+08+CR1iJWGhoZrQCFBcZQd8bLS6RQiZUf/t+uXxDQ0+gywaALbJewg4vezXVtsGhpdDha5Rw9zR1pPrSOtzDQ0OhlW8J7ed61HrH90eLyGRvtQtqgUD6gmd4QNAm2RaWg0GdqqaiJhSa2tMQ2NYGApqw6M75bCG/hLDrD+tiNMgoVKkBKQCdewMcA2BxALxUIoOjRuXSsxDQ3vQHgCVwbqB6vJJHbp8PC2cymF0Id274Kyurc//RreJA0NDTuYpdLCXUBYPFAM3fZgMsXOLLvWWmzoK94EDY3+hmVdteA1ElKI3aik3AKWIbs/1b0HTLDCMG68ag2N/kHTl4PwQfXxrlkrJgRm8ellpEY/oKkKiznM9cuqKrBNgmYtw6lcHVah0bNoigXAlRWvQsMFmBJT9aVPwhKSV6Gh0f1gTneFoPuibSef0JaVf1BfBh7EiwmKF6+h0X1gy8Igt/Kx1NHxRU0B4uWUfe6HtP9Lo9sQqJVFCksf59IaQNmwCUI1Do0QWca8aA2NzgaEVSnEXkkrrLaBKTDVmDRCNI7aea/RsYBwBjhb699f6wAEuoTUy3yNTgMsI6WweiQd3NiZCCqEBeXwIjU02oug/Fl6WdjZYBa1Yty8kg6b0Gg7glBaiMDWVlb3IAgfJsacF6eh0VoEEciolw7diSDei9TKS6PlCMKnpU8b6G4EIQM6WFWjZQhi91Arrd5AELuOfl7ZgovBTjxJQ6MSfn0cWmn1FoJyGUCu2JsWQQbAuiTUD+uP+Wx1xH9vALMYZlYoHL+v8OilQW8i0DclOpSYctWxaJ0JpqQCUFAq0tvgvY2mnP7RHbQdEzvvBo1WAB3eDCWlIv3aR28Dk55q3PuU9JsfQaKVikom7dfqDwTh7+pR0orMC/gs2N6foqe6eXM0+gCt/hGPbiNmOOgNgGpAWXWSv0FbW/0FbXV5IBgU/ezwL1tWqs5pB2FAtp18AkoLbePN1OgTKGXCJcEiwQ4eZAeujWbID/ytCKBlG1FWKEb7ViSc+urHRzCwbel0STFps1fDDpKR2pNol8gOni2m2Nqx9KX+4c3oHbR8KUiCphWUhhewFQDJjYh96iWrGzFrLVNmUPLd/txZCiuYc5HqEml7mNG9JGwaGs0CFEtLDIlu84Xx2SuY45BVhJmRZhGtqDQ0/KPpbxF0ugJrpoUFB6g+uE9Do7mw4iabs6xE2byazgE1LPgdQqyX+3nrVUOjjWiKJUbPdEe8kYL1MlMwqkY2SrTM1MtADY3OAFtJBf32Sjt3IYNeFmInkBetoaHRgQjaqd/S5WPgVpZeDmpodBWCVGAwgHixzQOLj1JU3iDpFzk1NLoYWPIpnmvvRIZQ09xDQS0NsV7WPiwNjd4AnuXAVmBBBq8G5pyjm+vILVENDQ3fCGw1FoTryFJaAcR1tHMXQUNDoyUIyvpCKAYv0juCUlq+GqGhodF1CMSt1KjlBStJWaAH0ktDDY3+RCBLR6/Ky7fGhLnY7W+Ja2ho+AIUj1I/eCDXkfa+Q/1JabU5rH/AMIzTiVaFzMWJD5aWHh40l58m+s3g/IlTZWLXlr4amj9+79BHF68eG9tzxqlTpwZ4GU4QdZw+NjZ2BvLWJ/BYJPLxutzW1ywMoB0r97HSRqRZLA1BWWYA9xx0W23juFKmz3LtqGq3qMdnn1SNXwBlBgrfyov0CS+qNlhwqSqzB2rT8pANXjgcPmvQPH64QkF5IVJuw3ct3k5lrUKZVtEVQD2rEonEHxDvd5RleKTQXSe+utZcjKFc3APqsKpqLqz+2nHWiLnwp6p2pVKp505OTp552mmulflpeGDGDGP1UOHQWlWZNFE8EovFnoMHjNhdl4u2Eq0euuvoh6vLXP7O1JRxDvqPWN2WuTKO88v/WVWmVe5vGii3AqLda82jKWUdIMhc8eAHWV9bCscVUPbEhLFmeP7onL1MXEMaeDh7W0F6wde7zI5Bqn6XiO04wQGDA4UVumvxo/YBBIXml349Vnr8q7dl7//ETDJ3G2hLent6vLRn37B5+GRVHnP5mXg8/kIInF2QUNdmEvZI2nhZVb4giIR4aH7xU3j4myx07MGNRqPnRVKFPxwyj37L3pbQ/OLS1kzm+ZbycvXgoszV05nM+UPm4tft5QnamH/oRuI72/X90RhgfMPh7AVkQf+jvbz1xp5CLJa7OBbb9hyXZQ7gnnDvZG3/rb08mZC+daunPiiDW0Kr0e6h0tFDqvJlChlHPw6l7uYe5LJHzf1Vco9rSAMPt77aDt/R9rX8XVA6ygwuyVErNgEYZBKqs4fMY3fbBw8Ka0tmR5wezFtmUtkbIoni66djc6+OJLJXTyVzr4kmim+KpvNvn0nk3h9N5cfWF3c/QBbBs0OlhWNTifzLoaDsQoRl32Q6/bx4xniVvT7QDJUznSp8IJzM/8l0PPdeED5HYplbwoncByPJ3FA4URifSWY3byg+/OVh89iPVOWASHH8BR5YN4LcCGD1wKKYSeRfMZH/7CZVGzYWH7oZVombNrDyDOMcemiiqrIE0X19Ix43Xjg2RhODC2WAcmH9jRgHTHtZw8aRJ8Px9GsjkeyL0VduLBaUt4XKGzIXdlaVZx7+t6prxpHPh8PGuXv27IGV6BroM6Kz4/H8SyFT9nJJ1v6f/dqweeSz6G9ukdYElNGEYayZnc29ZLS095P2cnANaeDpFMXFQiUUesM11Voy+gp9oELRMF5US8AGb2JiDYQ2ZB7/gX3wyKL67Gwq97qtJDhpUjYYRMycIBKo1ZihcX0qmbyQlMsrY3OFV8/E0tfCAsGDFd6xo0ppCMUVTRX+yF4fKEoK8cNzc5ds3frnzwcfCHVkyHIJZ7MXTKdSF0XTxqXRucKVpEivm0lm3jWdzI2Ml/YeUZVHwv1dPLTUjoaXK3XAlnWTdK9Q6KOlgwv2+oWSQX+B38qmAI0FFEciYbyIJpF/spdjJyg3KE03DyjKrTXGH8p+ZjMUr5uyAIwnrJp1xYdvsJdFY3CUrPHbyVqsWjqOlR7dMDnpwUokgJfo7Eg6/bIho1pxbSh8ZTfd03/br4eMY4/hfuopym5UXIBv48geWgW/lIrRNTUac+EDENSpqSlmMdAS4l+qB2/fNsx2k/WXJTC5IWCruHWzhv9fpRpwR8VF15EOPp5FBqsL7Z6c3HkmZlYoBSjKcDz/1nAyN0iC/POqcs2lH3lcsrkG2oP+QT9Fk8W30FL1WXv9Y4VHNzspBqTBihk3Hp+1578t+7kd9mtQblByTlYS+hHWzrCxcK+9jJHSoa9ismHWm5NitcCWV+APmUs/lssaMo98H9YxydI7Nue/WJDTQODHxMPa63IM0LdENRXX+uKuB2bi+Q0hhdVNcvA3uG/Kr5ywulVxAb7ewrFbXX58W7DUeDEthXhYZjPGZcPm0f9jHzx64H+3rvDIRrdLHTfwqbiqwIV7DR6K2dm5qyLx7LsHaYlrL5eWK7tgudUSZB/Aw7wKinEmblwxWtz3JXvdUDJ3JhKWklHVTQ8G0lTW1ohx+Fu0fF6H//J1K+2QCWuyVl+xh3PCejhJcfxEzhsyl38PZQ+lQO13Ywmx+0QfhkpHDshlgW7P/OXEFPX/VCxzeSSRef1o6UCVBQyfX9QwznM7gaBNaFstxTVe3HNfOJW9KZrIvW/IWPx3ezrd8/cgS2g3FVdRXzcrLr9WV0WYFTSZkskdteWUBwjGirWQeQvNUj+zDyAoNH/iN4Pzx5LwqSAPZW14IINWXBxsyTY9nTk/nMj+sUp5kCX02zAtQT04oF0D5WH5NJ0yLsLylazXH9rrh3/JUjLVVlc9a4uWcndEE/kbw8nMe+xpUEZTSeNCKCfVw4UHFopmxDj4KXveMePAHiy3oXDBR+x1xxRtxAQ2ah4I28ui/n4QS+U7SfFGo8Z5kUj6ZeFY7s00GT5j5x0yjtwDK1/VD3agX4lqKi6sCNg9JLPXzJKlN2weqV5ik7WNNtmVZTcrLsCPW6p8bp/fZWIbY7bYLCp2xugBefto8fEl+yDaKTS//MSgceQW5IVwoRyrOGc0SXGVlcdHYrmLo4nMm1RljxoH70qnP/68m6wHNVCgL9Bu9OP6wu6qXSr4lyJZOMB3nFXxINDnWtbWsHn4G/AxTsczr4Lvb7R4oMqHNmIevl+yJMsQ/QFlSg/vr+Q8mKBm5nJvRJqrXTg85KQc4cvEBCCXRcriSbKwrhNlYQmPJVqMLK8P5T5zm8zLiPJDIVCdjqEGSCeqo7j2fhKTLvx3XH5vHC4d/Gs739r5E7+gtr1AVl7drrhIbzQcHoGlJivET8Bpu5aJEpjygrBF0+lL8dBj925dac9eLCfsA6oiKDJaijFF5jTIzVJcAATzDhJQWF1k9VTtbo0aj31c+IUCF0YqD+Wy3bl4+rXYrbPXT4poO+4N/cRz1bW2sFMJ/yOWwXh4YcWQEqr0oZEigLK2KyDUAUtjxFj4QgU/0UZSrHjQVQpPARb6EIsZL7CHaEA+oCzQxi1bLGsS/UplMj8Y27Aga0zOY+U7/iSsY6clI+6HqK7imp5OXYSdWPQr2jGbzL5tvLi3aimLflo//+ib0Da0EdTNisvvcpEV4ie+oh0hECpASGANYGZKkABMz+beEJnLvpuUwOhtuc/fPWwsuAsWNZe+htmZLwWqBryZigt1kvI4N5YxLqeH4z/sZTdbGFG/CI/Abp29fiztUD/1tWVtUBuEsoNFJvPC2orRgw8FgOU8YqFm4tkrRkuPPSDzgWj5tVte8qFsKLJYLndxlYXEwh8Kr7WsP+fwB+zMWc79I5+XywGtKzz6GUwSUGqyEhL1W0vnzHWwyux5qc27JOe5EiiHqK7iEuOJctD3QsGT8tpl5weNFx8fwX3jvrpZcfkOjYCfy2fQaUedYgphgRDCD4GZHg9hLF24djaVvQHxWiSo4x9Ob0+TSf5t+2BX0rGPQUBQHi+aoRWKC9aEquxNxS/Tase4kAsjHopVa82lg/Rw43UmD3R8G/IqBNoxPAIWEJbmyA9Ce+Fkt/NF4unrEQvHN0ZWrSgCtQ8tznd/0QcYPygyKDQ7n5fwB6qXZIHKLD26wV4OTWTfhBO+1sONsmGFoS5YZSrrfT1CJKjNqIdnqwCuE7lSXKgfdaK/4MtEP60r7q5StqAh41AO94W6u1VxAQpd4prY2zlj/k6B6NTjl9nMTbQKg4fZEZYBBDGSzF4zlUjfiCXllsyOpCpuBzRkHrubHqIKwWym4sIDGzOMF4wYh79oLzdkHP8p2g0LBvczSooAzmQ7nysyjz8zGY+/UKWY8X1lw0MRHkEWECwhPGBQRvAbVVlbpcMnZucKV1mWzE5myWAc0C9QyljqyfwgGoNlRNyjTag/PGdcgrpkntHSgQUoVChWF+EPzBrEbujg/PIv5XJA1J//SuU/Q/QdsrJP0n+Fgsf1pe/i/oh+ai8D5ZZDOhRtQV8SuVZcIg+UErf2Xq8KzQANGwcLUO54Y6BrFZePDUH2hk4vWVz1AKGAYxuDCasBDyf8OYjfGTYXnrIPPgQWyg5BrmLwm6W40DbsGGK2pYem4oEFjRoHdscymcth4QiLkpbEL8duKhQwQg5IsW2sRdFUfgOsTUTwT6dyb4DyqWEtMCVTNzyCLCEoUCimkdKBeXt6eM4KU6gon/oPDzhb4tXwoY2X9myCX4vFWRlHD1akm0vPQpFizGq0W4b1So9hnIcQhopyAib4zRBcjPpQr1W9BbSRyJPiAng+tpmATY0P5T49qbL4sPxF4PRYcd899rS+sLh6wcfVAJgTFj4xKJvx0iOftg8+glqtZcnK9neTFBdrC6wglXUwZC78o7XzlboIAg3BxoOC8AQsHdFGtnNHddcjtnMVTV8KKwFLLSqH+ZSsJqwA5Tst7RDvhHrV1tZchbVllYq+sxz5W2czl23K/1VczgciC/ebWF5iR8+eBgUKReom/AH1YMwQumAvZ8Q8+O1wPLcF76uGU/lN4Xh+k0rRC0I6Xs+i/p+g+72D7rcq0n3IPLxNOPd5ExjQj0SeFReA71D0bGMjkb06SpOrKr6PJrQHx41Hq8JFOl1xIRJBpU9cE3xcfg78Km9NdiEgWDDL8UrQsHns7+2DTw/h8dlM5jLs+jRLcXHhXhOaP3afqjyaVf8J71lCSbA4qsrXQNhyGG2zSHWcjkwrx54gr1WEGsRTNzxiyDzyv0dLj1UtUZi1FbFZWytgCpr5HmPpa+HAt+cfL+4poGz5GhQnFKgIWVCUWwbSwLOu+OUbqi3XpV/PJHLvw84zlAE2C2TFXou2RgtXkhK7JhLPX7+xsGtbZZkW4RUie9vwmaghxQXgGuVnL61jE2EmmX+XKlBVtXnQ6YorkBAsv1uTrX5HUYAP7Kq1xtKuQfPE/+A/gkzxcLoYLH5CgHHe0Pzxakc9W5rQMmzOuER+CKEA6iku9jDQEsUwnmDOb0FciBlhR4j+rw6ZS9trHqlCtL74yBfwsODNANRJeepaGoGC2syWdnXCI4Zsfp/R0sHDifIuXaW1JYD7h38My1zcm5wfpPIlQXFCgUp9UAvsQWdLTdUpEqVdf46AT+FLg9ugWrlXE+okWWGOcMSljRT3H7WXTfLyY9SL+tEONAb3StSw4uJgcoowGcjcTCL9DrLAq97ZtFOnK65AQrD8bk2240x5CAVegsbRHXA2qwaPZlxa4iwfIiHejvOuBIWM418IzS/9X2UeIggGWTjviGP5FY1WRC1DkOspLr8EXwbN3l+iB/UWOGfh88KyzuvJBEEAE0C98AiZWEwUKfo5KPr6LyOX46rwihOUnao8QVCYLk9/YJMYxobyVIUSDJsL35gmpeM2jMIO9AUULpQQXjUiBVv1lgZeJZJfy0IfEPlVXEB5ko2kUizQWhllL1HHKy4/rxjee/IBXgwNjI+dxXb4uSAUOHYGPpF1xUfM0Pzy71QD6IVo6XLyjsx9M5F0/nr4cFSvWgjFhWNtSHj/VVWOF8IDP2wc+odbc5+/GzFneFcRCiuRz78c9dN9NvtcrnoYgAW7Eh5RHfkuCAooSksqyQdVE7gfKDcoZWVQqkRbeBCrU/gDK5OUBEIUqsoxl59FYCesPLev6yjAFCMUEya0TbkHlAcD4pUiHgIiLOwgFBdgKebJ9PNggcNaHSvtfdhepqBRY98nOlVx+T2slO0oCvhdLrb8tR8aDBpI5tBmvgj2PlxuEA7VzYUHPzdWfOwJmmVPKt+8n1/6Na6PlA58nXg/G0lk10fimQ/MJotvgwMYszIeApWAQxjFQYLhudybUWc4ldkUTeZuiyTyE+KgQpnCifytIDh5p6l91g5gboSdz0WKir0snMxeg8BZWJAQfChM1MWrbRvQBux2wr+EZRJ8ROivmRjdG1GU7gXnjSEoFA+Kkw9KgHiYdYRdMUwUNIYhyxFO/QhnOPonlr0ZS29YZzQW9cIfytYWHPvs7LVkboiNK/1H6At2ZGVryMrmGUzmsCScnS1cFUll3zkTz49B5qKJwjBemMaSlk847HUyojVJHJtEViP6Dju7szRBwV8FP5vXw/5QLpQ4XBgYDzjtcZac1WfZzeE5KptWC9G5uSsR3Y+wkU5TXL6iGFRncvmJq2jT7iKfhYyzEf+EGRy7a+KQQAhwOFW8GUJCD8h7QIimJ2XxTggZFM9MunAthB0PHXuQwjvOglWFsq0qqsDqhHKBkxkWHzPfoTzrENoFocZsiZ09xN+Il3pZWbR8QblEeOg7StDQJrxNAGsKr+dgwwL3A8JnXEMaeHj73aCqHzEOop/QR1gestdhSIk7PXyoF32I/hRthFJEuYjl4laQbx8h2jG503qfES+IwxrE+KMuyB/rB1JWvB9YUCnboc1kzscmENo1O5u5DOPfQJ8xgJ9oNd3vuZhkYUlCMaPfmHVK7eJR/e201pUI4Gj46vAr3z8n1IYzucqwLDAMKDtXC8ICYcX2OwY4bBgW0YBidw6zFluuNK4wRH18V0/t2F0hsfMn/xADexg7SknVBe9j+V7E/Xj1GUmw9aO9j7yNCRSLXFaD5bhBVV/gO1ew9rqU7arB6wU1+w5pFktnwVewOxlWNTcCfZ2CStTmX/fR0NDoUPg1jMrH2ajg19elXINqaGj0NfzqFVfxon5/jaOLo+k1NDQCBouS9+E/B7leyfldMmrlpaGhEYTS8uQ7931eDmjbySd4cRoaGn0G9lqPT6VV169VC0xbKgrzRNrnpaHRd/DtKyfytWoLIO7CIrzNraGh0fOg593Xz+2DAnE1BWJ5EVW8Y6ShodFTCMSfZVFwZ/wF4vMC4ca09aWh0VPwHbzOqSGflhv4+hVambTjXkOj68FcScFYWdapps0EVeJ7DStR1xz9rKGhYQHLQr8hU4JQTsvO9AvK7yWoaSaihoZGYAhSYXFqj+EC77+iMY2TXkJqaHQcgojJqiAqC0qQF98ewMwLWAuzG2v6mldDQ6Mm+IZckG4hi9p5iowKfg/Ar0XYEGi7dtbQ6BMEbl2tUGf7s/0chO9EWolpaAQPWEFNUlbM/dMy53sQaKYCY4SO7jSzU0OjC8A317Y3TVmBuk1h2dGsJaSd4Gdrxy8OaWh0Ovgz2FxFtULbu1ph2WE58QMKYHVLpPWhzHqqIzU0agBy3mIlZRHVVfHrO72Kpi8jnYg6Gu9OsnboV5A0ughCOSH2kRkCrVRQNsIz1LdGAXVA8FuuAZO1DD35bcStrRApPk2afJElS1gZgJiMIbSojcrIkdBWPdlXIqiXNTVp0hQgaWXlHlgzBx7YqkmTJmeCK0X7hoMBOlIrMk2amkCkqLDa0TGSLQAclPATKAdCkyZNtUnvtncWsA63LLMWh11o0tSJZDn5t+O50EqqS2H5zEipWbs4nbtro0mTW4Icw3FOygkrEK2c+hxY67NfKrnn6duh7FjMjGIbW5OmYMiSKygga8Xw1CyTP7KUIItaIdlx2mn/H3J/1qkf5HlvAAAAAElFTkSuQmCC" parent="L6_xuCTIjq3hUXFmm_F4-1" vertex="1">
          <mxGeometry x="20.167622740491492" width="325.8407481325198" height="213.62291155841936" as="geometry" />
        </mxCell>
        <mxCell id="GsIWdPKWRebKrd8d-r1N-7" value="" style="shape=image;verticalLabelPosition=bottom;verticalAlign=top;imageAspect=0;aspect=fixed;image=data:image/png,iVBORw0KGgoAAAANSUhEUgAAAPwAAAD8CAMAAAETcgnDAAAAAXNSR0IArs4c6QAAAARnQU1BAACxjwv8YQUAAACTUExURQAAACAQECAYGCUVFSQYFCMWFiMYFSIXFCIYFCQXFSMYFSMXFCMYFSIXFSMYFSMXFQQAABQQECMYFSMgIDEmJDMwMD41MkNAQExDQVJQUFpSUGJgYGhgXnJwcHZvbYGAgIN9e5GLipGPj5+amaGfn62op7Gvr7q3tsC/v8jFxdDPz9bU0+Df3+Pi4u/v7/Hx8P///4t5IxcAAAAQdFJOUwAQIDBAUGBwgI+fr7/P3+8jGoKKAAAACXBIWXMAAA7DAAAOwwHHb6hkAAAaaElEQVR4XtWdh3rkrA6GN9vSM8n2elK2pG3K/V/dQdJnW4CEwfZM8r/Ps1kPCDSYJuq8iHm1f7SNx5zX7wbgpDmEVwece8T19pGQ55fwEcjlG/sKLAI/gj7CqyOSCM8f4D4QHI9K/iwh/vT94UYcB+Spk+j9T8iL/I+Pf9JnCLx59+4H+9+Ln8AuItFHAC9ALpEA3HvILUi8JYFL+P/7F/7c0P9/IUFRhCyCf/B4DF/ykf4nBwjsDwLBrUsF/ycC4S10Ao+P7ykY/5PPJLCtYxDw6UQEwpcMAr/FTYBAcIYAScRxEOSoBcAJe4AP5J8ISEjAEXQSPxmK+0oeHx+vB4Fr/R3whfsIUiU9wRlFKrwKQyI4IgKOIpPQ/iIRidD3U/6Q6EVC+gPw6mA3RVfkFfAR4JbwtujLbB/t4SkHoQm4aODTsQVnsBJXTuEveYYPww7sKfBn+AUSX0ILGN5aYMvyVgKxN9VtrvQkQN5HfbNCpYfLEMqjCPTB4SWQw5g/C8CbmhzN39ifnLglOLlA00Ax9P6fxf/x8fRn+IrUMnQC4k8fCXqiD6Y/q5F/V6Y//w1QgxRQ/uyV+L9/fPzR+/d+PRcc/B3lzgMJAEk4IP8uAnD8HQ+BUJN2On+p/fS9f8vjPYJDQJSehn940/+4psFfa+iBtyfQe5sCVMtX8DYEyKEPHuDPZ/AU37ifZicN3AfgLsAtAZ6v8LGEtgUYuFeQ2gmK1xBxobo6AiQtIEHgTSrgQUA8AZ6mEQEgYcUAD7MkaSCWxID2UZtHLiIaRQAnCIwCcQTugsMTnJ5ITZPawvBnhvuwPgL5AC8GATJu4N99hcbgAUgggoMQPFhlAbgKkLWAxOPjGQdL1EeGnY0IBiQcwosTRDqh7kE7EPLhnAOyjYHw8O4IDuI2hOsfCA5I3VOAHeAbOAl8D5/p3/FV+EMOPx+53yBYnAO+2OP/2AGeAfV4+pH+PqLNByzOAVFj2WEIpcILcXgWfuCAeH+/2OnxKwTKiCyH68LjCxBX37/6UK8DOBiNUPhBRaAJ2lSHo5FQVH7RZsE9xg0vYSj4ixc78oHdOYGAeivia2Rrh14+Dt5VAY4AQkwXvjN9hRD+VuQRmhAH5yWkQBhBBbhVxADBXQTsgfvQC1qIdRxAoAh4BSAdg0YrMHTMCa8gIJwj4EOwYxSQ9YCUA4RGkEqdEGydRt7uHq72d97gUxNpJ96kHL1ZQpbjNiUTACIlIOkBKQ/7m2vCIN0HMkw21dEB2Rxpihm0h4r/wScA8ZThuyNICnydCOAXm+MxaDdMO67TXrCeAhBKh4dDib+DoAcGj2kSuooLqRKQREAAR4iUgSxCMnCCwBgiTLYLEBugNvjjnYgjcEA+Ow0n998BfCREvo8AWQdP4f7jex6J8dwKYA9GAiA41MNLkAA3ybAWngEJIsGlqZGZNQD5Y62dgHccXp7hwUA65wQCUQT8FFnekDaAgA4vT3AWIGxwCglYP7b5UbJCIaK+AP9Ps4bEqAELuSG8sj9LX7xDpkYCkfmG8JA5/kdIuTtlw++GHN6zAw/8CQ4Xhf8uAv2X7PILNk8X/2f5wOH2Jbw0OuIdYP0yrxg+hXivxEF8ET0H5PkJNLfpuws2K4cYwnV2VBb+mhyQvp4QjEPKbEygT2AWnh3gGSBrPSSdBMOnkI7eQbgncUwU8l9usoe6Rp9Emv4P6ZL3x37Eb/rEAfX3H0x0JfqVjcg+CQJJR+HFUoJvFF4YC5+8gInhe6GR8CLM4Xb1+CkLZgNZDteZK3DLyoABJKUj6+rv/+Aa+I2hiokxgJYHuKYM+lIkWAgvrT9cU9zwMnrlbpyfnAjc8BKIgk8KL12g2PGY1mZ3mfsDPItJMeCzwHIShINHXwAhhK5CxK4kBmMM4XflU0N4CYDg3RegCCAjuOEhj9AB+cy1uAIMohCWEIeC5af5IsLR/KQ4OZkY0w2mEBLAcTwJ3QgQ4To6A7BsfvavLg3e22DlNEinF0AgDUrBu3dfIJwDAcP8JYbBZ2QL9fRjX0s7A28CYXqGwa8fPIogpKPLjMtBc8AdPBPxANoCgi4Qc/BXpwbMwTPjL33HvIR8DDwriUeSytifzZuDOO6Oo/YJgiYwTTXGgVm457BVWFFwiHceTGfLftU1FCcKauiWaydziIgm0DdmFh9+/Lq8vXt4fLi7/HP+DY42iK4Jpw358AfNkU03MZBQOenUYzUe3+r6xQACRCDiGvLCVrUgFBG11UzNcl8A0gP5HFQdaqZKqPgCacq7qddpwELpgRKPfYiBMROigt5OAFBkAhHgGw9tIDrgTgHHSV9KOYEoAdQlwFNY4LVr4iyw+iR4CWPzjgk3nzHafs9jaYto0SDrDKJZ7pak36c7RQL2d0DkTLJhKNLut6vdAOr4+KM4GLqFK/GPQPRM1BVF2r22NZ2NueonMk2MV6DboX2oJuDEQDSDN9Q0gYCKP9BBDJYnHBgIZtQtg8ZgikwhK9wClEc2HMRyEGMbCKvQ7x/q8YlwW/jRKUwbhFZAESHZr/p2o8ZduIW7Bp6Si4EqgtXjmYBER7FkV6HWtTvU66chm2rpo2a+3xMwk/eIrwfKCD/xCDwAdwZO/buVT7qgiwtAGwWUDcD7anvgTyCgAh6gd/l7yt+BPsf1jFx6dCao7melLXk10YdQNjRNdcra0QifpDWDJOL1EZktF6CO0OuK3TrBaBsT0hvawCCHz9TC4wkEiWhfwfHxV4mZgDpCLyUPvSyCeIQelv+q1StyGKC04rGHI2agjtCmJXwDCBEBL0beDj19D7pCUll7lPcsoRn6wE/QF3hxgIeAbI0nrO4lOH8nOsuCQK+GbA7qb1jEbC+GLwd1hB7IqX4eQTS2qyYoGJYIMiRiAuqIbmcKoYYyRpsTXPHkUVSvdo1CHeHV+7yLCY548iipV9aP6vSDzYMnAv5Cu3lRAHEyquS9jkbxSYc3WHbz0E1OAMqIpMfLzbx+tW8q/Vpqhxr6coevJzEgskbyGVZ8INpGVpI+Z+OZAxQRmPPQ8yhDu1/BBPVQw4j2eCplaPrGaVcPJQyUB+DANAzvmtXrGRc90IYTo6xdid9AlsoHTtP+VWE29skmLTgyQ/VHBDmp+vcV6qNBdjr9DGcBAerVD6vtOVAfjbDzyW94CKMTafdYYe2Asw8iFqwprnhupaUGjBPP8kFhQrKRDiEXIN4OaZxFAslcauMUi0Myt1dabEhewOQJzYFkcnVsgj07RFE9kWyQTqsW1+GAsvzBtEzIpnSL712h7L8ONQKq4Taf0K5JeUdaBpgvdW9B9jgk+MXdIZld7vnhrnU/nOdpFqYtayFwCWU3etQunlrk5bCNyiWMEoipmQUXVRvfwmr2CqLBm5q11P3Fl3Az3mbV4nB3gVyuZ+vN9u7eweHq6GB/b+ft6MG05djadbJgf9JG/Ra2xpbw99f3Hl5VLuLPaWY8ttQkzDgLv4PMCBilZpNLJf2upib0askMKjeMGMzYudDR/to1rdsGEmZsGwFz2sLi5o1KWmysCNPg6vly/uf6NljBd9eXf86KRse0zs8t7x/OTdv7Nh7LKKYUQWfn2VnR7L90dtAgzmrsF1+zd+USsjFtGWBu2qndkGpu3mlpBa3K3jTgNr5AfQEwCl3zaD//ArUDjdyqnDTOTffMVBbALO1Tt3GkW2aqWqBsi1zTPGdM+/g6K/NzhvfD4TowtmU03aTavlUsAfF0jBgBkOoob86rIimBRWs46V9nZPtAUgCgySIZuywzsZVON0BXTlLsZhU6jV7AKDQ/8AeLaU+bQCf744xfdFI1zn/oi4n7mUVK3UBU/s3WB35C8Zz8FBCvYNifUalvbeYvujVrf2IdMQvQORCbNwhSR38PgoDzgyk4VStkjV9U7loq/AW0KrKtMkxkiUJrR5T4UsZffX5//HVYGLU2CwbMN4DYmaTyR4mHuMGwLUEWxOMdG4pk1ZiJ+n/oFaLEuzU+es+0FcjVHpAgEbr2RaafNuo/QTgj3U0zsosNoTTQwEAzAycGohlZGRvZyma8f71ZURV+XeftU0kBxFpPvFOLgQ4GugNwYCCYMWHzHEIqdN/bz/9oC2u5xJuvH1qIvuXXE2YQy/B3xBQYFo87dNcH7frdVxf7KsrJx/yfXjhy63zFaVsDBFbo5RZRrycMIZSD+BrJ3762/EU9PhBuwZuo3uh/oYmQso8PRG7f3U+ocArEolDTQFz29aAOIj3phRDNIB6F7nhIvWrvk107C2yaQkwa6CJIPR6J2L6cvV8qcJLv04cugqoeHgkICNOqWk66T1+1PNTt4JGAAJO2M3yfBHGlbbvPV//+9jvrIBBLBBAjiDNfNTo667PuVVfhbpdKt2EI6vCJiIN3m5kFaCOimRxt4yHgQNSCSKEc9j+K2YMPTFxs4ShAGxEVfFXy8q2KcQNGBYPP1N+ccuHirKKHnrjowJGBNsLLeoRS8F0eRC8Q/oqhS4WL/oeASMSWmDZ9o82SeCDgHTCMdwVJSIM6OOAJiISGXMAZ1AW2bfUI40BWFOd8Z+mGjjVuH9VXA6rvVbO+O1PUh6QE6yO8476CZe8rj0MiJtRsAy5xEeAdQBCHkJLQIoYi15tAaTMh7ydiaP7UaO/AVD9yLiLEFP7SSE4+025UPIGbfAgy9L2q3Tky1Vt9Dd8CQ3wMcbNAEJRXHt4Gl3MInHymsp+NAjhmBuoCK6V+GNRbqdf1XioVVSZ6ooMPrIz9QN5fwSMAfUR13iv13csZBrqS8/hAGEYKfAJQF7BfvqM+23yPcUw3yg6PLKF38A+IbEAVvcMW9Zat//1iqPF2QDDMOShr0y75lqXhqNeEgHgy6K+N0s3Onq3eGDrPVS8RE2qS0Wn1jGiWU68med5q9crMzpM/U70yuaCNeKnHl3rFKCu8M9VLrAy0EdHuAPPut4556rW5BW1EPLiHv4CAi6AvM4/VO2UvgKALMFS6gCr4NLuHRwICHQg8myjt2taihV08EulBUKvna+Z9bGbHBT9eM4XEwFhpG+VjojwbYuoZTYhE/Pt7il3orfy8CtUlRU9ukXr99hdYtxsDmghZ08cHom0ZAWMtfKpDv3vZPjv5WBC6WnyqQ8/qs/Yo85tW6qeohx6im1fERwZSVUxQr1cUu1lV/fZblu8mqIcWBtonJ79dvZ7VGxYU4MA0LCO1q9dzmsO28Wg/PiQraFYfLaZBNwEXRu0OwtV8Bml3VJTtgQYGE8pMtF8EsgHEbZCrx4MBIksWsqFZgBsz7NdAeINJ6hE/E+9ejzZkQnpp9dEqNvR2wFWA/LLqo0006db9aF9k9/oR3iD1uhlXj7gFaB2Au4DSj/AGqRf9jIOHxBWdGsm37zWuoP+ESQFSmyYjWr+2ti/EuyMRainiPYzm+QX4CVO3qdnEe7fsnVPxXjV3SW0C2sQJQF9K/Ppn7xbrSbS7R0fgD5bSn2j3T+vEpX+h9x91c4U9U4Fko+QS5S8udW7GC+nxC8QxnXTH6siZIUj1zNy6le4dHz20AbmeOQUwKXQjexUFSA4grnbUuoFQdVgBsgON5zBBlvTafdqQVkwoAfkm5eqDGpDXNO7bzN5702El60RIwxcwlNeUugHz+FXdNYsP+WsPNJ5FdQ4DjR4RsBIe7IvmE4pJ+z/gv4NrM92BSbf5xv1vxI90Fub23FMdmHhMsOIo2Cfv3PFA+4vvKbyAWiYmXbBvda5n9h3OFTngMuO9D0z9Aqtp585zpnyBRVLeYdxHUGT5y6zrX8FqTeeha44HHq3j7HnPS+9OBGK14In7Am920h5xtb+9eG4vytarN9u7h5YhoTja39t5vVR9fXq23njH5cc42F34IPcGeb0zls2V7O/8l4rC1vbEvC6xv9ambBFe7y6T2w6Hz7UQbL1eQ35b7D+zF7C1s4Ax3MLBLMt5ObbWW9J9Djd6uYzB1hK3Mszg6VrBTVXyMjNv9JjE20UK+/igvIbDjTaBtbf9xHz6cfbrujwpdvnn/EdhbsRnU/m/1XrX2Zez6/ZD1Ne/yr+7k7OB+r/dUNw/fLuce3T87lfxApmY9Rb/rdKANuLD+cyFj4hL9/qalLUNql9VWjLfqi+DaSJdhXJY8vfXeuqa929LZnhOVSU4XHpio+Zqry8L34/gkN7bYrDoTFqFHbfmLI+pqAFLTYSMz13+b8H7QCq5HasAi+T+q7G6/q1xNXExxvJ/9l16Y0n/sJl67jFS/2e1/GO/PGlfKrdRRor/dLO3XNmfONMHinbwxKpfzvZPT1XTLezlcTByhZdJMdu/PH15j9HXlqQ0Z34x259d0on4yq6YtswvZfuzKvCaQtPfkvkFi+7ZNHMWhaavdrRfKvIbOBo0B3tXElO3Je2lb9fU/+LvVO5v/l5c/Pz5/fT04nd+KUcF9qWtRM3FoYV9EOss8VenzuUxX0+Nc2sF/Mwf36vij13Xlu33P80j4RHGTzi6+Jk/MtTz076mbL+qvi3oo/ETrjYPrslbbPbctH+Yku33V9/jPP15Ax9w33g51sfaGuDO+RXW+Ny0+9dLuXhZOpy/uhkv7TmV5d+1+NzUu6ZN3e5XxT3OwdlwMz4p6YR/L6Ym3fLf45g72QXJHc3VvZh04mbabXCgqg/MN58DM/VuH9c6Ez05T6uhXxgdx2v2jB7P/QGC1rTPPgxfQ03L7zX6xkkzbzGmNe3+D9AtSvY7lgZeyc8sXa+hb027c3Ps8tT80KKX+qS7N3+DINDc1i1x1V4dc1IfVfstZxmuuY9b7Ka/CmosHqe/j6q9U+jbfnSVwRfbBCdQWcSZ4VDnjpxzLR/a52yMe5fWR5W15zT5w2Kms9eissLfX/29+Pn988f3BL7XRqjKeqfa9wv5znGW8Wvh771B+IZIxkk25m8vDlnvdPHlQn//e6O5bFI3yLW3fKGzd7q5YsZfbKo7LxJdSOXitPjS3Tlztf4IvnUYvlZOxt+A3eZJrbf7eDfjZ97UvA7o5soCdtZzX++Uei/jk1t/c2zb4yY3/U4u1OAsqUdmJKUpr6K9Z9d6GtvaUxjOEfZ/43XdNbyioe5J3ljpy9m8SAo/vGBc/N9hL2SSoWO39fbqRM3lcQWrcxjx2e30MBr2IyncGez88og3n3vodvJmP1c1VC8kvkt9PxnRFeTvcOgNxKo3mOMEcwydLWfyyrTqSz/2UeRrn9Fc87u0R7NdcpOh/3q/9lcd5pdlDzg9v72It+1UebOtn9PD4atztuEbJs2XNFmllGHurtjk2va+3d7vOAM6q8rPmp+CHc5xSOHMii+Xh1LKEEep3Dt5b1f6PWdQY41pSpkyDqdYkia9cjbFy4WjOBki1aV8Tbo52rEnsvejH94YsPZTIvZpyGy7DAekaKajX+mqSgMGzNiPjCms2T27xTt07DvDxJnc3AVOJL1dtkq5j+/7lgtMC6W+swzGFgXMrEeyYlbmBSnmLTm1Vd7tpe6HegOZoQDDQO3TXhOJh2Xr2jZefeJrJ2mc7x2PhoY1p39/r9DzPd4PBboqEof4+l/BTPzKvprGtOwrx+/G974ffhmkJ1tyu9HxW5FcVba4RuLtOn/kWLdWgze6AifI966pJJ/7bunmNHmz9ZHkdAVJYbf2B85o3urqKsv9nO/dMyMSa4Bjb9Lbc4wc80rgsnXR8dSJt6q8beHtOra9vRuhyr594sSbEzv27P2289v0zpWANYtRT5v49LJ1wZ7IemPfhOYuUFak/kkTbw/pnW0aL7z5S2+Vbnw64ykT72xZsQ+k0HZke0eGfxXmWOb/viKK485xJkVi/JCaYJd6Wqh2Fur8hflnOH3LuHPYTqnniXt7XFfcfTYzX9eAMSHaY+/Kk9NHzk6k8p4MYyr6CeEflPJwMh6r1PaodvwC3GewWheIpv8t7Izv9ic4G/Dq9tb/rdg2vC4+n1as0zr7kPt9OVOz/j+B3dQPxy2dWj/t3t1nhr1ao/fgOvuR1nioJBof12ysmohT6PU5W2/r6foOUm0o8XfOZTTR5mtnjX591X5DiXfOnCRHbJ2CP2EzWh2bSbxz6CA9XO7dsrzczw3EbCTx3oGLbN+1t9t+wiGLGjaReO+IpXGfjHfx0Xo6vA0k3ku7ebLWqfaL5v1997NwkWX8Ho4V9lo9Tgf/7si+ScZLvf0zG/jiLZyOTE/QolbdLGmMMax58M7VOml3917b/T0UtzCWeCr+yyTe698Lt3C7F+tb8/hQ3MJY4mkGbpHEu4cqSzeQ+6nPt2pAcQtjiacF1iUS72y3DWk3DhcN+KnPzlRCcQtjiaeVpvmJn36U2K/36SoOFLcwmvjQ3M9OvH93kNfWKfw77+LMx6/ztfB3LPG/Hx9vINuCSnzh+oCqmzPcE7WNv+r5FBSujKq8J9BewRJaj5ptlFuvgwsUzk/H+M1eKPubvPutiTvnOA3RdFeOX/HXOMydxYN7Zj7QeEtSqeivbZw7nYfCJTnvVtVFvqeU+c/skqRirrdmu1DM/GdU90duhWvPdqGY+c+k5b8utPCBGb/o4x6qB+u/NahMsaoHjkbs2RG849U9T2j3/Cpn+pSGLsW9TqLjaWr/dbmmB9Rh4RmMX2v+acMXhrk/zzew3KXvNbe6t5+1n8bDWGkndqe3cwaF0c7A2fqWt8DdWUXKa8cwDZS7/Z4fa3sB11UJf7eqvfevjdo73t/9WNwCuC7acIoFWniP+tv9wxtYphF8uP5SleHMwbx+fZTq7Gc+nU0vBA/XpR8+zVljpiuKV+La/DhveAm3v77VZzZYbfC3ChuKf8KnH2fnfy6vr+/uYBo/3N3eXl/++XX2raF8J6y7uKc0/6LL2th0ysGE8r8wmyztOW+a2r9lWS1jvc/iSX66bLX7NIXdZHuDJWC185Rl3WETL+BpK/kY2/YO9gU42H5GJb3A62WbgdX+q+ec3yZbb+f+fuVq/23LUstz5PX23kHTW1gd7O389/J6nJdv3m7v7OztHRwcHlH7uFodHR7s7+/t7mxvv95sgl+8+D/soODcL6rJngAAAABJRU5ErkJggg==;rounded=1;shadow=1;glass=1;sketch=0;gradientColor=none;" parent="L6_xuCTIjq3hUXFmm_F4-1" vertex="1">
          <mxGeometry y="102.25554886441844" width="51.37074186006729" height="51.37074186006729" as="geometry" />
        </mxCell>
        <mxCell id="GsIWdPKWRebKrd8d-r1N-8" value="" style="shape=image;verticalLabelPosition=bottom;verticalAlign=top;imageAspect=0;aspect=fixed;image=data:image/png,iVBORw0KGgoAAAANSUhEUgAAAPwAAAD8CAMAAAETcgnDAAAAAXNSR0IArs4c6QAAAARnQU1BAACxjwv8YQUAAACTUExURQAAACAQECAYGCUVFSQYFCMWFiMYFSIXFCIYFCQXFSMYFSMXFCMYFSIXFSMYFSMXFQQAABQQECMYFSMgIDEmJDMwMD41MkNAQExDQVJQUFpSUGJgYGhgXnJwcHZvbYGAgIN9e5GLipGPj5+amaGfn62op7Gvr7q3tsC/v8jFxdDPz9bU0+Df3+Pi4u/v7/Hx8P///4t5IxcAAAAQdFJOUwAQIDBAUGBwgI+fr7/P3+8jGoKKAAAACXBIWXMAAA7DAAAOwwHHb6hkAAAaaElEQVR4XtWdh3rkrA6GN9vSM8n2elK2pG3K/V/dQdJnW4CEwfZM8r/Ps1kPCDSYJuq8iHm1f7SNx5zX7wbgpDmEVwece8T19pGQ55fwEcjlG/sKLAI/gj7CqyOSCM8f4D4QHI9K/iwh/vT94UYcB+Spk+j9T8iL/I+Pf9JnCLx59+4H+9+Ln8AuItFHAC9ALpEA3HvILUi8JYFL+P/7F/7c0P9/IUFRhCyCf/B4DF/ykf4nBwjsDwLBrUsF/ycC4S10Ao+P7ykY/5PPJLCtYxDw6UQEwpcMAr/FTYBAcIYAScRxEOSoBcAJe4AP5J8ISEjAEXQSPxmK+0oeHx+vB4Fr/R3whfsIUiU9wRlFKrwKQyI4IgKOIpPQ/iIRidD3U/6Q6EVC+gPw6mA3RVfkFfAR4JbwtujLbB/t4SkHoQm4aODTsQVnsBJXTuEveYYPww7sKfBn+AUSX0ILGN5aYMvyVgKxN9VtrvQkQN5HfbNCpYfLEMqjCPTB4SWQw5g/C8CbmhzN39ifnLglOLlA00Ax9P6fxf/x8fRn+IrUMnQC4k8fCXqiD6Y/q5F/V6Y//w1QgxRQ/uyV+L9/fPzR+/d+PRcc/B3lzgMJAEk4IP8uAnD8HQ+BUJN2On+p/fS9f8vjPYJDQJSehn940/+4psFfa+iBtyfQe5sCVMtX8DYEyKEPHuDPZ/AU37ifZicN3AfgLsAtAZ6v8LGEtgUYuFeQ2gmK1xBxobo6AiQtIEHgTSrgQUA8AZ6mEQEgYcUAD7MkaSCWxID2UZtHLiIaRQAnCIwCcQTugsMTnJ5ITZPawvBnhvuwPgL5AC8GATJu4N99hcbgAUgggoMQPFhlAbgKkLWAxOPjGQdL1EeGnY0IBiQcwosTRDqh7kE7EPLhnAOyjYHw8O4IDuI2hOsfCA5I3VOAHeAbOAl8D5/p3/FV+EMOPx+53yBYnAO+2OP/2AGeAfV4+pH+PqLNByzOAVFj2WEIpcILcXgWfuCAeH+/2OnxKwTKiCyH68LjCxBX37/6UK8DOBiNUPhBRaAJ2lSHo5FQVH7RZsE9xg0vYSj4ixc78oHdOYGAeivia2Rrh14+Dt5VAY4AQkwXvjN9hRD+VuQRmhAH5yWkQBhBBbhVxADBXQTsgfvQC1qIdRxAoAh4BSAdg0YrMHTMCa8gIJwj4EOwYxSQ9YCUA4RGkEqdEGydRt7uHq72d97gUxNpJ96kHL1ZQpbjNiUTACIlIOkBKQ/7m2vCIN0HMkw21dEB2Rxpihm0h4r/wScA8ZThuyNICnydCOAXm+MxaDdMO67TXrCeAhBKh4dDib+DoAcGj2kSuooLqRKQREAAR4iUgSxCMnCCwBgiTLYLEBugNvjjnYgjcEA+Ow0n998BfCREvo8AWQdP4f7jex6J8dwKYA9GAiA41MNLkAA3ybAWngEJIsGlqZGZNQD5Y62dgHccXp7hwUA65wQCUQT8FFnekDaAgA4vT3AWIGxwCglYP7b5UbJCIaK+AP9Ps4bEqAELuSG8sj9LX7xDpkYCkfmG8JA5/kdIuTtlw++GHN6zAw/8CQ4Xhf8uAv2X7PILNk8X/2f5wOH2Jbw0OuIdYP0yrxg+hXivxEF8ET0H5PkJNLfpuws2K4cYwnV2VBb+mhyQvp4QjEPKbEygT2AWnh3gGSBrPSSdBMOnkI7eQbgncUwU8l9usoe6Rp9Emv4P6ZL3x37Eb/rEAfX3H0x0JfqVjcg+CQJJR+HFUoJvFF4YC5+8gInhe6GR8CLM4Xb1+CkLZgNZDteZK3DLyoABJKUj6+rv/+Aa+I2hiokxgJYHuKYM+lIkWAgvrT9cU9zwMnrlbpyfnAjc8BKIgk8KL12g2PGY1mZ3mfsDPItJMeCzwHIShINHXwAhhK5CxK4kBmMM4XflU0N4CYDg3RegCCAjuOEhj9AB+cy1uAIMohCWEIeC5af5IsLR/KQ4OZkY0w2mEBLAcTwJ3QgQ4To6A7BsfvavLg3e22DlNEinF0AgDUrBu3dfIJwDAcP8JYbBZ2QL9fRjX0s7A28CYXqGwa8fPIogpKPLjMtBc8AdPBPxANoCgi4Qc/BXpwbMwTPjL33HvIR8DDwriUeSytifzZuDOO6Oo/YJgiYwTTXGgVm457BVWFFwiHceTGfLftU1FCcKauiWaydziIgm0DdmFh9+/Lq8vXt4fLi7/HP+DY42iK4Jpw358AfNkU03MZBQOenUYzUe3+r6xQACRCDiGvLCVrUgFBG11UzNcl8A0gP5HFQdaqZKqPgCacq7qddpwELpgRKPfYiBMROigt5OAFBkAhHgGw9tIDrgTgHHSV9KOYEoAdQlwFNY4LVr4iyw+iR4CWPzjgk3nzHafs9jaYto0SDrDKJZ7pak36c7RQL2d0DkTLJhKNLut6vdAOr4+KM4GLqFK/GPQPRM1BVF2r22NZ2NueonMk2MV6DboX2oJuDEQDSDN9Q0gYCKP9BBDJYnHBgIZtQtg8ZgikwhK9wClEc2HMRyEGMbCKvQ7x/q8YlwW/jRKUwbhFZAESHZr/p2o8ZduIW7Bp6Si4EqgtXjmYBER7FkV6HWtTvU66chm2rpo2a+3xMwk/eIrwfKCD/xCDwAdwZO/buVT7qgiwtAGwWUDcD7anvgTyCgAh6gd/l7yt+BPsf1jFx6dCao7melLXk10YdQNjRNdcra0QifpDWDJOL1EZktF6CO0OuK3TrBaBsT0hvawCCHz9TC4wkEiWhfwfHxV4mZgDpCLyUPvSyCeIQelv+q1StyGKC04rGHI2agjtCmJXwDCBEBL0beDj19D7pCUll7lPcsoRn6wE/QF3hxgIeAbI0nrO4lOH8nOsuCQK+GbA7qb1jEbC+GLwd1hB7IqX4eQTS2qyYoGJYIMiRiAuqIbmcKoYYyRpsTXPHkUVSvdo1CHeHV+7yLCY548iipV9aP6vSDzYMnAv5Cu3lRAHEyquS9jkbxSYc3WHbz0E1OAMqIpMfLzbx+tW8q/Vpqhxr6coevJzEgskbyGVZ8INpGVpI+Z+OZAxQRmPPQ8yhDu1/BBPVQw4j2eCplaPrGaVcPJQyUB+DANAzvmtXrGRc90IYTo6xdid9AlsoHTtP+VWE29skmLTgyQ/VHBDmp+vcV6qNBdjr9DGcBAerVD6vtOVAfjbDzyW94CKMTafdYYe2Asw8iFqwprnhupaUGjBPP8kFhQrKRDiEXIN4OaZxFAslcauMUi0Myt1dabEhewOQJzYFkcnVsgj07RFE9kWyQTqsW1+GAsvzBtEzIpnSL712h7L8ONQKq4Taf0K5JeUdaBpgvdW9B9jgk+MXdIZld7vnhrnU/nOdpFqYtayFwCWU3etQunlrk5bCNyiWMEoipmQUXVRvfwmr2CqLBm5q11P3Fl3Az3mbV4nB3gVyuZ+vN9u7eweHq6GB/b+ft6MG05djadbJgf9JG/Ra2xpbw99f3Hl5VLuLPaWY8ttQkzDgLv4PMCBilZpNLJf2upib0askMKjeMGMzYudDR/to1rdsGEmZsGwFz2sLi5o1KWmysCNPg6vly/uf6NljBd9eXf86KRse0zs8t7x/OTdv7Nh7LKKYUQWfn2VnR7L90dtAgzmrsF1+zd+USsjFtGWBu2qndkGpu3mlpBa3K3jTgNr5AfQEwCl3zaD//ArUDjdyqnDTOTffMVBbALO1Tt3GkW2aqWqBsi1zTPGdM+/g6K/NzhvfD4TowtmU03aTavlUsAfF0jBgBkOoob86rIimBRWs46V9nZPtAUgCgySIZuywzsZVON0BXTlLsZhU6jV7AKDQ/8AeLaU+bQCf744xfdFI1zn/oi4n7mUVK3UBU/s3WB35C8Zz8FBCvYNifUalvbeYvujVrf2IdMQvQORCbNwhSR38PgoDzgyk4VStkjV9U7loq/AW0KrKtMkxkiUJrR5T4UsZffX5//HVYGLU2CwbMN4DYmaTyR4mHuMGwLUEWxOMdG4pk1ZiJ+n/oFaLEuzU+es+0FcjVHpAgEbr2RaafNuo/QTgj3U0zsosNoTTQwEAzAycGohlZGRvZyma8f71ZURV+XeftU0kBxFpPvFOLgQ4GugNwYCCYMWHzHEIqdN/bz/9oC2u5xJuvH1qIvuXXE2YQy/B3xBQYFo87dNcH7frdVxf7KsrJx/yfXjhy63zFaVsDBFbo5RZRrycMIZSD+BrJ3762/EU9PhBuwZuo3uh/oYmQso8PRG7f3U+ocArEolDTQFz29aAOIj3phRDNIB6F7nhIvWrvk107C2yaQkwa6CJIPR6J2L6cvV8qcJLv04cugqoeHgkICNOqWk66T1+1PNTt4JGAAJO2M3yfBHGlbbvPV//+9jvrIBBLBBAjiDNfNTo667PuVVfhbpdKt2EI6vCJiIN3m5kFaCOimRxt4yHgQNSCSKEc9j+K2YMPTFxs4ShAGxEVfFXy8q2KcQNGBYPP1N+ccuHirKKHnrjowJGBNsLLeoRS8F0eRC8Q/oqhS4WL/oeASMSWmDZ9o82SeCDgHTCMdwVJSIM6OOAJiISGXMAZ1AW2bfUI40BWFOd8Z+mGjjVuH9VXA6rvVbO+O1PUh6QE6yO8476CZe8rj0MiJtRsAy5xEeAdQBCHkJLQIoYi15tAaTMh7ydiaP7UaO/AVD9yLiLEFP7SSE4+025UPIGbfAgy9L2q3Tky1Vt9Dd8CQ3wMcbNAEJRXHt4Gl3MInHymsp+NAjhmBuoCK6V+GNRbqdf1XioVVSZ6ooMPrIz9QN5fwSMAfUR13iv13csZBrqS8/hAGEYKfAJQF7BfvqM+23yPcUw3yg6PLKF38A+IbEAVvcMW9Zat//1iqPF2QDDMOShr0y75lqXhqNeEgHgy6K+N0s3Onq3eGDrPVS8RE2qS0Wn1jGiWU68med5q9crMzpM/U70yuaCNeKnHl3rFKCu8M9VLrAy0EdHuAPPut4556rW5BW1EPLiHv4CAi6AvM4/VO2UvgKALMFS6gCr4NLuHRwICHQg8myjt2taihV08EulBUKvna+Z9bGbHBT9eM4XEwFhpG+VjojwbYuoZTYhE/Pt7il3orfy8CtUlRU9ukXr99hdYtxsDmghZ08cHom0ZAWMtfKpDv3vZPjv5WBC6WnyqQ8/qs/Yo85tW6qeohx6im1fERwZSVUxQr1cUu1lV/fZblu8mqIcWBtonJ79dvZ7VGxYU4MA0LCO1q9dzmsO28Wg/PiQraFYfLaZBNwEXRu0OwtV8Bml3VJTtgQYGE8pMtF8EsgHEbZCrx4MBIksWsqFZgBsz7NdAeINJ6hE/E+9ejzZkQnpp9dEqNvR2wFWA/LLqo0006db9aF9k9/oR3iD1uhlXj7gFaB2Au4DSj/AGqRf9jIOHxBWdGsm37zWuoP+ESQFSmyYjWr+2ti/EuyMRainiPYzm+QX4CVO3qdnEe7fsnVPxXjV3SW0C2sQJQF9K/Ppn7xbrSbS7R0fgD5bSn2j3T+vEpX+h9x91c4U9U4Fko+QS5S8udW7GC+nxC8QxnXTH6siZIUj1zNy6le4dHz20AbmeOQUwKXQjexUFSA4grnbUuoFQdVgBsgON5zBBlvTafdqQVkwoAfkm5eqDGpDXNO7bzN5702El60RIwxcwlNeUugHz+FXdNYsP+WsPNJ5FdQ4DjR4RsBIe7IvmE4pJ+z/gv4NrM92BSbf5xv1vxI90Fub23FMdmHhMsOIo2Cfv3PFA+4vvKbyAWiYmXbBvda5n9h3OFTngMuO9D0z9Aqtp585zpnyBRVLeYdxHUGT5y6zrX8FqTeeha44HHq3j7HnPS+9OBGK14In7Am920h5xtb+9eG4vytarN9u7h5YhoTja39t5vVR9fXq23njH5cc42F34IPcGeb0zls2V7O/8l4rC1vbEvC6xv9ambBFe7y6T2w6Hz7UQbL1eQ35b7D+zF7C1s4Ax3MLBLMt5ObbWW9J9Djd6uYzB1hK3Mszg6VrBTVXyMjNv9JjE20UK+/igvIbDjTaBtbf9xHz6cfbrujwpdvnn/EdhbsRnU/m/1XrX2Zez6/ZD1Ne/yr+7k7OB+r/dUNw/fLuce3T87lfxApmY9Rb/rdKANuLD+cyFj4hL9/qalLUNql9VWjLfqi+DaSJdhXJY8vfXeuqa929LZnhOVSU4XHpio+Zqry8L34/gkN7bYrDoTFqFHbfmLI+pqAFLTYSMz13+b8H7QCq5HasAi+T+q7G6/q1xNXExxvJ/9l16Y0n/sJl67jFS/2e1/GO/PGlfKrdRRor/dLO3XNmfONMHinbwxKpfzvZPT1XTLezlcTByhZdJMdu/PH15j9HXlqQ0Z34x259d0on4yq6YtswvZfuzKvCaQtPfkvkFi+7ZNHMWhaavdrRfKvIbOBo0B3tXElO3Je2lb9fU/+LvVO5v/l5c/Pz5/fT04nd+KUcF9qWtRM3FoYV9EOss8VenzuUxX0+Nc2sF/Mwf36vij13Xlu33P80j4RHGTzi6+Jk/MtTz076mbL+qvi3oo/ETrjYPrslbbPbctH+Yku33V9/jPP15Ax9w33g51sfaGuDO+RXW+Ny0+9dLuXhZOpy/uhkv7TmV5d+1+NzUu6ZN3e5XxT3OwdlwMz4p6YR/L6Ym3fLf45g72QXJHc3VvZh04mbabXCgqg/MN58DM/VuH9c6Ez05T6uhXxgdx2v2jB7P/QGC1rTPPgxfQ03L7zX6xkkzbzGmNe3+D9AtSvY7lgZeyc8sXa+hb027c3Ps8tT80KKX+qS7N3+DINDc1i1x1V4dc1IfVfstZxmuuY9b7Ka/CmosHqe/j6q9U+jbfnSVwRfbBCdQWcSZ4VDnjpxzLR/a52yMe5fWR5W15zT5w2Kms9eissLfX/29+Pn988f3BL7XRqjKeqfa9wv5znGW8Wvh771B+IZIxkk25m8vDlnvdPHlQn//e6O5bFI3yLW3fKGzd7q5YsZfbKo7LxJdSOXitPjS3Tlztf4IvnUYvlZOxt+A3eZJrbf7eDfjZ97UvA7o5soCdtZzX++Uei/jk1t/c2zb4yY3/U4u1OAsqUdmJKUpr6K9Z9d6GtvaUxjOEfZ/43XdNbyioe5J3ljpy9m8SAo/vGBc/N9hL2SSoWO39fbqRM3lcQWrcxjx2e30MBr2IyncGez88og3n3vodvJmP1c1VC8kvkt9PxnRFeTvcOgNxKo3mOMEcwydLWfyyrTqSz/2UeRrn9Fc87u0R7NdcpOh/3q/9lcd5pdlDzg9v72It+1UebOtn9PD4atztuEbJs2XNFmllGHurtjk2va+3d7vOAM6q8rPmp+CHc5xSOHMii+Xh1LKEEep3Dt5b1f6PWdQY41pSpkyDqdYkia9cjbFy4WjOBki1aV8Tbo52rEnsvejH94YsPZTIvZpyGy7DAekaKajX+mqSgMGzNiPjCms2T27xTt07DvDxJnc3AVOJL1dtkq5j+/7lgtMC6W+swzGFgXMrEeyYlbmBSnmLTm1Vd7tpe6HegOZoQDDQO3TXhOJh2Xr2jZefeJrJ2mc7x2PhoY1p39/r9DzPd4PBboqEof4+l/BTPzKvprGtOwrx+/G974ffhmkJ1tyu9HxW5FcVba4RuLtOn/kWLdWgze6AifI966pJJ/7bunmNHmz9ZHkdAVJYbf2B85o3urqKsv9nO/dMyMSa4Bjb9Lbc4wc80rgsnXR8dSJt6q8beHtOra9vRuhyr594sSbEzv27P2289v0zpWANYtRT5v49LJ1wZ7IemPfhOYuUFak/kkTbw/pnW0aL7z5S2+Vbnw64ykT72xZsQ+k0HZke0eGfxXmWOb/viKK485xJkVi/JCaYJd6Wqh2Fur8hflnOH3LuHPYTqnniXt7XFfcfTYzX9eAMSHaY+/Kk9NHzk6k8p4MYyr6CeEflPJwMh6r1PaodvwC3GewWheIpv8t7Izv9ic4G/Dq9tb/rdg2vC4+n1as0zr7kPt9OVOz/j+B3dQPxy2dWj/t3t1nhr1ao/fgOvuR1nioJBof12ysmohT6PU5W2/r6foOUm0o8XfOZTTR5mtnjX591X5DiXfOnCRHbJ2CP2EzWh2bSbxz6CA9XO7dsrzczw3EbCTx3oGLbN+1t9t+wiGLGjaReO+IpXGfjHfx0Xo6vA0k3ku7ebLWqfaL5v1997NwkWX8Ho4V9lo9Tgf/7si+ScZLvf0zG/jiLZyOTE/QolbdLGmMMax58M7VOml3917b/T0UtzCWeCr+yyTe698Lt3C7F+tb8/hQ3MJY4mkGbpHEu4cqSzeQ+6nPt2pAcQtjiacF1iUS72y3DWk3DhcN+KnPzlRCcQtjiaeVpvmJn36U2K/36SoOFLcwmvjQ3M9OvH93kNfWKfw77+LMx6/ztfB3LPG/Hx9vINuCSnzh+oCqmzPcE7WNv+r5FBSujKq8J9BewRJaj5ptlFuvgwsUzk/H+M1eKPubvPutiTvnOA3RdFeOX/HXOMydxYN7Zj7QeEtSqeivbZw7nYfCJTnvVtVFvqeU+c/skqRirrdmu1DM/GdU90duhWvPdqGY+c+k5b8utPCBGb/o4x6qB+u/NahMsaoHjkbs2RG849U9T2j3/Cpn+pSGLsW9TqLjaWr/dbmmB9Rh4RmMX2v+acMXhrk/zzew3KXvNbe6t5+1n8bDWGkndqe3cwaF0c7A2fqWt8DdWUXKa8cwDZS7/Z4fa3sB11UJf7eqvfevjdo73t/9WNwCuC7acIoFWniP+tv9wxtYphF8uP5SleHMwbx+fZTq7Gc+nU0vBA/XpR8+zVljpiuKV+La/DhveAm3v77VZzZYbfC3ChuKf8KnH2fnfy6vr+/uYBo/3N3eXl/++XX2raF8J6y7uKc0/6LL2th0ysGE8r8wmyztOW+a2r9lWS1jvc/iSX66bLX7NIXdZHuDJWC185Rl3WETL+BpK/kY2/YO9gU42H5GJb3A62WbgdX+q+ec3yZbb+f+fuVq/23LUstz5PX23kHTW1gd7O389/J6nJdv3m7v7OztHRwcHlH7uFodHR7s7+/t7mxvv95sgl+8+D/soODcL6rJngAAAABJRU5ErkJggg==;rounded=1;shadow=1;glass=1;sketch=0;gradientColor=none;" parent="L6_xuCTIjq3hUXFmm_F4-1" vertex="1">
          <mxGeometry x="303.72925813993277" y="50.885548864418446" width="51.37074186006729" height="51.37074186006729" as="geometry" />
        </mxCell>
        <mxCell id="pmPGEmAbYdkGIdwM05D3-4" value="" style="shape=image;verticalLabelPosition=bottom;verticalAlign=top;imageAspect=0;aspect=fixed;image=data:image/png,iVBORw0KGgoAAAANSUhEUgAAAPwAAAD8CAMAAAETcgnDAAAAAXNSR0IArs4c6QAAAARnQU1BAACxjwv8YQUAAACTUExURQAAACAQECAYGCUVFSQYFCMWFiMYFSIXFCIYFCQXFSMYFSMXFCMYFSIXFSMYFSMXFQQAABQQECMYFSMgIDEmJDMwMD41MkNAQExDQVJQUFpSUGJgYGhgXnJwcHZvbYGAgIN9e5GLipGPj5+amaGfn62op7Gvr7q3tsC/v8jFxdDPz9bU0+Df3+Pi4u/v7/Hx8P///4t5IxcAAAAQdFJOUwAQIDBAUGBwgI+fr7/P3+8jGoKKAAAACXBIWXMAAA7DAAAOwwHHb6hkAAAaaElEQVR4XtWdh3rkrA6GN9vSM8n2elK2pG3K/V/dQdJnW4CEwfZM8r/Ps1kPCDSYJuq8iHm1f7SNx5zX7wbgpDmEVwece8T19pGQ55fwEcjlG/sKLAI/gj7CqyOSCM8f4D4QHI9K/iwh/vT94UYcB+Spk+j9T8iL/I+Pf9JnCLx59+4H+9+Ln8AuItFHAC9ALpEA3HvILUi8JYFL+P/7F/7c0P9/IUFRhCyCf/B4DF/ykf4nBwjsDwLBrUsF/ycC4S10Ao+P7ykY/5PPJLCtYxDw6UQEwpcMAr/FTYBAcIYAScRxEOSoBcAJe4AP5J8ISEjAEXQSPxmK+0oeHx+vB4Fr/R3whfsIUiU9wRlFKrwKQyI4IgKOIpPQ/iIRidD3U/6Q6EVC+gPw6mA3RVfkFfAR4JbwtujLbB/t4SkHoQm4aODTsQVnsBJXTuEveYYPww7sKfBn+AUSX0ILGN5aYMvyVgKxN9VtrvQkQN5HfbNCpYfLEMqjCPTB4SWQw5g/C8CbmhzN39ifnLglOLlA00Ax9P6fxf/x8fRn+IrUMnQC4k8fCXqiD6Y/q5F/V6Y//w1QgxRQ/uyV+L9/fPzR+/d+PRcc/B3lzgMJAEk4IP8uAnD8HQ+BUJN2On+p/fS9f8vjPYJDQJSehn940/+4psFfa+iBtyfQe5sCVMtX8DYEyKEPHuDPZ/AU37ifZicN3AfgLsAtAZ6v8LGEtgUYuFeQ2gmK1xBxobo6AiQtIEHgTSrgQUA8AZ6mEQEgYcUAD7MkaSCWxID2UZtHLiIaRQAnCIwCcQTugsMTnJ5ITZPawvBnhvuwPgL5AC8GATJu4N99hcbgAUgggoMQPFhlAbgKkLWAxOPjGQdL1EeGnY0IBiQcwosTRDqh7kE7EPLhnAOyjYHw8O4IDuI2hOsfCA5I3VOAHeAbOAl8D5/p3/FV+EMOPx+53yBYnAO+2OP/2AGeAfV4+pH+PqLNByzOAVFj2WEIpcILcXgWfuCAeH+/2OnxKwTKiCyH68LjCxBX37/6UK8DOBiNUPhBRaAJ2lSHo5FQVH7RZsE9xg0vYSj4ixc78oHdOYGAeivia2Rrh14+Dt5VAY4AQkwXvjN9hRD+VuQRmhAH5yWkQBhBBbhVxADBXQTsgfvQC1qIdRxAoAh4BSAdg0YrMHTMCa8gIJwj4EOwYxSQ9YCUA4RGkEqdEGydRt7uHq72d97gUxNpJ96kHL1ZQpbjNiUTACIlIOkBKQ/7m2vCIN0HMkw21dEB2Rxpihm0h4r/wScA8ZThuyNICnydCOAXm+MxaDdMO67TXrCeAhBKh4dDib+DoAcGj2kSuooLqRKQREAAR4iUgSxCMnCCwBgiTLYLEBugNvjjnYgjcEA+Ow0n998BfCREvo8AWQdP4f7jex6J8dwKYA9GAiA41MNLkAA3ybAWngEJIsGlqZGZNQD5Y62dgHccXp7hwUA65wQCUQT8FFnekDaAgA4vT3AWIGxwCglYP7b5UbJCIaK+AP9Ps4bEqAELuSG8sj9LX7xDpkYCkfmG8JA5/kdIuTtlw++GHN6zAw/8CQ4Xhf8uAv2X7PILNk8X/2f5wOH2Jbw0OuIdYP0yrxg+hXivxEF8ET0H5PkJNLfpuws2K4cYwnV2VBb+mhyQvp4QjEPKbEygT2AWnh3gGSBrPSSdBMOnkI7eQbgncUwU8l9usoe6Rp9Emv4P6ZL3x37Eb/rEAfX3H0x0JfqVjcg+CQJJR+HFUoJvFF4YC5+8gInhe6GR8CLM4Xb1+CkLZgNZDteZK3DLyoABJKUj6+rv/+Aa+I2hiokxgJYHuKYM+lIkWAgvrT9cU9zwMnrlbpyfnAjc8BKIgk8KL12g2PGY1mZ3mfsDPItJMeCzwHIShINHXwAhhK5CxK4kBmMM4XflU0N4CYDg3RegCCAjuOEhj9AB+cy1uAIMohCWEIeC5af5IsLR/KQ4OZkY0w2mEBLAcTwJ3QgQ4To6A7BsfvavLg3e22DlNEinF0AgDUrBu3dfIJwDAcP8JYbBZ2QL9fRjX0s7A28CYXqGwa8fPIogpKPLjMtBc8AdPBPxANoCgi4Qc/BXpwbMwTPjL33HvIR8DDwriUeSytifzZuDOO6Oo/YJgiYwTTXGgVm457BVWFFwiHceTGfLftU1FCcKauiWaydziIgm0DdmFh9+/Lq8vXt4fLi7/HP+DY42iK4Jpw358AfNkU03MZBQOenUYzUe3+r6xQACRCDiGvLCVrUgFBG11UzNcl8A0gP5HFQdaqZKqPgCacq7qddpwELpgRKPfYiBMROigt5OAFBkAhHgGw9tIDrgTgHHSV9KOYEoAdQlwFNY4LVr4iyw+iR4CWPzjgk3nzHafs9jaYto0SDrDKJZ7pak36c7RQL2d0DkTLJhKNLut6vdAOr4+KM4GLqFK/GPQPRM1BVF2r22NZ2NueonMk2MV6DboX2oJuDEQDSDN9Q0gYCKP9BBDJYnHBgIZtQtg8ZgikwhK9wClEc2HMRyEGMbCKvQ7x/q8YlwW/jRKUwbhFZAESHZr/p2o8ZduIW7Bp6Si4EqgtXjmYBER7FkV6HWtTvU66chm2rpo2a+3xMwk/eIrwfKCD/xCDwAdwZO/buVT7qgiwtAGwWUDcD7anvgTyCgAh6gd/l7yt+BPsf1jFx6dCao7melLXk10YdQNjRNdcra0QifpDWDJOL1EZktF6CO0OuK3TrBaBsT0hvawCCHz9TC4wkEiWhfwfHxV4mZgDpCLyUPvSyCeIQelv+q1StyGKC04rGHI2agjtCmJXwDCBEBL0beDj19D7pCUll7lPcsoRn6wE/QF3hxgIeAbI0nrO4lOH8nOsuCQK+GbA7qb1jEbC+GLwd1hB7IqX4eQTS2qyYoGJYIMiRiAuqIbmcKoYYyRpsTXPHkUVSvdo1CHeHV+7yLCY548iipV9aP6vSDzYMnAv5Cu3lRAHEyquS9jkbxSYc3WHbz0E1OAMqIpMfLzbx+tW8q/Vpqhxr6coevJzEgskbyGVZ8INpGVpI+Z+OZAxQRmPPQ8yhDu1/BBPVQw4j2eCplaPrGaVcPJQyUB+DANAzvmtXrGRc90IYTo6xdid9AlsoHTtP+VWE29skmLTgyQ/VHBDmp+vcV6qNBdjr9DGcBAerVD6vtOVAfjbDzyW94CKMTafdYYe2Asw8iFqwprnhupaUGjBPP8kFhQrKRDiEXIN4OaZxFAslcauMUi0Myt1dabEhewOQJzYFkcnVsgj07RFE9kWyQTqsW1+GAsvzBtEzIpnSL712h7L8ONQKq4Taf0K5JeUdaBpgvdW9B9jgk+MXdIZld7vnhrnU/nOdpFqYtayFwCWU3etQunlrk5bCNyiWMEoipmQUXVRvfwmr2CqLBm5q11P3Fl3Az3mbV4nB3gVyuZ+vN9u7eweHq6GB/b+ft6MG05djadbJgf9JG/Ra2xpbw99f3Hl5VLuLPaWY8ttQkzDgLv4PMCBilZpNLJf2upib0askMKjeMGMzYudDR/to1rdsGEmZsGwFz2sLi5o1KWmysCNPg6vly/uf6NljBd9eXf86KRse0zs8t7x/OTdv7Nh7LKKYUQWfn2VnR7L90dtAgzmrsF1+zd+USsjFtGWBu2qndkGpu3mlpBa3K3jTgNr5AfQEwCl3zaD//ArUDjdyqnDTOTffMVBbALO1Tt3GkW2aqWqBsi1zTPGdM+/g6K/NzhvfD4TowtmU03aTavlUsAfF0jBgBkOoob86rIimBRWs46V9nZPtAUgCgySIZuywzsZVON0BXTlLsZhU6jV7AKDQ/8AeLaU+bQCf744xfdFI1zn/oi4n7mUVK3UBU/s3WB35C8Zz8FBCvYNifUalvbeYvujVrf2IdMQvQORCbNwhSR38PgoDzgyk4VStkjV9U7loq/AW0KrKtMkxkiUJrR5T4UsZffX5//HVYGLU2CwbMN4DYmaTyR4mHuMGwLUEWxOMdG4pk1ZiJ+n/oFaLEuzU+es+0FcjVHpAgEbr2RaafNuo/QTgj3U0zsosNoTTQwEAzAycGohlZGRvZyma8f71ZURV+XeftU0kBxFpPvFOLgQ4GugNwYCCYMWHzHEIqdN/bz/9oC2u5xJuvH1qIvuXXE2YQy/B3xBQYFo87dNcH7frdVxf7KsrJx/yfXjhy63zFaVsDBFbo5RZRrycMIZSD+BrJ3762/EU9PhBuwZuo3uh/oYmQso8PRG7f3U+ocArEolDTQFz29aAOIj3phRDNIB6F7nhIvWrvk107C2yaQkwa6CJIPR6J2L6cvV8qcJLv04cugqoeHgkICNOqWk66T1+1PNTt4JGAAJO2M3yfBHGlbbvPV//+9jvrIBBLBBAjiDNfNTo667PuVVfhbpdKt2EI6vCJiIN3m5kFaCOimRxt4yHgQNSCSKEc9j+K2YMPTFxs4ShAGxEVfFXy8q2KcQNGBYPP1N+ccuHirKKHnrjowJGBNsLLeoRS8F0eRC8Q/oqhS4WL/oeASMSWmDZ9o82SeCDgHTCMdwVJSIM6OOAJiISGXMAZ1AW2bfUI40BWFOd8Z+mGjjVuH9VXA6rvVbO+O1PUh6QE6yO8476CZe8rj0MiJtRsAy5xEeAdQBCHkJLQIoYi15tAaTMh7ydiaP7UaO/AVD9yLiLEFP7SSE4+025UPIGbfAgy9L2q3Tky1Vt9Dd8CQ3wMcbNAEJRXHt4Gl3MInHymsp+NAjhmBuoCK6V+GNRbqdf1XioVVSZ6ooMPrIz9QN5fwSMAfUR13iv13csZBrqS8/hAGEYKfAJQF7BfvqM+23yPcUw3yg6PLKF38A+IbEAVvcMW9Zat//1iqPF2QDDMOShr0y75lqXhqNeEgHgy6K+N0s3Onq3eGDrPVS8RE2qS0Wn1jGiWU68med5q9crMzpM/U70yuaCNeKnHl3rFKCu8M9VLrAy0EdHuAPPut4556rW5BW1EPLiHv4CAi6AvM4/VO2UvgKALMFS6gCr4NLuHRwICHQg8myjt2taihV08EulBUKvna+Z9bGbHBT9eM4XEwFhpG+VjojwbYuoZTYhE/Pt7il3orfy8CtUlRU9ukXr99hdYtxsDmghZ08cHom0ZAWMtfKpDv3vZPjv5WBC6WnyqQ8/qs/Yo85tW6qeohx6im1fERwZSVUxQr1cUu1lV/fZblu8mqIcWBtonJ79dvZ7VGxYU4MA0LCO1q9dzmsO28Wg/PiQraFYfLaZBNwEXRu0OwtV8Bml3VJTtgQYGE8pMtF8EsgHEbZCrx4MBIksWsqFZgBsz7NdAeINJ6hE/E+9ejzZkQnpp9dEqNvR2wFWA/LLqo0006db9aF9k9/oR3iD1uhlXj7gFaB2Au4DSj/AGqRf9jIOHxBWdGsm37zWuoP+ESQFSmyYjWr+2ti/EuyMRainiPYzm+QX4CVO3qdnEe7fsnVPxXjV3SW0C2sQJQF9K/Ppn7xbrSbS7R0fgD5bSn2j3T+vEpX+h9x91c4U9U4Fko+QS5S8udW7GC+nxC8QxnXTH6siZIUj1zNy6le4dHz20AbmeOQUwKXQjexUFSA4grnbUuoFQdVgBsgON5zBBlvTafdqQVkwoAfkm5eqDGpDXNO7bzN5702El60RIwxcwlNeUugHz+FXdNYsP+WsPNJ5FdQ4DjR4RsBIe7IvmE4pJ+z/gv4NrM92BSbf5xv1vxI90Fub23FMdmHhMsOIo2Cfv3PFA+4vvKbyAWiYmXbBvda5n9h3OFTngMuO9D0z9Aqtp585zpnyBRVLeYdxHUGT5y6zrX8FqTeeha44HHq3j7HnPS+9OBGK14In7Am920h5xtb+9eG4vytarN9u7h5YhoTja39t5vVR9fXq23njH5cc42F34IPcGeb0zls2V7O/8l4rC1vbEvC6xv9ambBFe7y6T2w6Hz7UQbL1eQ35b7D+zF7C1s4Ax3MLBLMt5ObbWW9J9Djd6uYzB1hK3Mszg6VrBTVXyMjNv9JjE20UK+/igvIbDjTaBtbf9xHz6cfbrujwpdvnn/EdhbsRnU/m/1XrX2Zez6/ZD1Ne/yr+7k7OB+r/dUNw/fLuce3T87lfxApmY9Rb/rdKANuLD+cyFj4hL9/qalLUNql9VWjLfqi+DaSJdhXJY8vfXeuqa929LZnhOVSU4XHpio+Zqry8L34/gkN7bYrDoTFqFHbfmLI+pqAFLTYSMz13+b8H7QCq5HasAi+T+q7G6/q1xNXExxvJ/9l16Y0n/sJl67jFS/2e1/GO/PGlfKrdRRor/dLO3XNmfONMHinbwxKpfzvZPT1XTLezlcTByhZdJMdu/PH15j9HXlqQ0Z34x259d0on4yq6YtswvZfuzKvCaQtPfkvkFi+7ZNHMWhaavdrRfKvIbOBo0B3tXElO3Je2lb9fU/+LvVO5v/l5c/Pz5/fT04nd+KUcF9qWtRM3FoYV9EOss8VenzuUxX0+Nc2sF/Mwf36vij13Xlu33P80j4RHGTzi6+Jk/MtTz076mbL+qvi3oo/ETrjYPrslbbPbctH+Yku33V9/jPP15Ax9w33g51sfaGuDO+RXW+Ny0+9dLuXhZOpy/uhkv7TmV5d+1+NzUu6ZN3e5XxT3OwdlwMz4p6YR/L6Ym3fLf45g72QXJHc3VvZh04mbabXCgqg/MN58DM/VuH9c6Ez05T6uhXxgdx2v2jB7P/QGC1rTPPgxfQ03L7zX6xkkzbzGmNe3+D9AtSvY7lgZeyc8sXa+hb027c3Ps8tT80KKX+qS7N3+DINDc1i1x1V4dc1IfVfstZxmuuY9b7Ka/CmosHqe/j6q9U+jbfnSVwRfbBCdQWcSZ4VDnjpxzLR/a52yMe5fWR5W15zT5w2Kms9eissLfX/29+Pn988f3BL7XRqjKeqfa9wv5znGW8Wvh771B+IZIxkk25m8vDlnvdPHlQn//e6O5bFI3yLW3fKGzd7q5YsZfbKo7LxJdSOXitPjS3Tlztf4IvnUYvlZOxt+A3eZJrbf7eDfjZ97UvA7o5soCdtZzX++Uei/jk1t/c2zb4yY3/U4u1OAsqUdmJKUpr6K9Z9d6GtvaUxjOEfZ/43XdNbyioe5J3ljpy9m8SAo/vGBc/N9hL2SSoWO39fbqRM3lcQWrcxjx2e30MBr2IyncGez88og3n3vodvJmP1c1VC8kvkt9PxnRFeTvcOgNxKo3mOMEcwydLWfyyrTqSz/2UeRrn9Fc87u0R7NdcpOh/3q/9lcd5pdlDzg9v72It+1UebOtn9PD4atztuEbJs2XNFmllGHurtjk2va+3d7vOAM6q8rPmp+CHc5xSOHMii+Xh1LKEEep3Dt5b1f6PWdQY41pSpkyDqdYkia9cjbFy4WjOBki1aV8Tbo52rEnsvejH94YsPZTIvZpyGy7DAekaKajX+mqSgMGzNiPjCms2T27xTt07DvDxJnc3AVOJL1dtkq5j+/7lgtMC6W+swzGFgXMrEeyYlbmBSnmLTm1Vd7tpe6HegOZoQDDQO3TXhOJh2Xr2jZefeJrJ2mc7x2PhoY1p39/r9DzPd4PBboqEof4+l/BTPzKvprGtOwrx+/G974ffhmkJ1tyu9HxW5FcVba4RuLtOn/kWLdWgze6AifI966pJJ/7bunmNHmz9ZHkdAVJYbf2B85o3urqKsv9nO/dMyMSa4Bjb9Lbc4wc80rgsnXR8dSJt6q8beHtOra9vRuhyr594sSbEzv27P2289v0zpWANYtRT5v49LJ1wZ7IemPfhOYuUFak/kkTbw/pnW0aL7z5S2+Vbnw64ykT72xZsQ+k0HZke0eGfxXmWOb/viKK485xJkVi/JCaYJd6Wqh2Fur8hflnOH3LuHPYTqnniXt7XFfcfTYzX9eAMSHaY+/Kk9NHzk6k8p4MYyr6CeEflPJwMh6r1PaodvwC3GewWheIpv8t7Izv9ic4G/Dq9tb/rdg2vC4+n1as0zr7kPt9OVOz/j+B3dQPxy2dWj/t3t1nhr1ao/fgOvuR1nioJBof12ysmohT6PU5W2/r6foOUm0o8XfOZTTR5mtnjX591X5DiXfOnCRHbJ2CP2EzWh2bSbxz6CA9XO7dsrzczw3EbCTx3oGLbN+1t9t+wiGLGjaReO+IpXGfjHfx0Xo6vA0k3ku7ebLWqfaL5v1997NwkWX8Ho4V9lo9Tgf/7si+ScZLvf0zG/jiLZyOTE/QolbdLGmMMax58M7VOml3917b/T0UtzCWeCr+yyTe698Lt3C7F+tb8/hQ3MJY4mkGbpHEu4cqSzeQ+6nPt2pAcQtjiacF1iUS72y3DWk3DhcN+KnPzlRCcQtjiaeVpvmJn36U2K/36SoOFLcwmvjQ3M9OvH93kNfWKfw77+LMx6/ztfB3LPG/Hx9vINuCSnzh+oCqmzPcE7WNv+r5FBSujKq8J9BewRJaj5ptlFuvgwsUzk/H+M1eKPubvPutiTvnOA3RdFeOX/HXOMydxYN7Zj7QeEtSqeivbZw7nYfCJTnvVtVFvqeU+c/skqRirrdmu1DM/GdU90duhWvPdqGY+c+k5b8utPCBGb/o4x6qB+u/NahMsaoHjkbs2RG849U9T2j3/Cpn+pSGLsW9TqLjaWr/dbmmB9Rh4RmMX2v+acMXhrk/zzew3KXvNbe6t5+1n8bDWGkndqe3cwaF0c7A2fqWt8DdWUXKa8cwDZS7/Z4fa3sB11UJf7eqvfevjdo73t/9WNwCuC7acIoFWniP+tv9wxtYphF8uP5SleHMwbx+fZTq7Gc+nU0vBA/XpR8+zVljpiuKV+La/DhveAm3v77VZzZYbfC3ChuKf8KnH2fnfy6vr+/uYBo/3N3eXl/++XX2raF8J6y7uKc0/6LL2th0ysGE8r8wmyztOW+a2r9lWS1jvc/iSX66bLX7NIXdZHuDJWC185Rl3WETL+BpK/kY2/YO9gU42H5GJb3A62WbgdX+q+ec3yZbb+f+fuVq/23LUstz5PX23kHTW1gd7O389/J6nJdv3m7v7OztHRwcHlH7uFodHR7s7+/t7mxvv95sgl+8+D/soODcL6rJngAAAABJRU5ErkJggg==;rounded=1;shadow=1;glass=1;sketch=0;gradientColor=none;" parent="L6_xuCTIjq3hUXFmm_F4-1" vertex="1">
          <mxGeometry x="303.7327501853225" y="153.62924208534068" width="51.37074186006729" height="51.37074186006729" as="geometry" />
        </mxCell>
        <mxCell id="L6_xuCTIjq3hUXFmm_F4-2" value="" style="shape=image;verticalLabelPosition=bottom;verticalAlign=top;imageAspect=0;image=data:image/png,iVBORw0KGgoAAAANSUhEUgAAAiIAAAGPCAYAAABh3ruHAAAAAXNSR0IArs4c6QAAAARnQU1BAACxjwv8YQUAAAAJcEhZcwAAFxEAABcRAcom8z8AACUfSURBVHhe7d0LnF1VlefxtU5VheAg0EJLlLTCGAVtpGFAGw0oKD5wVEAUAVHAEYVpaEQeSVUFb5dJVSVBAcVpdbQNdvtAXiJ2O/iBHumBIEq0GQf9oIOKdugOig4NKCFVOWvWvmcnJCGvSt179j5Vv+/nc8/Ze11InTp1Hv97XlcFzdGyXWSNHSeFHOu9/cVkT1GdVb25CbNxUVnp/81K790motfLiN5TvQkAU8ygHe4bvhO8daRv92b7tnHP6g1n9nh7eyiyQkrfFs6Qm2VIV1dvIjWCSBNcaLNkhp3mrdN85XpxVdwRdr2voF+QkeIbsQAAzTZQHuPbxTO89Y6qsD3sdt8WXuUfzpb5btBiEYkQRHLX8hAybrf4n+qAWJmccKRE5CIPI1dUBQBoqEGb79u0hR5EemNlguyL0qtny5A+HgtIgCCSs4vL2dInIYTsHysdZFfIcHF+7ABAc7Ss1z+gfda3jafHyiTYCg8jb/EwsioWULMijpGbgXJvDyFXdCeEOJO/9J9xTuwBQHOM20c6E0ICPVTG7OMyWP5JLKBmBJF8eUjQcOFVd6iGv/2ozC/nVAUAaID+8iTfgPXHXmeonujDgaqDuhFEctRfHujDCVx4tYNUd5Ee+YvYA4C8hQ9OhZwXex2mJ8uC8s2xgxoRRHJU6Js8JLwg9rrL5Cxp2VO3uQFArnokHA05LPY6bTcpuxVysDUEkRyZvSa2uk91poxbeC4JAOTrM9bnw9dXna55ucwvXxbbqAlBJDfh6ITq62KvLkfGMQDk6QHbzz85HRF73aG6q+8V/zz2UBOCSG5Ke2Fs1cfkubEFAHkq5ODY6raXxDFqQhDJTSm7xVZ9VJ4XWwCQKd07Nrpt3zhGTQgiuSl1ZmzVaQefSggANSmlrm1jim3wtEYQAQAAyRBEAABAMgQRAACQDEEEAAAkQxABAADJEEQAAEAyBBEAAJAMQQQAACRDEAEAAMkQRAAAQDIEEQAAkAxBBAAAJEMQAQAAyRBEAABAMgQRAACQDEEEAAAkQxABAADJEEQAAEAyBBEAAJAMQQQAACRDEAEAAMkQRAAAQDIEEQAAkAxBBAAAJEMQAQAAyRBEAABAMgQRAACQDEEEAAAkQxABAADJEEQAAEAyBBEAAJAMQQQAACRDEAEAAMkQRAAAQDIEEQAAkAxBBAAAJEMQAQAAyRBEAABAMgQRAACQDEEEAAAkQxABAADJEEQAAEAyBBEAAJAMQQQAACRDEAEAAMkQRAAAQDIEEQAAkAxBBAAAJEMQAQAAyRBEAABAMgQRAACQDEEEAAAkQxABAADJEEQAAEAyBBEAAJAMQQQAACRDEAEAAMkQRAAAQDIEEQAAkAxBBAAAJEMQAQAAyRBEAABAMgQRAACQDEEEAAAkQxABAADJEEQAAEAyBBEAAJAMQQQAACRDEAEAAMkQRAAAQDIEEQAAkAxBBAAAJEMQAQAAyRBEAABAMgQRAACQDEEEAAAkQxABAADJEEQAAEAyBBEAAJAMQQQAACRDEAEAAMkQRAAAQDIEEQAAkAxBBAAAJEMQAQAAyRBEAABAMgQRAACQDEEEAAAkQxABAADJEEQAAEAyBBEAAJAMQQQAACRDEAEAAMkQRAAAQDIEEQAAkAxBBAAAJEMQAQAAyRBEAABAMgQRAACQDEEEAAAkQxABAADJEEQAAEAyBBEAAJAMQQQAACRDEAEAAMkQRAAAQDIEEQAAkAxBBAAAJEMQAQAAyRBEAABAMgQRAACQDEEEAAAkQxABAADJEEQAAEAyBBEAAJAMQQQAACRDEAEAAMkQRAAAQDIEEQAAkAxBBAAAJEMQAQAAyWgcIxcDdrr/VZbFXk3sARku9o0dAMhPv/2Vf3RuxV73mD3iw3uqTiZUVvpw3F+PSKn/7vNhtZisErVVMib3ytIivN9YUyeIzLN9pFf2ib3mMnuDqM6PvXqYL8yqJ8ceAGTITvNd1umxgw2ZPe578/u8db+/vu8h5TYZKVa032uAZgWRls2SNXa4T/Uh/prtM3sfH3v40NnxvwAAAGYP+/7xVjH9lozbrTkfNck7iMwv50ghb/SpnOu9w3xym3/EAwCAupnd5h/ePyMz9EYZ0tWxmoX8gkgIHz1ykrdO8Mk7qCoCAIBJC0dKRK4S07+RUQ2nc5LLI4i0bKaM2fu89U5RPbwqAgCA7rEbPZAMyYgmvTg3bRBZUB4sJsf76zgPIC+NVQAAUAv7vQ+u9TRwrSwqvlnV6pUmiFSnX87zAPI+DyAzYxUAACRj18mYnF/3ha31BpEQQFROl0LCbVjc6QIAQFbsx2LyWenTz8mQPh6LXVVPEGlZr4xZuP/7NK4BAQAgc2ZfaQeS0eLbsdI13Q8i1S24n/IAcnSsAACA3IUHpYmcLyPF56pCd3Q3iAyUZ/nwHA8hf1oVAABAc5iJyeXS56+h7lw70p0gMlju6xPuAUTO9R/RF6sAAKCZrvVQcoUMF3fGfsd0Poj02/5S2Ff8n+ZhZAAATBXhe8lEjpeR4q6q0BlFHHdGf3mSqF1DCAEAYIpRnSUqX/B9/amx0hGdOyIyUL43DH1CX1AVAADA1GM/F9OFMqJXxcKkdCaIDJTn+HCwnZYAAMAUZ78SEw8jk7+jZvJBZKD8oAeQy2MPAABMB2bjYvoOGdUbY2WHTO4akYHyv/pwqOoAAIBpQ7VXClviWeDYWNkhOx5EqotV+n1Cdq0KAABgetEXicpFMli+MhYmbMeCyPzyrf6D53sI4ftiAACY1nSuDy72bPCiqj8xEw8i82wf/78+4yGEp6UCAACnx0qPDMfOhEwsiFxos6RXlnoI4e4YAACwAX17+waWCZpYENnJwm2676g6AAAAGzlLLimPiu3tsv1BZLA8TSx8dwwAAMBmqO4npYeRVvmsWNmm7Qsil5SvENNzuUMGAABsnZ4oY3J27GzT9gWRUt4vKofEHgAAwNa8Xy4pj4jtrdp2EBko3yMmp8UeAADA1qk+T9bKu2Nvq7YeRFpleE7Iaf4Pdu7L8QAAwNSncqoMlCfE3hZtPYiMtUPIa2IPAABgO+nOPjhVWrZL1d+8LQeRloVnhcyvOgAAABOkepysseNib7O2fMplsLzc357wg0mSMFvtwxX+26zy8Uqf7oektJVSqLcBAGio0vb0fVu4TGKv9tja7YN8B797+/1GsHtluHhp7DzN5oPIQHmoD6/zX/T5VSFDZj/yqV/urTtkrS6Xxfrz6g0AAKaw+eUe0itzPZQc7q+5vq/e4S+cq01p75TR4prY28jmg0jOR0PMbvaZPux/hLtkSMdjFQCA6anf9pfC/sJDyVm+f+yN1byY/b2MFG+JvY08PYj0lwd6NRwNeWGsZMK+IaV82RPV1bEAAADWCY9WL+UUDySn+D78GbGaB7NHfZqOlWG9LVbW28zFqvq2vEKIPSClnSzDxVsJIQAAbMHC4tu+rzzTW6/2Hf8dVTET7Sez22Zv5d04iFxUPlMKOyb20jO7xpPdOwggAABsp5Fihe873+770I/FSh7MA9J8+6PYW2/jINInR3tseXnspaV2pazVi9ozFAAAbL/R4iEZ9n2o2Dx//SZW01J9qRT2qthbb9NTM6+N45T+3WfaJdKjF8sS/VWsAQCAiVA1GS6WeisEknurYnJPCyJPXaw6UO7tvVu9tH+spGG2QEaK4dgDAACT1V+e5Pv4j3k4eW6sJGIrpFdfLUP6h1jY6IjIazMIIZ+SJ+Sy2AMAAJ0QrrW0HPaveqiMb3x65qkgojI3ttIwu0lKn0mXF0/ECgAA6JRRvcz3tZfHXkrhoanrbXhE5PVxXD+zVbJWz5PFxf2xAgAAOkpN+vRi3+neFQtpmPx5bLVVQWR++TKfwH3a7TSGZYk+ENsAAKAb2k8k10vE7OFYqZ/KHGnZjNiLQaSQQ9rjJOxbUspXYgcAAHTTsN7q+/2E+13dX8bswNiJQUQTBhGTL8vi4rexBwAAus3kah+kfETGJkFE5Mg4rpfZbTJS/G3sAQCAOgwXd/rwhqqTgMpLY8uDSMtmemVO7NcrfIsuAACoX68uEbNU32I/K449iJT2Z7FdM/uh9Nr3YgcAANRpSFeJytdjr257xXEIIpLmbhmT22WoeDT2AABA3UxSfUvvBkFEEwUR9SACAADS6dHbxWz949ZrtJe0rDc0whGRfdulWtnPE6YwAAAQLNTvpzkwoHvIE9a+TiTcNbNfaNTsBzJSPBjbAAAgFZN/jq16qcYjIqpPfQNvXUweii0AAJDWL+O4Xn3WF0aFp4Jntgt1Uvl1bAEAgLR+E8d1az/LrBCT+oNIul8aAABsyBIdHFgrPWEU7prZtV2oU6pfGgAAbKwn0T65Z10QEV1/L2+NuFAVAIAc9OjPYqteY/pYGK37rpma6erYAAAAKQ1pmse898juYZQoiAAAABBEAABAQgQRAACQDEEEAAAkQxABAADJEEQAAEAyBBEAAJAMQQQAACRDEAEAAMkQRAAAQDIEEQAAkAxBBAAAJEMQAQAAyRBEAABAMgQRAACQDEEEAAAkQxABAADJEEQAAEAyBBEAAJAMQQQAACRDEAEAAMkQRAAAQDIEEQAAkAxBBAAAJEMQAQAAyRBEAABAMgQRAACQDEEEAAAkQxABAADJEEQAAEAyBBEAAJAMQQQAACRDEAEAAMkQRAAAQDIEEQAAkAxBBAAAJEMQAQAAyRBEAABAMgQRAACQDEEEAAAkQxABAADJEEQAAEAyBBEAAJAMQQQAACRDEAEAAMkQRAAAQDIEEQAAkAxBBAAAJEMQAQAAyRBEAABAMiqDZrFdH5ODZUTviT1sqmUz5UmbLT06W0ofF2EsMz02rvb+Su+vlLU+3snHQ7o6/l8IWra7rJFZPq9m+3I2W9TnX6m9Pn7E+2HerZJxHy/RB+L/gXVaNkvGwrwL88zH5stdoLbK26t8vNLn3SpZWqxs14FctGxPWePLb3u9V192ZZ92PSy7ha/va+UBmdHeXj7SruPpEmYBgkguFpQH+3x5pb/meu+Vovr86o2tMN8xiCz3OLnc/7/lMlL8oHpjGmlZ4TvHV/rM8Fecf6p7Vm9ujf3YB3f6Rmu5h7s7ZXHx06o+jYTQNmbV8rbupTojvLV19j0fVMtcn8+/IQ8pQJ1a9gwPHnP9g4Uvv77uV+v9M+K7m2f2Ox/e0X6V/lpcfKddR4UgMo0tKN/s82PQo/thsTIJdpd/+l8io3pjLExdLev1nej7PIRd4PNuTqzuGLNxH97q/07/tFguqwDiy5ycvn2hbSvMHve/wdXSq5cQSNB14WjxuF3orQ/4+lodsdthdo8HkmEZLa6LhemNIDINVQHkXb4ynRQrnXSt7xy+LIumYCA5t9xJdpVTfN6d4jvRo2O1M8welUK+5PPuS7KwWB6rU8dA+Rz/3XyZay93B1XFDjH7uQ+/LKZf8iB8X1UEOqRVPkvGwjrvL9FXxGpnmN3QXu8XFTfEyvREEJlGWraLJ/pLfWU6K1a6yMIn1TP9k+rjsdBs82wf6bG/8wByeKx0h9lq3+ANy3CxKFaab9B8ntkyX+4md/RoW8we9vX7XP+UeXWsAJMzYAeJ+novekCsdMkU215OVMIswF0zdbqkfIWHkC/UE0ICPUnG7Ku+gB0ZC821oDxReu2aroeQQHWmDxbKYPkpf70gVptroDzHA8IX/XfqbggJwqmeQj7v8+0j/il211gFdsxgeaaHkK/6gtXlEBK0t5fX+vays0dasU0EkbossOOklHAk5G2xUg/VN3nsvNRX6HfGSvMMlud6cg7z7mWxUpN2YAzzLlzI2TzzbDcPIQu9dakvB9u++LljdGd/XSJrZanML7sffjD1hGtBBssFvhyF9f5Fsdp9qm/00P5R/9nvjhXUgCBSh3BEomwfWgx3KCSgh/qO/Iu+cr0xFppjsLzQp/8T/nperNRMj/d5d71cXE7ywrgEeu2TvmFd4K+ZsVIv0w/4FmZZ+3QkMBHV6esQonerCjVS/TNf5z8v/eXbYwVdRhDptsHyVb5FXuoLd9qNsWqvDy/1T8hvqAoNMFie4RuE/thLR3WW9MknG/XpfkEZ7sQ6NfbSCafSxnz5D7dbAtujvwx3wp0Te2mE7aXKZT4tp8QKuogg0k0Lyhf6jjSsVDWfUtgSPcBXrgt85TowFvIVjt6Eeaf6rFhJTI+VHp+eJuxQB8r3VstdJlTP9k+4H4o9YMsGy5N9r5THsqL6Jz4t83x9OiZW0CUEkW4yGfGF+a2xlwl9nYeRJbGTp/CcC5Erfd79aVXIhZ4l4/KXsZOn6qjNx31a/6gqZMKk1b5lHdiScFecSTgN+9xYyYAe6NvLv/Zt0uSet4OtIoh0S0j2onmeYwwXZA2W/yX28jNmk39IWbeYnd2++ylXhXzY/775XZMRDnWXcpFcVGa0k0FWem2eLycZ7vB1H98mfTh20AUEkW44v9zZh3nfpWJykn963iP28jHfDvFhvvNO9Xm+Q+3GQ+gmb0EZ7sjKc9oC1VfJjIynD+lUp2JzXjbezRG97iGIdMMzwgqlx8ZensJTSTXDFb/H3unT9sLYy1PYYPaXR8VeHsJ37pie5POuL1Zy9U7f6ewb28A6Yb0Pp2TzFKat9DDSsu34LiZMFEGkO/K+jmCdQj7oK1a4myYP4dtfw1M5c6f6bJ9374m9PIzLa3z4jqqTM325/43zDumoV3hyqujpsZcv1RNljbwp9tBBBJFOaz+ro8Pf49E1OkfGLJ+dwnj7S9jSPPNi4t7gf+uMnrpqJ8dGExwfx4BvhuyM2MpfYelviZ+CCCKd1/1HkHfWEXGcnlk+07JN+hwf5PG37i/38mGTlrvDfZoTPdwPWbmg/A8+bNKye2QjHn/QMASRjqvhu1A6yqc3h2djVCt300JcHtOrYTpqfAz2ZKkW1TRj2tupvez+p9hrAN3Dl93mf3dXZgginRS+k6RRn+qdyiEyHr6ZNbFCjvAdVLO+JM18mvvLP469dJq5UyeIIGjeckAQ6TiCSCeZvKT9aa9xsvhEclgcN4fqfr5RyuE6keZ9h5Aqt0IiaN5O3eQtWV3kPwUQRDorXDfQPGbpnydi0tQnF6b/m5s080vlwlcgYLrL6wnA2yM8nG+NNedUaAMQRDor/WH6HaIZnF7IYBp2SOLpDl/1rw1d7qyp6ws6RuXZsdUshcyKLXQAQaSTmrpDUEu/MbAMpmGHWNq/uYafrzvFXrMQRKa3C0pf5xv6AaQkiHQSQaSzmrphTTvdrTJcpNrMeZf6E11fg3fmTf00jM7YucHLLkdEOoog0kkmPbHVLMmnu32Bb1OXxbTTXWozl7mgqesLOqXJ+x8uVu0ggkgnqf4mtppF5dexlcaQPuLT0Mx5J4mnW62p8y1sfdIud0irp6Hby0qTpz07BJGOauxOIYfpZt7tiN/7zzcbj71mWcvGfFr7cfj7229jr1lYdjuKINJRDU34lsVK1dR5l/ZT/eXF7xp7NKmHIyLT2rW61ofNXHY5mtdRBJFOMlsVW82i8rvYSqmZn4xUH4qtlH4fx83Soz+LLUxfj8Rxs4zLv8YWOoAg0kkqP42tZlkrP4ytlO6O4+Yw+6UP/JXcrXHcIPaPMqTNPKWEzjG5I7aaw+y7srM280NnpggindSrvlLZ92KvIezHslMGG4O1stynZSz2mmK5DBf/EtvplGHeNU1YVzDtmTZv2VXfXhKiO4og0klDusYTfrNWrDC9Q0X6UzOLi+/6sFk7p7BBykHZDsArY68pCCIQmRGWA7sv9ppBCdGdRhDptKJxG9h8prdJIc7s0WyORCzRB3zYnOXO5PvyB2vgURx03JA+7MMGLbv2E1nLsttpBJFO69GbGnPRqtkj0qc3xF56Jl+NrSb4nowWOVxbUynlH2KrAezbcnnxROxgulP5emzlT+V2X++beadPxgginVadO1xSdTJXyFKf3sdjL73R4l7fSf332MuYPSGm/y128jBDvunT9a3Yy1g4DK9fih0gfLnDLb5cfC32Mma/8sB/Veyggwgi3WDyFTH/1Jc1u8un8+rYyUcZpinzI0phvo3qjbGXh3Cdj2l+f89NhXk3ovfEHiByXvFkXO/Dc0Xy1V7vC07LdAFBpBtGi4dEPYzkLKz4w8UvYi8fo0UIcBnvUO237aCZo73MpyvnT5b2A1/u8l4vkMZocU2WH4zWax/JY9ntEoJItwwXnxWz22IvM7ZCZmR2amFDvbok4+ts/s43mrfEdl7CJ0uTEZ93ed5aaHqlLC6a+awddJ/JYl928zlVvCGTz3Akr3sIIt3UIxf7Enx77GXCQ0ghH8r6PvghXeXTeL5P67/FSh7Mviq9cmns5WmkWOEbzfmxlw+zy3xDzvl1bFn7GjGZ58vK6qqQCbNPSZ9+OvbQBQSRblpY3O07hct9Qc7jFEh1lOEyn67MwtFmLCrCYdrLqk4GzMIthpfJUJH/o51H1eebXR576Zld48N8/pbI10jx1z7MaFmxm6QM673mFY6mGIJIt40UXxPRj8ReakMyXDTnPOdw8VHfEKT/FF0dLj7f/5YNeWqumvTqxTE8pRXCb5+e5/PuwVgBtq5PW77cpP/agrDsjvuyu7i4P1bQJQSROoRD0mZn+5KdZoE2+xd/hR1p8w4v9soFPu0j/ks8GSv1MvuOD0/3ebeiKjREOPVmeqb/Ap+LlQTs69IjJ7ZPtQHbKyy7Ku/35eeTsVI/s5vF5D3xYYHoMoJIXUIIMLnQF/CaT4vY9/yvfKH//CtioVnCbakjxWCcdzWf4rLrfUd6gf/862OhWUb1vhjkPuK/S83f0GuflrX+N2vCaUDkJ9zR96gvP2K+7lu9X0Fhtqy9zcz1ovQpiCBSp5Hi69KnJ/qCfnOsdJndJWNygiwqwjn6ZhspwqejE/13qumokn1OevVU35GGIyLNNVQ86vOuJaW8z5e77n/lenWhYb/vSM7mkDYm5criSV+ORkTlXb5cdf+oWrjbzGyRb6Pf79vMH8UqakAQqVs4TN2nx/pS/15//WOsdla4bdjsTN+RvlaWFk37MrQtC6dHxuQo/wXDlfX/O1Y7y+w632kf7xvAM6fUBWqjxdVi8mr//Zb6L9n56zXCd++EoyAmr5dhXRyrwOQNFzf7nupIX8bCkb0uhNvwrd92lage49uYS9qnhlArlUGz2K6PycHck+1a1itjdpa3Bn0lmFUVJ6H61LDEg84np/zK1LLdfd7N89Y5Pu92qYqTYfdJqf3ZPTG1G+aXc6RHRn09PM7nXW+s7rj2hYV6Ees0uq5ls2TcFvqye6ovuzNjdRLsLl92+z08Z/rMpxolzAIEkRzMs92kz+b6fHml9+JLd2q/tzXhUKLqcintTo+Uyz2ALPcA0v3D7zlplc+VcZ3rM2PdfHt59cY2VOed72y/zF8z2vNuen0SWlC+eP0yZzLXl6X9qje2IVz8LO1vHl7un1SXy6Lin9t1oC4t+48eSMI205dbf4keEN/Zhvaziar1Piy7C4vvtssgiGATF5ezPVTs7/NptqjN9sre/grpP5wqeFBMV/rKt1LG5X6u6t5Ef3mAb2Bmt+ed6WwpLMy78Kk/BLQHpZRVUvj865V7pl1o25rq6NyhPs9mxWVuL1/Gwjisr+FI20M+XunzbpXPuxU+73iuAvIxUB7q6/0sX7/Dej/L1/vnt+smD/vQt5kbrfd5Pr01NYIIAABIJmEW4GJVAACQDEEEAAAkQxABAADJEEQAAEAyBBEAAJAMQQQAACRDEAEAAMkQRAAAQDIEEQAAkAxBBAAAJEMQAQAAyRBEAABAMgQRAACQDEEEAAAkQxABAADJEEQAAEAyBBEAAJAMQQQAACRDEAEAAMkQRAAAQDIEEQAAkAxBBAAAJEMQAQAAyRBEAABAMgQRAACQDEEEAAAkQxABAADJEEQAAEAyBBEAAJAMQQQAACRDEAEAAMkQRAAAQDIEEQAAkAxBBAAAJEMQAQAAyRBEAABAMgQRAACQDEEEAAAkQxABAADJEEQAAEAyBBEAAJAMQQQAACRDEAEAAMkQRAAAQDIEEQAAkAxBBAAAJEMQAQAAyRBEAABAMgQRAACQDEEEAAAkkyiIWG9sAACA9I7yffNVsV2PtfJIGBVi9ut2oU6Fzo4tAACQ2rDe5sM1VacmWh2UCEdEHguNWpXy7NgCAAA5sJr3zVrlj2Jdo1ZqBBEAAPJS477Z1soMjUHE5NF2rV5/HMcAACAP9e2bTR6TIf1DaIZTM2Vo1IwjIgAA5KJlvaL6wtjrPq0uVA3CqZn7Y7tOB8r8co/YBgAAKa2RN8dWPUz+NbbaR0R+UTXrpC/x5HVE7AAAgJQKOzy26rI+exRSygOxXa/6f2kAALCpc8udfFjvwQF9KnsU0pviiEjbEfGXBwAAqewazlDoy2OvLhscESn0/8R2zfyXfqa8NHYAAEAKZq+NrfqY/Ci2PIgM6eNeWRn79VIZjC0AAFC3lu3uw7OqTo36dP2NMtV3zZjc0h7X7xgZKE+IbQAAUKcxmyeqIYzUyJbLkD4cO+uDyPfb49ppuEbkFPk414oAAFCr/nKuD0+uOrVaEcdt64LIRsVaqb5Nfu1hBAAA1KfHQ4jq82OvPrq5ILK4+K6nkTS38VYGpGV7xjYAAOimQTtaSvlA7NWrR/8+ttqqIBKku07E6RwZt8ulVfLodwAAummwfI3v9C8V1fbX8NfK5J9kSNc/3j14Koio3B5bieipMq4fih0AANBpC8r9fOj7Wj2oKtRM5bbYWm/DIyK3itn6+3qTMPuQJ7VzYw8AAHRKy3bxfX0IIf85VuplttqHt1adpzwVREaKf0t+VES1z2fSZdJfnhorAABgssK364ZLIETfHysprJBhvSO213sqiAQmG11AkkQ4Z6XyGRkoh+Si8pmxCgAAdsSC8mAZs7/1Hez7YiWVa+N4IxsHkcfap2f+V+ylo/oMf31Y+uRSGSxfEKsAAGAiBss3ivm+VDXF80I2YA+2LwHZjI2DyJXFkz78WtXJgGq4tehqGSgPqwoAAGCbwqmYATvdd/7X+s60/u+SebpbZLT4cWxvZOMgEpTyTU8u98ZeBvRQUfmfnur+RvrLHGYmAAB5alkhC8pTZcy+4fvOZf6Bfpf4TkL2ex98pWo/ncbxxvrtrzyitGIvH2bjPsWfkzEZlqVFmi/qAwAgRwPloT4Mp2GOrAq5sBtluDg+dp5m80FkwA7y//EG/2X2jZW8hFuAVJb75N8hpS2XPeUOuaB4Ir4LAMDUN1DuLSZzpfCX6VzfLx4S38mL2dtkpNjiZR+bDyLBYBlu8/lg7GXOwtGR2/wPssrH4YKYVVLoShkXjpoAAJqtkJn+muX7tn1EbbZX9mq3RY7M49TLVpjd5iHkqNjbrC0HkeoC0c/7L/niqgAAALC97Akp5XQZLa6Jhc16+sWq64wUd3lMuSr2AAAAJuIL2wohwZaDSFDKMk80/xB7AAAA22b2EzEPItth60FktPiN/0MhjDwWKwAAAFunelX7zMp22HoQCUaK63341aoDAACwNXav9MpHY2ebth1EglI/5v/wLbEHAADwdGY/E5P5MqTjsbJN2xdERvU+WSuf9B/wy1gBAADY1CdkpJjQtaXbF0SCxcVNoh5GAAAANqV2pYzolbG33bY/iAS9Go6KfDb2AAAAnP0PH3gIUav6229iQWRIV4vJFR5GbooVAAAwrdndHkAuk0XF/42FCZlYEAnC1/j2yGJv/VNVAAAA05P9VNQzwbDeGgsTNvEgEiwsvuM/3MOI3RMrAABgWrGHfLBYFhU3VP0ds2NBJBgubvZhCCM/rwoAAGBaCN+Cb+FISLEsVnbYjgeRYLgIDzr7sE/Qj6oCAACY0sweFpVBGSmuiJVJ2fK3707EgvKtnoz6/Z8L39gLAACmIrNfeHIYleGiY3fQdiaIBJeUR0nZDiOvixUAADBl2A99Pz8qo8XVsdARnQsiQctmybh9w//ZQ2MFAAA0nj0gpR7TftJ6h03uGpFNDekqMTlOzJb668lYBQAATWW2TNT37V0IIUFnj4hsaLD8gIeS80T1xbECAAAaw37jg0/IGvm4XFo8VtU6r3tBJJhfzpEe+Zr/mANiBQAAZM9W+r77jMk8qGx7dTeIBAPlc/ynnCEm7xXVF8QqAADIjv0/318vk0I+L4uKWh7N0f0gss5g+SofnuE/8vSqAAAA8mE3ieoyWaQ3xkIt6gsi6/TbcVLYpf6j58QKAABIxWyVD4elTz8tQzpeFetTfxAJ5pd7SI+83Vsn+CTw3BEAAOpmdrengOu8db0MFz+rivVLE0TWmWe7SY+d4FPhoUSPiVUAANAtZnf6fvd6b4UA8suqmE7aILLO+eXOsrMc7VNztJi8jlt+AQDoJHvQB7f4fvYWWeuv0SLcmpuFPILIhlo2U9bYm6WQd3koeaOHkpnxHQAAMBFmd/jwS9Kn18mQPlwV85JfENnQQLm3mL5MCguPjD/Ug8nLPJg8q3oTAAA8xcZ8P7nC9+x3e2eFlHp3t56G2kl5B5FNtWwXGZfDPOHt71O+n8/wOT6e478Gd+AAAKaP6k6X+30fGILGTzx03C8z5K72V600TLOCyJaE0zmrZVa73Suz28PS9hTVXdo1AACayGxcCl3Zbq+1lWI6LjPlYQ8cj7drjSfy/wExzytiBkJ51wAAAABJRU5ErkJggg==" parent="1" vertex="1">
          <mxGeometry x="180" y="480.65" width="73" height="53.35" as="geometry" />
        </mxCell>
        <mxCell id="L6_xuCTIjq3hUXFmm_F4-3" value="" style="aspect=fixed;html=1;points=[];align=center;image;fontSize=12;image=img/lib/azure2/databases/Data_Factory.svg;" parent="1" vertex="1">
          <mxGeometry x="91" y="466" width="68" height="68" as="geometry" />
        </mxCell>
        <mxCell id="L6_xuCTIjq3hUXFmm_F4-7" value="" style="endArrow=none;html=1;strokeWidth=2;strokeColor=#FF3333;entryX=0;entryY=0.5;entryDx=0;entryDy=0;dashed=1;dashPattern=1 4;" parent="1" source="BonBhimJJVAcB3Fh496H-1" target="GsIWdPKWRebKrd8d-r1N-7" edge="1">
          <mxGeometry x="328" y="360.4" width="50" height="50" as="geometry">
            <mxPoint x="328" y="535.4499999999999" as="sourcePoint" />
            <mxPoint x="294" y="507.32500000000005" as="targetPoint" />
          </mxGeometry>
        </mxCell>
        <mxCell id="L6_xuCTIjq3hUXFmm_F4-19" value="" style="rounded=1;arcSize=10;dashed=0;fillColor=none;gradientColor=none;strokeWidth=2;" parent="1" vertex="1">
          <mxGeometry x="910" y="316.36" width="330" height="133.64" as="geometry" />
        </mxCell>
        <mxCell id="NfwQ1fAhElnoeN3uriOs-31" value="" style="pointerEvents=1;shadow=0;dashed=0;html=1;strokeColor=none;fillColor=#505050;labelPosition=center;verticalLabelPosition=bottom;verticalAlign=top;outlineConnect=0;align=center;shape=mxgraph.office.concepts.firewall;" parent="1" vertex="1">
          <mxGeometry x="1050" y="364.5" width="47" height="43" as="geometry" />
        </mxCell>
        <mxCell id="L6_xuCTIjq3hUXFmm_F4-12" style="edgeStyle=orthogonalEdgeStyle;rounded=0;orthogonalLoop=1;jettySize=auto;html=1;endArrow=none;endFill=0;" parent="1" source="CjMjSR9vqsGcoCLZpo86-9" target="NfwQ1fAhElnoeN3uriOs-31" edge="1">
          <mxGeometry x="890" y="290" as="geometry" />
        </mxCell>
        <mxCell id="L6_xuCTIjq3hUXFmm_F4-34" style="edgeStyle=orthogonalEdgeStyle;orthogonalLoop=1;jettySize=auto;html=1;entryX=0.5;entryY=0;entryDx=0;entryDy=0;endArrow=none;endFill=0;strokeWidth=2;sketch=0;shadow=0;rounded=1;" parent="1" source="CjMjSR9vqsGcoCLZpo86-9" target="GsIWdPKWRebKrd8d-r1N-8" edge="1">
          <mxGeometry relative="1" as="geometry" />
        </mxCell>
        <mxCell id="CjMjSR9vqsGcoCLZpo86-9" value="" style="shape=image;verticalLabelPosition=bottom;verticalAlign=top;imageAspect=0;image=data:image/png,iVBORw0KGgoAAAANSUhEUgAAAEYAAAAhCAMAAAEkBh3CAAAAAXNSR0IArs4c6QAAAARnQU1BAACxjwv8YQUAAAAzUExURQAAAACA/wB4/wB6/wB8/wB5/wB6/wB7/wB6/wB7/wB7/wB8/wB7/wB7/wB7/wB7/wB7/1kyc90AAAAQdFJOUwAQIDBAUGBwgI+fr7/P3+8jGoKKAAAACXBIWXMAAA7DAAAOwwHHb6hkAAABdElEQVQ4T82V65KCMAyFUwpUYLV5/6fdk0sFsYAD/vAbJ1vr4bRNaJZoMnpiKjCNjG/2KfwZN4r+hM8DEQZ62Mhhiv4EUZ990km8NDaqUx2HFwZoBl/e0aVfeHfK1ZkWwnvQX3DauuYVzETfiQPF6Md0IHvwASIxx00gEt0uuWg0Zm4kRJkQJk6ICw3SpCHPCRu5R3xqdoDmfqQRk8Ozy9q9167KgGNQ4+pN7rKcHHAbRkJ49eatCTwRS832wGJf1STZvYZu3l/wMrkGR1wGY2Du8KdoOomtBZg5Zlk0e3xT80meefBbUyUyt5KFffScye9alcluAHrFJQZ1mWSYz6JG6FDoplq40yQYJHkTjkpxAHaEWv2sTZtKluZRk6RFrQldeja6lU2jadfWoKNRRtqWFv+xDEmrdAllZWNv4k2G+vA8erPpZTbXbWSrz512sXTeebQktm5SsTnHD9rIvayV9GNuMMDt1Kt5Dauk3M4LjIHoHwdOMKNavHbIAAAAAElFTkSuQmCC" parent="1" vertex="1">
          <mxGeometry x="940" y="369.5" width="70" height="33" as="geometry" />
        </mxCell>
        <mxCell id="L6_xuCTIjq3hUXFmm_F4-10" value="" style="aspect=fixed;html=1;points=[];align=center;image;fontSize=12;image=img/lib/azure2/azure_stack/Capacity.svg;" parent="1" vertex="1">
          <mxGeometry x="1142" y="352" width="63" height="68" as="geometry" />
        </mxCell>
        <mxCell id="L6_xuCTIjq3hUXFmm_F4-11" style="edgeStyle=orthogonalEdgeStyle;rounded=0;orthogonalLoop=1;jettySize=auto;html=1;endArrow=none;endFill=0;" parent="1" source="NfwQ1fAhElnoeN3uriOs-31" target="L6_xuCTIjq3hUXFmm_F4-10" edge="1">
          <mxGeometry x="890" y="290" as="geometry" />
        </mxCell>
        <mxCell id="L6_xuCTIjq3hUXFmm_F4-22" value="&lt;b&gt;&lt;font style=&quot;font-size: 15px&quot;&gt;广州数据中心&lt;/font&gt;&lt;/b&gt;" style="text;html=1;resizable=0;autosize=1;align=center;verticalAlign=middle;points=[];fillColor=none;strokeColor=none;rounded=0;" parent="1" vertex="1">
          <mxGeometry x="960" y="290" width="110" height="20" as="geometry" />
        </mxCell>
        <mxCell id="L6_xuCTIjq3hUXFmm_F4-30" value="" style="dashed=0;html=1;shape=mxgraph.aws3.corporate_data_center;fillColor=#7D7C7C;gradientColor=none;dashed=0;" parent="1" vertex="1">
          <mxGeometry x="930.9" y="290" width="29.1" height="40" as="geometry" />
        </mxCell>
        <mxCell id="L6_xuCTIjq3hUXFmm_F4-23" value="" style="rounded=1;arcSize=10;dashed=0;fillColor=none;gradientColor=none;strokeWidth=2;" parent="1" vertex="1">
          <mxGeometry x="910" y="566.36" width="230" height="133.64" as="geometry" />
        </mxCell>
        <mxCell id="L6_xuCTIjq3hUXFmm_F4-35" style="edgeStyle=orthogonalEdgeStyle;orthogonalLoop=1;jettySize=auto;html=1;entryX=0.5;entryY=1;entryDx=0;entryDy=0;endArrow=none;endFill=0;strokeWidth=2;strokeColor=#0000CC;sketch=0;shadow=0;rounded=1;" parent="1" source="L6_xuCTIjq3hUXFmm_F4-25" target="pmPGEmAbYdkGIdwM05D3-4" edge="1">
          <mxGeometry relative="1" as="geometry" />
        </mxCell>
        <mxCell id="L6_xuCTIjq3hUXFmm_F4-25" value="" style="pointerEvents=1;shadow=0;dashed=0;html=1;strokeColor=none;fillColor=#505050;labelPosition=center;verticalLabelPosition=bottom;verticalAlign=top;outlineConnect=0;align=center;shape=mxgraph.office.concepts.firewall;" parent="1" vertex="1">
          <mxGeometry x="950" y="611.68" width="47" height="43" as="geometry" />
        </mxCell>
        <mxCell id="L6_xuCTIjq3hUXFmm_F4-28" value="" style="aspect=fixed;html=1;points=[];align=center;image;fontSize=12;image=img/lib/azure2/azure_stack/Capacity.svg;" parent="1" vertex="1">
          <mxGeometry x="1042" y="599.18" width="63" height="68" as="geometry" />
        </mxCell>
        <mxCell id="L6_xuCTIjq3hUXFmm_F4-24" style="edgeStyle=orthogonalEdgeStyle;rounded=0;orthogonalLoop=1;jettySize=auto;html=1;endArrow=none;endFill=0;" parent="1" source="L6_xuCTIjq3hUXFmm_F4-25" target="L6_xuCTIjq3hUXFmm_F4-28" edge="1">
          <mxGeometry x="910" y="540" as="geometry" />
        </mxCell>
        <mxCell id="L6_xuCTIjq3hUXFmm_F4-29" value="&lt;b&gt;&lt;font style=&quot;font-size: 15px&quot;&gt;新加坡数据中心&lt;/font&gt;&lt;/b&gt;" style="text;html=1;resizable=0;autosize=1;align=center;verticalAlign=middle;points=[];fillColor=none;strokeColor=none;rounded=0;" parent="1" vertex="1">
          <mxGeometry x="985" y="540" width="120" height="20" as="geometry" />
        </mxCell>
        <mxCell id="L6_xuCTIjq3hUXFmm_F4-31" value="" style="dashed=0;html=1;shape=mxgraph.aws3.corporate_data_center;fillColor=#7D7C7C;gradientColor=none;dashed=0;" parent="1" vertex="1">
          <mxGeometry x="950.9" y="540" width="29.1" height="40" as="geometry" />
        </mxCell>
        <mxCell id="L6_xuCTIjq3hUXFmm_F4-38" style="rounded=1;orthogonalLoop=1;jettySize=auto;html=1;dashed=1;strokeWidth=2;strokeColor=#99CCFF;fontFamily=Lucida Console;exitX=0.5;exitY=0;exitDx=0;exitDy=0;entryX=0;entryY=0.5;entryDx=0;entryDy=0;edgeStyle=orthogonalEdgeStyle;" parent="1" source="L6_xuCTIjq3hUXFmm_F4-2" target="NfwQ1fAhElnoeN3uriOs-1" edge="1">
          <mxGeometry relative="1" as="geometry">
            <mxPoint x="610" y="710" as="targetPoint" />
            <mxPoint x="630.88" y="699.9999999999998" as="sourcePoint" />
          </mxGeometry>
        </mxCell>
        <mxCell id="L6_xuCTIjq3hUXFmm_F4-39" style="rounded=1;orthogonalLoop=1;jettySize=auto;html=1;dashed=1;strokeWidth=2;strokeColor=#99CCFF;fontFamily=Lucida Console;exitX=0.5;exitY=0;exitDx=0;exitDy=0;entryX=1;entryY=0.5;entryDx=0;entryDy=0;edgeStyle=orthogonalEdgeStyle;" parent="1" source="CjMjSR9vqsGcoCLZpo86-9" target="NfwQ1fAhElnoeN3uriOs-1" edge="1">
          <mxGeometry relative="1" as="geometry">
            <mxPoint x="420" y="185" as="targetPoint" />
            <mxPoint x="186.5" y="490.6500000000001" as="sourcePoint" />
          </mxGeometry>
        </mxCell>
        <mxCell id="L6_xuCTIjq3hUXFmm_F4-40" style="rounded=1;orthogonalLoop=1;jettySize=auto;html=1;dashed=1;strokeWidth=2;strokeColor=#99CCFF;fontFamily=Lucida Console;exitX=0.5;exitY=0;exitDx=0;exitDy=0;" parent="1" source="pmPGEmAbYdkGIdwM05D3-4" edge="1">
          <mxGeometry relative="1" as="geometry">
            <mxPoint x="749" y="220" as="targetPoint" />
            <mxPoint x="985" y="379.5" as="sourcePoint" />
          </mxGeometry>
        </mxCell>
        <mxCell id="L6_xuCTIjq3hUXFmm_F4-41" style="rounded=1;orthogonalLoop=1;jettySize=auto;html=1;dashed=1;strokeWidth=2;strokeColor=#99CCFF;fontFamily=Lucida Console;exitX=0.5;exitY=0;exitDx=0;exitDy=0;entryX=0.119;entryY=0.96;entryDx=0;entryDy=0;entryPerimeter=0;" parent="1" source="GsIWdPKWRebKrd8d-r1N-7" target="NfwQ1fAhElnoeN3uriOs-1" edge="1">
          <mxGeometry relative="1" as="geometry">
            <mxPoint x="446" y="230" as="targetPoint" />
            <mxPoint x="479.9981211153561" y="544.0792420853408" as="sourcePoint" />
          </mxGeometry>
        </mxCell>
        <mxCell id="L6_xuCTIjq3hUXFmm_F4-43" value="&lt;span style=&quot;font-size: 15px&quot;&gt;&lt;b&gt;SD-WAN CPE 设备（4G）&lt;/b&gt;&lt;/span&gt;" style="text;html=1;resizable=0;autosize=1;align=left;verticalAlign=middle;points=[];fillColor=none;strokeColor=none;rounded=0;fontFamily=Lucida Console;" parent="1" vertex="1">
          <mxGeometry x="402.71" y="900" width="200" height="20" as="geometry" />
        </mxCell>
        <mxCell id="L6_xuCTIjq3hUXFmm_F4-44" value="" style="shape=image;verticalLabelPosition=bottom;verticalAlign=top;imageAspect=0;image=data:image/png,iVBORw0KGgoAAAANSUhEUgAAAiIAAAGPCAYAAABh3ruHAAAAAXNSR0IArs4c6QAAAARnQU1BAACxjwv8YQUAAAAJcEhZcwAAFxEAABcRAcom8z8AACUfSURBVHhe7d0LnF1VlefxtU5VheAg0EJLlLTCGAVtpGFAGw0oKD5wVEAUAVHAEYVpaEQeSVUFb5dJVSVBAcVpdbQNdvtAXiJ2O/iBHumBIEq0GQf9oIOKdugOig4NKCFVOWvWvmcnJCGvSt179j5Vv+/nc8/Ze11InTp1Hv97XlcFzdGyXWSNHSeFHOu9/cVkT1GdVb25CbNxUVnp/81K790motfLiN5TvQkAU8ygHe4bvhO8daRv92b7tnHP6g1n9nh7eyiyQkrfFs6Qm2VIV1dvIjWCSBNcaLNkhp3mrdN85XpxVdwRdr2voF+QkeIbsQAAzTZQHuPbxTO89Y6qsD3sdt8WXuUfzpb5btBiEYkQRHLX8hAybrf4n+qAWJmccKRE5CIPI1dUBQBoqEGb79u0hR5EemNlguyL0qtny5A+HgtIgCCSs4vL2dInIYTsHysdZFfIcHF+7ABAc7Ss1z+gfda3jafHyiTYCg8jb/EwsioWULMijpGbgXJvDyFXdCeEOJO/9J9xTuwBQHOM20c6E0ICPVTG7OMyWP5JLKBmBJF8eUjQcOFVd6iGv/2ozC/nVAUAaID+8iTfgPXHXmeonujDgaqDuhFEctRfHujDCVx4tYNUd5Ee+YvYA4C8hQ9OhZwXex2mJ8uC8s2xgxoRRHJU6Js8JLwg9rrL5Cxp2VO3uQFArnokHA05LPY6bTcpuxVysDUEkRyZvSa2uk91poxbeC4JAOTrM9bnw9dXna55ucwvXxbbqAlBJDfh6ITq62KvLkfGMQDk6QHbzz85HRF73aG6q+8V/zz2UBOCSG5Ke2Fs1cfkubEFAHkq5ODY6raXxDFqQhDJTSm7xVZ9VJ4XWwCQKd07Nrpt3zhGTQgiuSl1ZmzVaQefSggANSmlrm1jim3wtEYQAQAAyRBEAABAMgQRAACQDEEEAAAkQxABAADJEEQAAEAyBBEAAJAMQQQAACRDEAEAAMkQRAAAQDIEEQAAkAxBBAAAJEMQAQAAyRBEAABAMgQRAACQDEEEAAAkQxABAADJEEQAAEAyBBEAAJAMQQQAACRDEAEAAMkQRAAAQDIEEQAAkAxBBAAAJEMQAQAAyRBEAABAMgQRAACQDEEEAAAkQxABAADJEEQAAEAyBBEAAJAMQQQAACRDEAEAAMkQRAAAQDIEEQAAkAxBBAAAJEMQAQAAyRBEAABAMgQRAACQDEEEAAAkQxABAADJEEQAAEAyBBEAAJAMQQQAACRDEAEAAMkQRAAAQDIEEQAAkAxBBAAAJEMQAQAAyRBEAABAMgQRAACQDEEEAAAkQxABAADJEEQAAEAyBBEAAJAMQQQAACRDEAEAAMkQRAAAQDIEEQAAkAxBBAAAJEMQAQAAyRBEAABAMgQRAACQDEEEAAAkQxABAADJEEQAAEAyBBEAAJAMQQQAACRDEAEAAMkQRAAAQDIEEQAAkAxBBAAAJEMQAQAAyRBEAABAMgQRAACQDEEEAAAkQxABAADJEEQAAEAyBBEAAJAMQQQAACRDEAEAAMkQRAAAQDIEEQAAkAxBBAAAJEMQAQAAyRBEAABAMgQRAACQDEEEAAAkQxABAADJEEQAAEAyBBEAAJAMQQQAACRDEAEAAMkQRAAAQDIEEQAAkAxBBAAAJEMQAQAAyRBEAABAMgQRAACQDEEEAAAkQxABAADJEEQAAEAyBBEAAJAMQQQAACRDEAEAAMkQRAAAQDIEEQAAkAxBBAAAJEMQAQAAyRBEAABAMgQRAACQDEEEAAAkQxABAADJEEQAAEAyBBEAAJAMQQQAACRDEAEAAMkQRAAAQDIEEQAAkAxBBAAAJEMQAQAAyWgcIxcDdrr/VZbFXk3sARku9o0dAMhPv/2Vf3RuxV73mD3iw3uqTiZUVvpw3F+PSKn/7vNhtZisErVVMib3ytIivN9YUyeIzLN9pFf2ib3mMnuDqM6PvXqYL8yqJ8ceAGTITvNd1umxgw2ZPe578/u8db+/vu8h5TYZKVa032uAZgWRls2SNXa4T/Uh/prtM3sfH3v40NnxvwAAAGYP+/7xVjH9lozbrTkfNck7iMwv50ghb/SpnOu9w3xym3/EAwCAupnd5h/ePyMz9EYZ0tWxmoX8gkgIHz1ykrdO8Mk7qCoCAIBJC0dKRK4S07+RUQ2nc5LLI4i0bKaM2fu89U5RPbwqAgCA7rEbPZAMyYgmvTg3bRBZUB4sJsf76zgPIC+NVQAAUAv7vQ+u9TRwrSwqvlnV6pUmiFSnX87zAPI+DyAzYxUAACRj18mYnF/3ha31BpEQQFROl0LCbVjc6QIAQFbsx2LyWenTz8mQPh6LXVVPEGlZr4xZuP/7NK4BAQAgc2ZfaQeS0eLbsdI13Q8i1S24n/IAcnSsAACA3IUHpYmcLyPF56pCd3Q3iAyUZ/nwHA8hf1oVAABAc5iJyeXS56+h7lw70p0gMlju6xPuAUTO9R/RF6sAAKCZrvVQcoUMF3fGfsd0Poj02/5S2Ff8n+ZhZAAATBXhe8lEjpeR4q6q0BlFHHdGf3mSqF1DCAEAYIpRnSUqX/B9/amx0hGdOyIyUL43DH1CX1AVAADA1GM/F9OFMqJXxcKkdCaIDJTn+HCwnZYAAMAUZ78SEw8jk7+jZvJBZKD8oAeQy2MPAABMB2bjYvoOGdUbY2WHTO4akYHyv/pwqOoAAIBpQ7VXClviWeDYWNkhOx5EqotV+n1Cdq0KAABgetEXicpFMli+MhYmbMeCyPzyrf6D53sI4ftiAACY1nSuDy72bPCiqj8xEw8i82wf/78+4yGEp6UCAACnx0qPDMfOhEwsiFxos6RXlnoI4e4YAACwAX17+waWCZpYENnJwm2676g6AAAAGzlLLimPiu3tsv1BZLA8TSx8dwwAAMBmqO4npYeRVvmsWNmm7Qsil5SvENNzuUMGAABsnZ4oY3J27GzT9gWRUt4vKofEHgAAwNa8Xy4pj4jtrdp2EBko3yMmp8UeAADA1qk+T9bKu2Nvq7YeRFpleE7Iaf4Pdu7L8QAAwNSncqoMlCfE3hZtPYiMtUPIa2IPAABgO+nOPjhVWrZL1d+8LQeRloVnhcyvOgAAABOkepysseNib7O2fMplsLzc357wg0mSMFvtwxX+26zy8Uqf7oektJVSqLcBAGio0vb0fVu4TGKv9tja7YN8B797+/1GsHtluHhp7DzN5oPIQHmoD6/zX/T5VSFDZj/yqV/urTtkrS6Xxfrz6g0AAKaw+eUe0itzPZQc7q+5vq/e4S+cq01p75TR4prY28jmg0jOR0PMbvaZPux/hLtkSMdjFQCA6anf9pfC/sJDyVm+f+yN1byY/b2MFG+JvY08PYj0lwd6NRwNeWGsZMK+IaV82RPV1bEAAADWCY9WL+UUDySn+D78GbGaB7NHfZqOlWG9LVbW28zFqvq2vEKIPSClnSzDxVsJIQAAbMHC4tu+rzzTW6/2Hf8dVTET7Sez22Zv5d04iFxUPlMKOyb20jO7xpPdOwggAABsp5Fihe873+770I/FSh7MA9J8+6PYW2/jINInR3tseXnspaV2pazVi9ozFAAAbL/R4iEZ9n2o2Dx//SZW01J9qRT2qthbb9NTM6+N45T+3WfaJdKjF8sS/VWsAQCAiVA1GS6WeisEknurYnJPCyJPXaw6UO7tvVu9tH+spGG2QEaK4dgDAACT1V+e5Pv4j3k4eW6sJGIrpFdfLUP6h1jY6IjIazMIIZ+SJ+Sy2AMAAJ0QrrW0HPaveqiMb3x65qkgojI3ttIwu0lKn0mXF0/ECgAA6JRRvcz3tZfHXkrhoanrbXhE5PVxXD+zVbJWz5PFxf2xAgAAOkpN+vRi3+neFQtpmPx5bLVVQWR++TKfwH3a7TSGZYk+ENsAAKAb2k8k10vE7OFYqZ/KHGnZjNiLQaSQQ9rjJOxbUspXYgcAAHTTsN7q+/2E+13dX8bswNiJQUQTBhGTL8vi4rexBwAAus3kah+kfETGJkFE5Mg4rpfZbTJS/G3sAQCAOgwXd/rwhqqTgMpLY8uDSMtmemVO7NcrfIsuAACoX68uEbNU32I/K449iJT2Z7FdM/uh9Nr3YgcAANRpSFeJytdjr257xXEIIpLmbhmT22WoeDT2AABA3UxSfUvvBkFEEwUR9SACAADS6dHbxWz949ZrtJe0rDc0whGRfdulWtnPE6YwAAAQLNTvpzkwoHvIE9a+TiTcNbNfaNTsBzJSPBjbAAAgFZN/jq16qcYjIqpPfQNvXUweii0AAJDWL+O4Xn3WF0aFp4Jntgt1Uvl1bAEAgLR+E8d1az/LrBCT+oNIul8aAABsyBIdHFgrPWEU7prZtV2oU6pfGgAAbKwn0T65Z10QEV1/L2+NuFAVAIAc9OjPYqteY/pYGK37rpma6erYAAAAKQ1pmse898juYZQoiAAAABBEAABAQgQRAACQDEEEAAAkQxABAADJEEQAAEAyBBEAAJAMQQQAACRDEAEAAMkQRAAAQDIEEQAAkAxBBAAAJEMQAQAAyRBEAABAMgQRAACQDEEEAAAkQxABAADJEEQAAEAyBBEAAJAMQQQAACRDEAEAAMkQRAAAQDIEEQAAkAxBBAAAJEMQAQAAyRBEAABAMgQRAACQDEEEAAAkQxABAADJEEQAAEAyBBEAAJAMQQQAACRDEAEAAMkQRAAAQDIEEQAAkAxBBAAAJEMQAQAAyRBEAABAMgQRAACQDEEEAAAkQxABAADJEEQAAEAyBBEAAJAMQQQAACRDEAEAAMkQRAAAQDIEEQAAkAxBBAAAJEMQAQAAyRBEAABAMiqDZrFdH5ODZUTviT1sqmUz5UmbLT06W0ofF2EsMz02rvb+Su+vlLU+3snHQ7o6/l8IWra7rJFZPq9m+3I2W9TnX6m9Pn7E+2HerZJxHy/RB+L/gXVaNkvGwrwL88zH5stdoLbK26t8vNLn3SpZWqxs14FctGxPWePLb3u9V192ZZ92PSy7ha/va+UBmdHeXj7SruPpEmYBgkguFpQH+3x5pb/meu+Vovr86o2tMN8xiCz3OLnc/7/lMlL8oHpjGmlZ4TvHV/rM8Fecf6p7Vm9ujf3YB3f6Rmu5h7s7ZXHx06o+jYTQNmbV8rbupTojvLV19j0fVMtcn8+/IQ8pQJ1a9gwPHnP9g4Uvv77uV+v9M+K7m2f2Ox/e0X6V/lpcfKddR4UgMo0tKN/s82PQo/thsTIJdpd/+l8io3pjLExdLev1nej7PIRd4PNuTqzuGLNxH97q/07/tFguqwDiy5ycvn2hbSvMHve/wdXSq5cQSNB14WjxuF3orQ/4+lodsdthdo8HkmEZLa6LhemNIDINVQHkXb4ynRQrnXSt7xy+LIumYCA5t9xJdpVTfN6d4jvRo2O1M8welUK+5PPuS7KwWB6rU8dA+Rz/3XyZay93B1XFDjH7uQ+/LKZf8iB8X1UEOqRVPkvGwjrvL9FXxGpnmN3QXu8XFTfEyvREEJlGWraLJ/pLfWU6K1a6yMIn1TP9k+rjsdBs82wf6bG/8wByeKx0h9lq3+ANy3CxKFaab9B8ntkyX+4md/RoW8we9vX7XP+UeXWsAJMzYAeJ+novekCsdMkU215OVMIswF0zdbqkfIWHkC/UE0ICPUnG7Ku+gB0ZC821oDxReu2aroeQQHWmDxbKYPkpf70gVptroDzHA8IX/XfqbggJwqmeQj7v8+0j/il211gFdsxgeaaHkK/6gtXlEBK0t5fX+vays0dasU0EkbossOOklHAk5G2xUg/VN3nsvNRX6HfGSvMMlud6cg7z7mWxUpN2YAzzLlzI2TzzbDcPIQu9dakvB9u++LljdGd/XSJrZanML7sffjD1hGtBBssFvhyF9f5Fsdp9qm/00P5R/9nvjhXUgCBSh3BEomwfWgx3KCSgh/qO/Iu+cr0xFppjsLzQp/8T/nperNRMj/d5d71cXE7ywrgEeu2TvmFd4K+ZsVIv0w/4FmZZ+3QkMBHV6esQonerCjVS/TNf5z8v/eXbYwVdRhDptsHyVb5FXuoLd9qNsWqvDy/1T8hvqAoNMFie4RuE/thLR3WW9MknG/XpfkEZ7sQ6NfbSCafSxnz5D7dbAtujvwx3wp0Te2mE7aXKZT4tp8QKuogg0k0Lyhf6jjSsVDWfUtgSPcBXrgt85TowFvIVjt6Eeaf6rFhJTI+VHp+eJuxQB8r3VstdJlTP9k+4H4o9YMsGy5N9r5THsqL6Jz4t83x9OiZW0CUEkW4yGfGF+a2xlwl9nYeRJbGTp/CcC5Erfd79aVXIhZ4l4/KXsZOn6qjNx31a/6gqZMKk1b5lHdiScFecSTgN+9xYyYAe6NvLv/Zt0uSet4OtIoh0S0j2onmeYwwXZA2W/yX28jNmk39IWbeYnd2++ylXhXzY/775XZMRDnWXcpFcVGa0k0FWem2eLycZ7vB1H98mfTh20AUEkW44v9zZh3nfpWJykn963iP28jHfDvFhvvNO9Xm+Q+3GQ+gmb0EZ7sjKc9oC1VfJjIynD+lUp2JzXjbezRG97iGIdMMzwgqlx8ZensJTSTXDFb/H3unT9sLYy1PYYPaXR8VeHsJ37pie5POuL1Zy9U7f6ewb28A6Yb0Pp2TzFKat9DDSsu34LiZMFEGkO/K+jmCdQj7oK1a4myYP4dtfw1M5c6f6bJ9374m9PIzLa3z4jqqTM325/43zDumoV3hyqujpsZcv1RNljbwp9tBBBJFOaz+ro8Pf49E1OkfGLJ+dwnj7S9jSPPNi4t7gf+uMnrpqJ8dGExwfx4BvhuyM2MpfYelviZ+CCCKd1/1HkHfWEXGcnlk+07JN+hwf5PG37i/38mGTlrvDfZoTPdwPWbmg/A8+bNKye2QjHn/QMASRjqvhu1A6yqc3h2djVCt300JcHtOrYTpqfAz2ZKkW1TRj2tupvez+p9hrAN3Dl93mf3dXZgginRS+k6RRn+qdyiEyHr6ZNbFCjvAdVLO+JM18mvvLP469dJq5UyeIIGjeckAQ6TiCSCeZvKT9aa9xsvhEclgcN4fqfr5RyuE6keZ9h5Aqt0IiaN5O3eQtWV3kPwUQRDorXDfQPGbpnydi0tQnF6b/m5s080vlwlcgYLrL6wnA2yM8nG+NNedUaAMQRDor/WH6HaIZnF7IYBp2SOLpDl/1rw1d7qyp6ws6RuXZsdUshcyKLXQAQaSTmrpDUEu/MbAMpmGHWNq/uYafrzvFXrMQRKa3C0pf5xv6AaQkiHQSQaSzmrphTTvdrTJcpNrMeZf6E11fg3fmTf00jM7YucHLLkdEOoog0kkmPbHVLMmnu32Bb1OXxbTTXWozl7mgqesLOqXJ+x8uVu0ggkgnqf4mtppF5dexlcaQPuLT0Mx5J4mnW62p8y1sfdIud0irp6Hby0qTpz07BJGOauxOIYfpZt7tiN/7zzcbj71mWcvGfFr7cfj7229jr1lYdjuKINJRDU34lsVK1dR5l/ZT/eXF7xp7NKmHIyLT2rW61ofNXHY5mtdRBJFOMlsVW82i8rvYSqmZn4xUH4qtlH4fx83Soz+LLUxfj8Rxs4zLv8YWOoAg0kkqP42tZlkrP4ytlO6O4+Yw+6UP/JXcrXHcIPaPMqTNPKWEzjG5I7aaw+y7srM280NnpggindSrvlLZ92KvIezHslMGG4O1stynZSz2mmK5DBf/EtvplGHeNU1YVzDtmTZv2VXfXhKiO4og0klDusYTfrNWrDC9Q0X6UzOLi+/6sFk7p7BBykHZDsArY68pCCIQmRGWA7sv9ppBCdGdRhDptKJxG9h8prdJIc7s0WyORCzRB3zYnOXO5PvyB2vgURx03JA+7MMGLbv2E1nLsttpBJFO69GbGnPRqtkj0qc3xF56Jl+NrSb4nowWOVxbUynlH2KrAezbcnnxROxgulP5emzlT+V2X++beadPxgginVadO1xSdTJXyFKf3sdjL73R4l7fSf332MuYPSGm/y128jBDvunT9a3Yy1g4DK9fih0gfLnDLb5cfC32Mma/8sB/Veyggwgi3WDyFTH/1Jc1u8un8+rYyUcZpinzI0phvo3qjbGXh3Cdj2l+f89NhXk3ovfEHiByXvFkXO/Dc0Xy1V7vC07LdAFBpBtGi4dEPYzkLKz4w8UvYi8fo0UIcBnvUO237aCZo73MpyvnT5b2A1/u8l4vkMZocU2WH4zWax/JY9ntEoJItwwXnxWz22IvM7ZCZmR2amFDvbok4+ts/s43mrfEdl7CJ0uTEZ93ed5aaHqlLC6a+awddJ/JYl928zlVvCGTz3Akr3sIIt3UIxf7Enx77GXCQ0ghH8r6PvghXeXTeL5P67/FSh7Mviq9cmns5WmkWOEbzfmxlw+zy3xDzvl1bFn7GjGZ58vK6qqQCbNPSZ9+OvbQBQSRblpY3O07hct9Qc7jFEh1lOEyn67MwtFmLCrCYdrLqk4GzMIthpfJUJH/o51H1eebXR576Zld48N8/pbI10jx1z7MaFmxm6QM673mFY6mGIJIt40UXxPRj8ReakMyXDTnPOdw8VHfEKT/FF0dLj7f/5YNeWqumvTqxTE8pRXCb5+e5/PuwVgBtq5PW77cpP/agrDsjvuyu7i4P1bQJQSROoRD0mZn+5KdZoE2+xd/hR1p8w4v9soFPu0j/ks8GSv1MvuOD0/3ebeiKjREOPVmeqb/Ap+LlQTs69IjJ7ZPtQHbKyy7Ku/35eeTsVI/s5vF5D3xYYHoMoJIXUIIMLnQF/CaT4vY9/yvfKH//CtioVnCbakjxWCcdzWf4rLrfUd6gf/862OhWUb1vhjkPuK/S83f0GuflrX+N2vCaUDkJ9zR96gvP2K+7lu9X0Fhtqy9zcz1ovQpiCBSp5Hi69KnJ/qCfnOsdJndJWNygiwqwjn6ZhspwqejE/13qumokn1OevVU35GGIyLNNVQ86vOuJaW8z5e77n/lenWhYb/vSM7mkDYm5criSV+ORkTlXb5cdf+oWrjbzGyRb6Pf79vMH8UqakAQqVs4TN2nx/pS/15//WOsdla4bdjsTN+RvlaWFk37MrQtC6dHxuQo/wXDlfX/O1Y7y+w632kf7xvAM6fUBWqjxdVi8mr//Zb6L9n56zXCd++EoyAmr5dhXRyrwOQNFzf7nupIX8bCkb0uhNvwrd92lage49uYS9qnhlArlUGz2K6PycHck+1a1itjdpa3Bn0lmFUVJ6H61LDEg84np/zK1LLdfd7N89Y5Pu92qYqTYfdJqf3ZPTG1G+aXc6RHRn09PM7nXW+s7rj2hYV6Ees0uq5ls2TcFvqye6ovuzNjdRLsLl92+z08Z/rMpxolzAIEkRzMs92kz+b6fHml9+JLd2q/tzXhUKLqcintTo+Uyz2ALPcA0v3D7zlplc+VcZ3rM2PdfHt59cY2VOed72y/zF8z2vNuen0SWlC+eP0yZzLXl6X9qje2IVz8LO1vHl7un1SXy6Lin9t1oC4t+48eSMI205dbf4keEN/Zhvaziar1Piy7C4vvtssgiGATF5ezPVTs7/NptqjN9sre/grpP5wqeFBMV/rKt1LG5X6u6t5Ef3mAb2Bmt+ed6WwpLMy78Kk/BLQHpZRVUvj865V7pl1o25rq6NyhPs9mxWVuL1/Gwjisr+FI20M+XunzbpXPuxU+73iuAvIxUB7q6/0sX7/Dej/L1/vnt+smD/vQt5kbrfd5Pr01NYIIAABIJmEW4GJVAACQDEEEAAAkQxABAADJEEQAAEAyBBEAAJAMQQQAACRDEAEAAMkQRAAAQDIEEQAAkAxBBAAAJEMQAQAAyRBEAABAMgQRAACQDEEEAAAkQxABAADJEEQAAEAyBBEAAJAMQQQAACRDEAEAAMkQRAAAQDIEEQAAkAxBBAAAJEMQAQAAyRBEAABAMgQRAACQDEEEAAAkQxABAADJEEQAAEAyBBEAAJAMQQQAACRDEAEAAMkQRAAAQDIEEQAAkAxBBAAAJEMQAQAAyRBEAABAMgQRAACQDEEEAAAkQxABAADJEEQAAEAyBBEAAJAMQQQAACRDEAEAAMkQRAAAQDIEEQAAkAxBBAAAJEMQAQAAyRBEAABAMgQRAACQDEEEAAAkkyiIWG9sAACA9I7yffNVsV2PtfJIGBVi9ut2oU6Fzo4tAACQ2rDe5sM1VacmWh2UCEdEHguNWpXy7NgCAAA5sJr3zVrlj2Jdo1ZqBBEAAPJS477Z1soMjUHE5NF2rV5/HMcAACAP9e2bTR6TIf1DaIZTM2Vo1IwjIgAA5KJlvaL6wtjrPq0uVA3CqZn7Y7tOB8r8co/YBgAAKa2RN8dWPUz+NbbaR0R+UTXrpC/x5HVE7AAAgJQKOzy26rI+exRSygOxXa/6f2kAALCpc8udfFjvwQF9KnsU0pviiEjbEfGXBwAAqewazlDoy2OvLhscESn0/8R2zfyXfqa8NHYAAEAKZq+NrfqY/Ci2PIgM6eNeWRn79VIZjC0AAFC3lu3uw7OqTo36dP2NMtV3zZjc0h7X7xgZKE+IbQAAUKcxmyeqIYzUyJbLkD4cO+uDyPfb49ppuEbkFPk414oAAFCr/nKuD0+uOrVaEcdt64LIRsVaqb5Nfu1hBAAA1KfHQ4jq82OvPrq5ILK4+K6nkTS38VYGpGV7xjYAAOimQTtaSvlA7NWrR/8+ttqqIBKku07E6RwZt8ulVfLodwAAummwfI3v9C8V1fbX8NfK5J9kSNc/3j14Koio3B5bieipMq4fih0AANBpC8r9fOj7Wj2oKtRM5bbYWm/DIyK3itn6+3qTMPuQJ7VzYw8AAHRKy3bxfX0IIf85VuplttqHt1adpzwVREaKf0t+VES1z2fSZdJfnhorAABgssK364ZLIETfHysprJBhvSO213sqiAQmG11AkkQ4Z6XyGRkoh+Si8pmxCgAAdsSC8mAZs7/1Hez7YiWVa+N4IxsHkcfap2f+V+ylo/oMf31Y+uRSGSxfEKsAAGAiBss3ivm+VDXF80I2YA+2LwHZjI2DyJXFkz78WtXJgGq4tehqGSgPqwoAAGCbwqmYATvdd/7X+s60/u+SebpbZLT4cWxvZOMgEpTyTU8u98ZeBvRQUfmfnur+RvrLHGYmAAB5alkhC8pTZcy+4fvOZf6Bfpf4TkL2ex98pWo/ncbxxvrtrzyitGIvH2bjPsWfkzEZlqVFmi/qAwAgRwPloT4Mp2GOrAq5sBtluDg+dp5m80FkwA7y//EG/2X2jZW8hFuAVJb75N8hpS2XPeUOuaB4Ir4LAMDUN1DuLSZzpfCX6VzfLx4S38mL2dtkpNjiZR+bDyLBYBlu8/lg7GXOwtGR2/wPssrH4YKYVVLoShkXjpoAAJqtkJn+muX7tn1EbbZX9mq3RY7M49TLVpjd5iHkqNjbrC0HkeoC0c/7L/niqgAAALC97Akp5XQZLa6Jhc16+sWq64wUd3lMuSr2AAAAJuIL2wohwZaDSFDKMk80/xB7AAAA22b2EzEPItth60FktPiN/0MhjDwWKwAAAFunelX7zMp22HoQCUaK63341aoDAACwNXav9MpHY2ebth1EglI/5v/wLbEHAADwdGY/E5P5MqTjsbJN2xdERvU+WSuf9B/wy1gBAADY1CdkpJjQtaXbF0SCxcVNoh5GAAAANqV2pYzolbG33bY/iAS9Go6KfDb2AAAAnP0PH3gIUav6229iQWRIV4vJFR5GbooVAAAwrdndHkAuk0XF/42FCZlYEAnC1/j2yGJv/VNVAAAA05P9VNQzwbDeGgsTNvEgEiwsvuM/3MOI3RMrAABgWrGHfLBYFhU3VP0ds2NBJBgubvZhCCM/rwoAAGBaCN+Cb+FISLEsVnbYjgeRYLgIDzr7sE/Qj6oCAACY0sweFpVBGSmuiJVJ2fK3707EgvKtnoz6/Z8L39gLAACmIrNfeHIYleGiY3fQdiaIBJeUR0nZDiOvixUAADBl2A99Pz8qo8XVsdARnQsiQctmybh9w//ZQ2MFAAA0nj0gpR7TftJ6h03uGpFNDekqMTlOzJb668lYBQAATWW2TNT37V0IIUFnj4hsaLD8gIeS80T1xbECAAAaw37jg0/IGvm4XFo8VtU6r3tBJJhfzpEe+Zr/mANiBQAAZM9W+r77jMk8qGx7dTeIBAPlc/ynnCEm7xXVF8QqAADIjv0/318vk0I+L4uKWh7N0f0gss5g+SofnuE/8vSqAAAA8mE3ieoyWaQ3xkIt6gsi6/TbcVLYpf6j58QKAABIxWyVD4elTz8tQzpeFetTfxAJ5pd7SI+83Vsn+CTw3BEAAOpmdrengOu8db0MFz+rivVLE0TWmWe7SY+d4FPhoUSPiVUAANAtZnf6fvd6b4UA8suqmE7aILLO+eXOsrMc7VNztJi8jlt+AQDoJHvQB7f4fvYWWeuv0SLcmpuFPILIhlo2U9bYm6WQd3koeaOHkpnxHQAAMBFmd/jwS9Kn18mQPlwV85JfENnQQLm3mL5MCguPjD/Ug8nLPJg8q3oTAAA8xcZ8P7nC9+x3e2eFlHp3t56G2kl5B5FNtWwXGZfDPOHt71O+n8/wOT6e478Gd+AAAKaP6k6X+30fGILGTzx03C8z5K72V600TLOCyJaE0zmrZVa73Suz28PS9hTVXdo1AACayGxcCl3Zbq+1lWI6LjPlYQ8cj7drjSfy/wExzytiBkJ51wAAAABJRU5ErkJggg==" parent="1" vertex="1">
          <mxGeometry x="308.64" y="890" width="54.73" height="40" as="geometry" />
        </mxCell>
        <mxCell id="BonBhimJJVAcB3Fh496H-1" value="" style="shape=image;verticalLabelPosition=bottom;verticalAlign=top;imageAspect=0;aspect=fixed;image=data:image/png,iVBORw0KGgoAAAANSUhEUgAAAikAAAKWCAYAAACMDwm+AAAAAXNSR0IArs4c6QAAAARnQU1BAACxjwv8YQUAAAAJcEhZcwAAFxEAABcRAcom8z8AAJqOSURBVHhe7d0JnGRldT/8c25Vd7MpiIAs0zNsKqKg2Ex3VXV1lyyDMz1q3DAxxgXf5K8mbkk0ikuESKIJJorGROMCJi5JcAdlYFisXqqqe2hFRIIKyiwIKsoO00vd856n6oDDTHdPd9+nqu+t+n3zmennPE3G7ntv3XvuszIBAABAUxSy2RNCon8PZmdfWdyy5S6rhnkE9hUWUCgU0lYEAABYloFc7qyQ5PPM9LywI/1vp/X3P9O+BfNI2VeYR2Ht2sNDCsfWrOo+cNuOHaNWDQAAsGiFfOZMEjmPmXMuZqJnCIUHH33Uqh9u3bHjd7X/CPaAJGUB+XxfD3HqIr2o+jXzPXN196o1R6/q3qYXFJroAABgUfLZ7Bkk7BKUfqsy/Cz9c+DqY46Z3LZt2/1WCbtAkjKPQjb7LM103UX1QqvSzJdPEZITV3d3P7Btx46brRoAAGBOA9ns6Uy1FpQBq3o8pueQVPc/alX3xI4dOx6yWjBIUuYw2Nf3VGI+T/+83KoeoxfaGr3gBjRR6Tj5KU/5/k/vvHPGvgUAAPCYwVzvafrMcAnKoFXNSV+Ae/RhvM9Tn/KU0s/vvHPKqkEhSdlNf3//ambXgkKvsqo9MT/Bdf9MpVKHdx911O3b7rjjV/YdAAAAymcyBebgPH1gFKxqYUx91XSQPvrY40a2bt06a7VtD0nKLk7v63uK1JvlXm9VC2N6Lgf8jDWrj3pg6/Y7/s9qAQCgjQ1ks4P1FhR6nlUtEuekWuVtO3ZcZxVtD0mKKRQKB4Vh6BKUN1nVYh0txP1Hd6/q0Ax4EhkwAED7GszlBphrL7unW9WSaGIzuHp1d3Xb9h3DVtXWkKSoTCazbyBVd1G93aqWhImeqH+vk3D2sGNWdd++dceOX9u3AACgTbglKyTFX2PitVa1LPpMOW1196pfaaJyvVW1LSQpRMEx3d0uQXmXxcvmBj8Rywmru1fft2379p9YNQAAtLiBbDYnQeCWrOizqkg0UeldvXrVbzRR+aFVtaW2T1L0wnoXM51voQd8DIm8eM3qVb9FFgwA0PoGc7msTTM+y6o84P1J6KlHrz7q9q3b7/iZVbadtk5SCrncnwnJ+Xph7WNVXui/l2biF6xZ1X34mqOO+vnWO+64274FAAAtpNDfnyEK3ZIVz7cqb/RZcpgIH3nM6tU/3rp9+y+tuq207d49+Wz2xSHJO/UiOMiq/GM5nFOpLosAAKDFhGHonqMd9cg/ZjotFHnnadnsGqtqK23ZkuIGN1EquIyJGnbSRagSdHa9pDg6us2qAACgxWzbsWP7mu7V27V4vP5ZXav0TBOVZwpLxyGHPeV7d7bZAqJtl6TUVpNNBxcx8alW1QBypaTkHSMjY1utAgAAWtTW7dtvX7P6qDtJ+ARiOtKqPePeznQws3X7jqJVtIW2SlLcWigS1qYaz7+abEQiMuJWGRwZq1SsCgAAWtzW7Xfc2t3d/WtieZa+BB9m1V6J0Nqju7vv3bpjxxaranltlaSsPvLI92uCsqy1UBZFaFIvovNHyuVrrQYAANrEth07blm9qvseYnoOEx1s1d7o86tT/+0Tj17VfYcmKm2xyW3bJCkDmczbOeDztNiQ31lIbuFANEEZv8yqAACgzWiictOa1avu15Ti1PpCn949SROVo7uPWvUz/d9q+SEFegxb32B/5o9J+J+0eFS9xjORbSEH7x0tlb5oNQAA0Mby2ezLmeQrzJy2Kq9E5Iags2ugWCw+aFUtqeVbUgb7+9ZJWNsq+2lW5ZUQ3a1/nT9aLl9sVQAA0Oa27dhx89Hd3fcRU7+G3pei0Gfa4RLOHrBt+44rraoltXSSksvlnh4Qu8Xa8lbl28NuMbjRcuVfLQYAAKjZumPH+OqjVu3UZ9B6q/KKiftWd6/aoYnK962q5bRsknLiiSd27t/V6VpQXmlVDRCeP1Iad91IAAAAe9i2Y0dFE4l9NaFo0Msyn7yme/XtrbpfXMsmKSccd9ybOOC/tbARPjZcqrzXygAAAHN66uFH/KCa4kM0UTnFqrxhooNI5CmrjzrqB9vuuONXVt0yWjJJGcjlXqZn7u8bNLLazeT5j6nZ8D133HHHlFUBAADM6Re//OUjx6zq/qkwrdHn0tOt2htmPoYC6lrVvfq67du3T1t1S2i5JGUgk3muphFuHMqzrMovkW9xKOeXJibutBoAAIAFbd2x4+6ju1fvEKFnMNMqq/bGtdKw0MPbduwYtqqW0FJJSj6ff5Jtl/1Cq/JKRCpBIOcPl8dvsCoAAIBF2bp9+7aj1xx1DwmdSszeF3vTp9TJa1av+uW27Tt+ZBWJ11JJypqjjnq3Zqhvs9AvoV8QB+cPlyotPd0LAAAaZ+v2O/5v9ZpVU0w8qKHXqcn6gr6f/rur1nSv/rEmRDusOtFaJkkZ6M+8VhMJ14qyj1V5I0QPM9WWu/9PqwIAAFiWbdt3TK5e1d2hL9WnWZVPR+lD64CjjztidOvWXyZ+obeWSFIGslmXkboE5Zh6jWdCH9IE5UKLAAAAInFjR9as6j6amJ5jVf4wPYtCnt26fcc1VpNYgX1NrIGBgW798rZGTO2qEfp0lfkjFgEAAHjBnZ1/JkKjFnql/+47Cv29GQsTK/FJCldn/pyZXmqhV0L0jRTzhaVS6QGrAgAA8KJYLM5KKnyHJhQVq/KGmdMiwQWDfX1PtapESnR3T39f3/P0RHxK/3hPtjRBuSuYmX3R98bHt1sVAACAV9u23XHH6u7uh4hpgIkOsGpP+Fhhmtm2Y8dVVpE4iU1SNDt8RpAKPqIJyrFW5Y1mtXdxIG8brkyMWxUAAEBDaBJx05rVqzqY+Ayr8of52ces6t6+dceOG60mURLb3SMpfoN+KdQj7y4aHqv8r5UBAAAa6uGdMxeJyGcs9IaJ9hOWN+b7+k62qkRJZJJSyGbPIaE3WuiX0Gcfnp7+uEUAAAANNzk5+XAYpDRRoc1W5RHnOODGPDMbLHHdPbVl7wN2043XWJVHci0Tn1eemLjDKgAAAJpi+/btv1nT3f07YuplIq8r0uoz89Q1q7rv3Lpjx6RVJUKiWlI+8IEPBPoTu26e3nqNP0KyVSj4eLFcvsmqAAAAmmqkXP4Osbiun6pV+cK1bp98X5/FiZColhSZnn6TZoN/a6FXmq393XCpfImFAAAAK2Lb9h0Ta7q7D2SmrFV5wcRHcMjpo4877sqtW7fOWnWsJaYlJZ/J9As3aBwKyScPO6ob41AAACAWgs7O94rI9Rb6w/S6cGbnH1kUe4loSVm3bt3+1dnpD2gWuM6qvBGhKyRVPX/Tps13WxUAAMCKci0da7q7b2OirCYWT7ZqL/RZemz3mqO2bNt2x51WFVuJaEnZ+dADr9aD+moLvdEs9UE9AH8zOrrlp1YFAAAQCyPl8rXE4act9OlkDvn1Vo612LekFNauPVyC4BvcgN2NNZ38i+FyZZNFAAAAsXLIYYf/sCOd6maiZ1uVF/ri/6zuVd23uYXkrCqWYt+SIun0BzRBOchCb4Tk8w9PzXzBQgAAgNhx66doQvEpfWj90Kp82VcTn9cXentXWRxLsU5SBnKZVwnRORZ6ownKDyikT+vJn7EqAACAWBoulcphA7p9mGld2JHy/oz1KbbdPf39/asDErdom/8dHJnOHylXvm0RAABArG3bfsfkmu7uw7V4ar3Gm2OO7l5949bt22+3OFZi25IShOHrNZvwv9kS0adHxiqNGIgEAADQKGLdPl43vmWio0nC1/f09HRYVazEMknJZzJnMkkjmqAm9AQjQQEAgMQplko3CIefEpGdVuUH85/s39kZy26f2CUp69ev7+KAz9GDttqqfJlxCcpwufwDiwEAABJlpDR+CTN/ykKfXp/P955o5diIXZLy4P33vJ6J/thCn1yC8nkrAwAAJBJ3dL5fiPyOIWHqC8LUmyyKjVglKYVs9llM3IgmpzFGNw8AALSAYrH4oAi9xUJvROSNhVzuORbGQqySlJDo9ZqkrLXQl4ddgoLdjQEAoFWMlsuXk9DnLPSCmdOaqLzDwliITZIykM1u1DyuAa0ocrEmKP9lAQAAQEsQos+TyE8s9IPpjwvZ7CstWnFxSVLYHRjfK8vqCfwRU3CJhQAAAC1jpFwu6ePzYgt9YWF51Zk9PQdavKJikaTkc7lXNWKwLFN4SbFU8r/VNQAAQAyEqdTnheRyCz3hjTNdXY2YwLJkK56kZDKZg1mkAQdDvhkGHb4zTAAAgNgYHR39DbNcLCL3WpUXmvi86rRsdo2FK2bFk5R0QK9ipg0W+vI7oeASPXn3WAwAANCShsfGv96Abp/+MGhEA8LSrGiScloudxwLez8ImlFeMlIqfctCAACAlqYPc9fts8VCL8KQXtXf3/9sC1fEiiYpVQpdK0rGQi/cSQr8Z5QAAACxZctseF2wlJmfGYThiramrFiSUsjlTtWM4lUWesPCl2BNFAAAaDcjpcqnROh7Fnoiby1kMsdb0HQrlqS4QTmapj3NQj9E/mdaBK0oAADQlljkX/TL/fUoOmbeJwzonRY2HdvXpipksyeEJD9yq9tZVWQiMhsQn1Qsl2+xKgAAgLYzmM1erE/311noBROf4nZhtrBpVqQlRVgu9JmgOPrv/SsSFAAAaHehyGeFZKuFXoQUet8raDGanqQM5vpepCnFWRZ6IUT/p3/9p4Xg2UAm8/aBXJ/XrBwA2pveV96cz2ZfbiF4NFqpjJHwlyz0golfPpDLeX12L0bTkxTRX1S/dNYjT4S+PFwu/8Ai8MglKBzwR/WC/0w+kznTqgEAlq02cYLpo0zyFb2vrLdq8EhS1S8Jic/n4hOJwpdZuWmamqQM5nJDLhuz0AsRqUgq9WULwSNNUN6gCcr7Xdl1zwVMH6tvBAkAsDxu3Q2h8J/dPYWZruSA/q7Q35e3b4Mno6MTN+vLpddnY601JZs93cKmaGqSohemS1D2rUd+CNOXR0dHf24heFLbBTOgc7V4cL1GMT9Tj/i79CLNWQ0AwJKkpHqe3kwGWehSEa7qg29tKPzv9aEA4FU6/SW9Z19rkQ8HE0tTW1NS9rXhXF8Wi5ynD7ouq/Jh086Z6vm//OUvH7EYPMhnsy/QlPk8vXnsMUVc337WMMkhR3d337B1x467rRoAYK9c97F++VPh4P16j1nNTC929XqvOUz/PrZ7Vfcvtu3Y8QtXB9Ft27btwTWrutN6gP/AqiJjojWrV3VP6HnyOjB3Ps1rSZHw5fqEe4JFXmgm/uUtW7b81kLwYCCbHQyY3q0X4klWtSfmPxCWv8lms3pjAQDYOxuH8iq9gfyRvrD26T3mJfatR2mdvHcwl8taDB7sd+CBrjXlqxZ64BJKatqA56YkKfpmfoZekH5/KaH/OWzVKoxF8UhvIs/Rm4jr4umv1yyEz0lrolIoFLxOJQeA1qP3iYNCkTPTqfQbNXw9M720/p3HY+bTiML39Pf3ruh+Ma1k06ZNU9WqfNJCT+RNhd7eVRY0VFOSFP0feZlefU+yMDIReZA4/PKll15atSqIKJ/PH6s3kXM1mVz0SHsm/muZ2fkuCwEA5qXPgcur1dlz50tQfo9fEISp96zkUuytZmx8/Hv65PxvCyNzg57DVOqvLGyohicp+UymoAfHbysK05eHS+Pftggi0gTl0KBadTePV1jVEgR/k8/1vckCAIA9TU+vEpYP6NNtUYMu3b1IAnpPLpc70qogolD4a1b0gkleNpDJ9FrYMA1PUgLm1+kVd6iFkdWWvw/pQgshovXr13dxtfpuveL+1KqW6omsicpAru8PLQYAeEx/f/8zawnKkpef4HPSFL7nzJ6eA60CIhgtl7/qdfNB5tUc0NkWNUxDk5R8JtOvacXzLfSD6fPFSuVWiyCih+67z7WgRGq2Y6Kj9e93Dfb3rbMqAADK53tPDCRcRoLyKP6LnZ2d7+3p6emwCohAiD5tRT+ENrihAhY1REOTlID5DzTbOsLC6EQe0H/Va5NVOxvM9WlyIu+2MBImPoWE35XP9/VYFQC0MZegcJg6T19iIr1tB0zv3L+r4z0WQgSpzs6v6nP0WxZGx/zMoFp9oUUN0bB1UnK53HH6hu4uUG9dPXpEvjJSLrttqCGigVzmT1n4A8z8RKvygI/VROVJa44+8vpt2+641yoBoM0M9vU9Qx8v5y1vnNtcOLe6e9XUtu07SlYBy7B169awe/XqtD6X9zJ4eQlYOg457ClfvfPOO2esxquGtaSkRV6gB0IvVD+EaEozwK9bCBEM9mdewULn+hwr9Cj31sTV1LvQjwzQngqFwgESBP/hL0Gp6WTif8KGhNHNhuHX9In6HQs94DP236fjBRZ415AkxQ3G1KTC8w8tXx+uVC6zAJbJzW2XkD6tCUrD+hH13D9/qqPjHAsBoE1ogrJPOD19hSYoDdmLh0n+q7aeEyxbpVJ5RCjwuLibCqlhXT4NSVIeuv/+F+hF6nnHXIxFiSqTyRwcpoN/YuaDrMo7ETp/pFQ+ZqRS+ZhVAUCbmJqa0tuLVCz0Tv/xfYTCD+fza/fYsgMWr0rkWlOutDAyYX6hW63cQq8akqSwiN9WFJGvjZRKSFIi6kjxXzDxKy1shI8FnZ0ftjIAtBn3lt45NXOBkHzcqhqAn8/V9JstgGUolUoPhMKftTAyJjqQeY9tDrzwnqQU+nszeoF6TVL0wYoEJSJ3XiiUv7WwAeRy7uh8Z7FY3GkVANCGrp6cvE+C9AUk9Cmr8k4fiG/WN/e/sBCWI5UqipC3Vi997q8f7Ot7qoXeeE9SRIKNzHyIhZEJ0WWH3XcfkpQICtnss0RSH9Lz0pB9dkRkhCl4vyYos1YFAG1sdHT0N7PMH9QH1+etyjd9d5U3Y22m5XPniDm83MLI9IScQCn/Y1O8Jilu0JQIuw2kvNFM7/OX3nzztIWwRGeffXZKEz33xvG8eo1nIncK8ceLpdINVgMA4LoUfhlU5YN6j/iiVXnlHooSBm/u7+9fbVWwRGFAl+n52WZhZCLBC93sLgu98JqkhDNTr2Mmb60o+iuXZkWGLYBluOuO7efop9lr4rgrTSL/yS23bCEAwGOK4+O3c2fXm0TkeqvySp83L0pJ+JcWwhKNjo7fqEfxKgsj0/PxvOrUlNeZXT6TFP35/E47FuHLKpXK7yyEJXJNoSz0Tgv9E/rcPg8//BmLAAD2UCwWH9SXmXcIyQ+syitNgN7oFqe0EJYoFHHDKbwtxOZ7Px9vSUqhv7dPf7yNFkamF97OoLOzYQOvWp1bD4VC/gtNHRs1Ve97YSr8+OYbb3zIYgCAOY1WKkViukhv7PdYlTduWjILu4G0DZkC2+r03GwSIn9jU4TXFbLZEyyMzFuSIpLyugsuE39WM3Asrb5Mkk79tX56/8BCrzSBfFDPzzvrTYUAAHs3Mlb5gt7YP2ehX0zP1r//vlAoNGRyQKsLhPwtlMrUXWXxNqDZS5JSe2sXOstCH6Z9ZnbtZjCTeY1mEv+fhX4JbRcO3lQslRrSxwwArYtD+rSbDWihV8yUD6enzrMQlqCaSl3uczqya02xYmR+WlJSqXWaPZ1oUWR6sC4fKZe9rYbXTgYymV4J6M36iX2CVfkjck/I4YdGS6WGjNYHgNZWrFRuDYgvttA/5jcXstlXWwSL5H06MtOZhf4+LwNovSQpwuKzFcX9UGhFWYZcLvcECmqryq61Km/07aeqF54mKOP/blUAAEtWLJcvFqK7LPTKrXwaMv1TodDjcZZpe/A8HXnfMAy8tKZETlLy+b4eIX9NOyQ07pqeLIIlSIXha/VD+hoLvdIE5cJiqXKhhQAAyxZWw1f67F7Yld4DD5fpzo9aCItk05H9LfnBfp5FkZMUrgbr9KJ4soWRubEorunJQlgktzMoM/+ZhV65fTi6Hnz4AgsBACIZGx//XtDZeZreXP7HqrwSppfks9mXWwiLJMzftGJkmhccXchmX2zhskVKUuojqT129QhtD5jRirIMIvIavSpOttAbTRq/QamOD2OqMQD4VNvni/k/9ebl/aVUH5D7ByyvPWPtWm8v0O1g/9nZzfploh5FF3qY5RMpSZGZmbP07f00C324CsurL91ANrtR3xy8d/NogvKzIJB/GxkZudOqAAC8GS6VvquJypcs9IxfMN2R8rqwWKvbNDFxv77wukTFE15X6Os72oJlidjd428utCMcejw47cHtl6RfXuOzy+1RTHJJcbRytYUAAN7xbPWf9YXofy30ionfNJjNnmIhLIIIbdbz4WW/PH0uPTVM8ZkWLsuyk5QGrI3y/ZmQkaQskUxPv4aZXmGhRzJc5RSmGgNAQxUnJnYEXP2o3nNKVuXTycLyOivDIrjVgfUF1eez+HT7uizLTlKqqVRe0yRva6PoBXot9ulZmtqu00zvt9CnTdWqfGBsbMzb7pgAAPMpjk1UmMO/dqtZW5U3TPzWQi53qoWwGOKzwYAHBwZ6j7FgyZadpDDLkBV9kDAkLN62RDIz9V4mWmWhH0KfHS6VN7jR91YDANBwLlERTSiE6FdW5U1I4XvP7Ok50ELYizBVdV0+d1gYiT6jjqIwWPa+SstKUgYGBrr1f3rAwuhENo9WMPZhKdxgJLezqIVe6EW5gzs7G7drMgDAAkbL5Yv1TvQ+C71h4hdPdXVgEO0ijY5O3MxC3lpTOFx+vrC8lpTqzKBmR5FG7O5KmJCgLJEEwfvc7p8WRieyTZOev8SmjgCwkkZKlc8Kyd9o8ZF6jR+1QbSZzEkWwt4EPselyMDpfX1PsWBJlpWksHhtRflNQAEGzC5BPpM5Uz9xXjcQDFneq28xX7UQAGDFaKJyIQl9wUJfnkvMf25l2AtOd/2vvrjebWE0zE+bZl5WgrjkJMUWx/GWpLhWFKyNsnhuAT0OyO+Sz0JfHC2NYyYPAMQGE31SSLZY6IUQvdytK2UhLKBYLM5qcvFlCyNj5hdZcUn0OliafDb74oDpGxZGxkKvdxtOWQh7MZDJvJkD/oSFXug5eIaeg1ssBHicQjZ7QpXoeL1ZnKB/nq5Vab1oDhHhA/S2f4Defdxmbmn9Xm0QtxvbpF9mSUTfwvhBZnlQ30bcG9lO/d5t+ueWFNGtuOZgbwaz2T/Xp9QnLfRCr79LD5yaft3lk5MPWxXMw20toM/7Sy2MRERuqHIwWCqVHrCqRVlykjKYy7q3+LfXo2jcdLOgs+vQ2vLIsFduZ89wuuNnmpEeZFWR6Qf2rpFS+QgLoY0V1q49vJpO5wOWHg2P12vjBL1ATtDrLV3/L/zSz7++qdEtehO6VcNbQpIfp6o0Whwfv73+XwDUVtS+jpmeZ6EXodBLRstlb/vUtKpsNntYmqXIxCdYVUS8sbbK8BIsKUnJZDL7dgTkfuC1VhWJ3qQ+M1Ku/D8LYS98JoiPEqFzR8rlD1sIbaSQyRxPzGtDIvd51j+yVhOSrvp3V0YtcSHaonemLULBFv3Ztuib10/q34V2pEnK85nk83qtHmlVHsh37r73/pfefPPNXlZWbWUDucyn9Znv6TktHx4uVc61YFGWNCalIwgGfCUoTkA8YkXYi8G+vmfoDXyDhb6MBWH431aGNuB2yx7MZT6kN/5yyPR/wvRlfUv9S/2TX+kExXGtNvonq/eZtwYk/5UmuWUgm9nifmYsyNWe9CXqSiG+xEJPeOOTD3rCSyyAhQ3bVw944Oyzz05ZsChLSlKYQp+zerZTGCJJWSQJgo1683bjAbwJKfwUmtZbn9u7RB/yf6OJyVVC8gP9JL9bk5KMSwjsP4k1/Tk1OeF3u0GU+ntco7/Hu/P5PtclBW0iELlYX9K8Pi9YAiQpixB0dH1Nj72vlYD7f71jxzOsvChL6u4ZzGXdKqSFehSR0JeGy+U/sQgWkMlkjuoM+Ota7K3XeCD0hYemp/9scnJyxmqghfT3969OheGZeidep2+hZ+oH3Q1ubSW/02t4swSyOaTUZmzh0Po02X69PrE+Z6EP0yL00pFy+TsWwzwGctkv6D3E00778q7hUuWfLNirRbek1PqvfSUoSjjEAm6L1BHUdpv2lqC4rJir1fchQWk9bvCrG7sUhNUf12/o/EctmKA4B+vv94cs/Fn9XX/ofmf3u9v3oAXpS+3n9cumeuRFJ2PzwcVh8dflI0t7li06SQlT9AIrRiZEv9U3oAkLYQGFQuEAPU2vstAL5uADbudRC6EF6Fvm2oFs9h8lnRrT8O3Mbnpwe9Df1c12e7v73d0xcMei/h1oNSL0MX3J8rgqNp+ez2S8vXy3KuHqiB77uyyMiHsHBgYWPaN08WNSlpj97MWw2xvAyrCA6vS0a6o/08LI9EIbHS6V/sVCSLhCf39mIJf5iLBcykx/o0/sY+1b7Ud/d3cM3LFwx8QdG/sOtAg3iJaJfQ72P5gDwtiUvRgd3fJT/eKnNYWpm6rVRecTi0pSCj09h7BQn4WRBeR3AFQr0wTl1VaMTN9AHtIb+UcshARza+a4Lo4wrF6nN+2/1j9r7Fttzx0Ld0zcsal1A+mxsm9BCwhF/ltvZndaGJneY188kMk810KYD/vby4cpXPQLxKKSFOnq6vX4hvaI/s8iSVmEwVzuRXo2X2xhdExfGimVvmURJJDbbn4wm31bON3hxnS5bh1/m0y2GDs2b3fHyh0zbNXfGkYrlaKe3f+x0ANNatGaslcBBTfoi25oYVSL7pJdXJIi4rGrR4aLpdL1FsCCwnM0y198l9xe6OXlZXljWBmD/ZkXTnV2XqzJ5sf0Afxsq4a9qB0rPWbu2LljaNWQYKFb30noFxZGJ/SSfD7/NItgDvbc9jOWVKg339t7okULWuwD8Pn2NTIRHrUiLMDNphLxN1jZ0WTTreYJCdPf3//MwVzmQv3sXMyMN77lcsfOHUN3LN0xtWpIoNHx8XFNPP2NTWF+ZlCt4rO1N+wpSWF+Aqd5UY0fe01S6ktn01MtjEwflBUrwgLCgN6sb4DeFtsSkq2pIHjIQkiIfCazPhA3XZ/fwURuB3KIoH4M+R3umLpja9WQQGFQWy3b5wSMl+RyOY9L77ckf7NyJfCTpAhRr6+boz4ob5kOQ0w93gs3iMsN5rLQC/33Lh0ul71uew6N4war6xv/B4OA/0fPHdb/8MwdU3ds9Rj/nTvWVg0JMjo6fqM+VfyNTWHqS4mgNWUBXJUJErnHwkj0M9i7mCXy956kBD6nHvOEut8CmAcHLkHxOFtDZBvGoySHW+dDOjs/ptfA+zR8Yr0WGkCPLb/fHWusrZJM3NH1cfG5bgrLm60EcxgeH/+ZZheeunyo51d33LHX/GLvY1J8ro8iHpuKWlShUNhHhN5ioR/MXx+pVHDsE2CwP/MKvVF+TD/AXhfwgwW4Y63HvHbsIVGKxeK9TPzvFkam/9YJA9mstzGYrcjnkA2hcK8TABZMUmzXUV/rowj77M9qUTI19Qqur6Dph9B25qrH6XrQKAOZzNslpC/prTJnVdA0nHPH3p0Dq4CE4KD6bSH6lYXRsZxmJZiDUOBzdu5eWzAXTFJCqj5LH5h7b21ZBL2IbsOYiEVg9voB0eN+aXFsAoOVY6xQKKQHs9nPcMAf9TlYulH0TWqnXle369frReh7WnO5XmiXPO4PyTfd99wKx/bfelzKvDHcsXfnQM/Fv7tzYtUQc7X7m8i3LfTh9Pp2JDCXKtGE+0xbGNVJ9nVebF/nNJDLfJKJ/9zCSPRm9YmRcvmtFsIccrnccWkJr9W75WqrikQvpB16/l4xXCqVrQpixt0MZWbqYv0ovtyqYsMlI/pzXa83iZu0/BNhvjUlckuxUrnV/pMlqa38Ops6vip8fEDspgAfL8Sn6r9/dP2/iBP5Knd0vbpYLOoxgLgbyGY36jn7liaaex2IuTjhHwyXxn0mPi1Fj/f/MFPk7lF3j+FQTq6NdZnHwklKNjOsJ33AwkhC4lePlkpftBDmoEnhn2pS8RkLoxP62HC5/JcWQcwMZjInSUDn6jl/pVWttN/pXeN6TRyuD4i2ULV6fTM2ohzMZk8Rlh4WPlVIvzK7buYVpz/LVzikDw1XKj+yKogxfXB+3dc6QnruLxopVdD1Nw/XLepaHS2MJBR64Wi5fLmFe5g3Senv718dhOEP9aRHHh/hmnolVe2zTYpgHoO5zDf0lHiZeqzHfDaohsdgt+N4Kqxde3jYkXL77pxgVSvCXSeaFFytN4ovpDo7Ly8Wiw/at1ZMoa/v6DAIXq4/3av0Z3uOVa8IfVjdFMxU1xW3bPG0Ayw0ykB/5rWa6F5iYVQ3dszMnn7Nli2/tRh2Mdjft44kuMrCiOS84VLlfAv2MO94E01QTvKRoDiaCU0gQVnYYF/fM/QN1tuurfrw+x8kKPFUyGZPCDvS5ZVMUDQ5uUFC+ctgtto9XCpv0DeZ/45DguIUx8dvHymXPzJSrpzC4vqs5QLXdWnfbio9R8/SczXizplVQUwJp7+tf/vZqZfo5Nl0+nQrw254OvyRHutfWxhN7TM+v4UGxT7DvkbH9H0rwTwkCE7XZM7bol3CcoUVIUZqLShM163cOAz5pj54T3EJwEil8rG4txAUy+Wb9C3r/SOlcncYyrr6QN3m0nN1vDtnhd7eVVYFMTQ6OnqP3vi8jSPRxBhJyjzsvuGpG5RPWr9+fZcFe1goSTnFvkbGwkhS9oLJ67S38ZmQkKTETCGXe06YTn/eZzK6SL8Tkv8gDs7SB/5LiqXSDVafKKOVytUj5fIZLPQKTVb+V0Sq9q2Gc+dM0sFn8319PVYFMcSdnZ/W68LLYGf9zPxJoVDALuPzYj9JCtPTHrn//nlbU+ZPUnjvU4MWaUb/YODZAtzDy+fUY72Bb6pUKr+zEGLAzeIJRT7BTBusqjmELuFQ+kZKlTcMj41tttokC4vl8qWarPxhGMqZzW1Z4edzEHwM01Pjq9ZlyfRlCyNh5gOqMzOxm3UXG+LxuS6ytCTFzTrQNwdfScqP9KZyi5VhTqFLUA6ulyP7nYQhWlFiRB9qh8j09Ec1QclbVeOJfIs4fNlwuXzOcqcMx93Y+Pj3Hp6ePktY/lTfnkesuqHcOdRz+a+ZTOYoq4KYCYSvtmJkTCG6fObnLUmRBfKN+VpSfCUofrOtFhX67PsUuqK2jTnEwvr1x3eF09Pn6t3uT62q0b6v18DbubPrdcNj41+3upY1OTk5MzJW+Zyk0q8TofM9LjI1P6bXdgZ07pk9PQdaDcTINNE1eh14eu7wafl8/lgLYBf7HXjgjfoy5GVCjCzQczN3khJ4TFLQ1bOggUymV8+Qv64eDJiNlYfue/K5+vb9VxY2ltBnuaPzjOFy+SK3p4nVtoXR0dGfj5TL5wXVWquktzfp+fFfTHd1vNsCiJFyufxrFj/XgBvgzjLrc7xgy9i0adOUHiA/s3ZF8oV5VnlueEuKsKfBNa2K+XR9iO1vUVQTGDAbH4Vs9pXEQcN3VRWSW5j4zzU5+bN2S05256Yvh0HKDaw9X298XraUnx+/dTCbfb0FECNCdI0VoxNGl8/8vGx1w8z7hFNTz7XwceZMUvQDXrBiJG6hqKCjw9e89RYlf2gFD+QqDJiNh3y+ryckeYu+iT3ZqhpELmdOvbVYKnnbCTbp3FRU16riur30z6RVN8J+miC+pdDf17yxRrAoev6/o4mKn7FYIi/FYOl5hB57SgJ6qpUeZ48kJd/Xd7Ib1WxhJMw0rG922PtiHm5lTZ8rajIFX7MirLAgDC7Qc5u1sDGEPsUdXWe3yKwd74Yrlf/kavXF+tLVsA023ec3DIMPzddUDStI3I7i0bm3fJmaWmch7IK7uq6zYnQii0tSgjQdb8XI/A1eak0h8/OtGJ3Q+L5PfOL/WQQrqNCfOVe/rK9H/unn6j598J47XC6/CS8BC6utupxOv0JEGtbSVJvxMzP1txZCTGhycY2e9ykLowlozq6Idue6l113s4WRMPFxVnycPbt7wrmbXJaFkaQsyOOFH+qLY20gE6yogVzuZRLSWyz0T2g7C71npFz+sNXAXoyMjGzvmp45V2+m/2hV3mnS+JZ8LvcnFkIMDJdKblq6lxc3EUaX3jyY6DYrRiLEczaQzDEmJfC2R0UQMqbCLszfqr6a1FoRVki931o+oq9wR1iVV/pW+GA1DF8zXC7/m1XBIl09OXnfSKnybk0m3mlVXulb+0FMcmGh0HOIVUE8fMe+RqLn9ukDAwMN+VwnnbexP0xPzefzT7LoMXsmKexrTxH59b7V6jYLYDdu7I+eXV8tKd+vMmOA8gqTmakPuCmLFnqlN4K7AuKsW8DMqmAZRsrlj4RCr3SD+q3KGz33h8t054cshFjgshWicS8es7Po8pkL+0lS3CSDoFrdozXlcUlKJpPZV2+GXrp79I3ltk0TE/dbCLvhFD1X375SFkY1XCqVHrAyrIDBXN+QEL/aQq/c2C6m8A1usz2rggjcjs/M8i5v4xV2IUxnF7LZF1sIK6xzdraiz6KfWRgVkpQ5BFVPLSnOHINnH5ekdBIdr9mMl+We9d/x0k/VutjjBo7o6llJrptHE5Rz9Jp/ilV5ow/S2/Qm+w/DpXFvu7uCy+rH/0U/Od7H9eg1cKCQvG6uZmtovmu2bPmtnhRPrSn+uudbibtHWTG6YM+JO4/v7knNPQVoWTw1AbUs8XPB6w3xpikRdPWspJkpTVDY/0ZkIncGxH/v3vytBjza/8ADP6QJ4Ect9If5DyicfZ1FsMKEQi9T0JnkuWesXdvgdY+SZ3h8/Fa9V3kaPLu3JEXmHl27HN4G07Qgfct6mn7x0nSoD8dxLOC2cgqFwkGhcEOmn4bEby2WyxdbCJ652XBBZ+ff6N3qm1blDQv9LQbRxkOKUmV92/cwVZ/XzHQG6PLZk3hrlJA9h5vsnqR4a0kJOER3z3yqVTcexc9S+ELftxKsAJmevpCZGvAwkgtGy+WvWgANUiwWZ7mj69W+X6rcbB8Moo2HYql0g54RP10+IZKUOQn/wkpRnWpfH/O4JGWuppbl0H/nPkpX0ZIyD/Y49ThMhY1c9hsWMJDNnq5X+8ss9EfoSzw1c5FF0GCaqDxYm5ostN2qvBCSl+ez2TMshBWk91wvXT76bEOSMoeQ/eyGrMl9OpfLPd3Cmse3pJDskcUsj9xZLE7ebQHsyc+FLvTDVGofJCkrhFleqn95HSApIu6N76LiJD4/zTRaLn+TWP7VQi9ca4reYP2PVYIlq4bhVVaMSM6yAuwq9LNontPB1UOtWPNYktLf379aP1R+9uwR/qEVYTfZbHaNpvV+Bs2yfN81V1sITTSQzeaE2Gsrir6l3aUfnouGy2UvO4vC0kyH9Ak9CZ+z0BN5mV4rgxbASkmnf15r4Y/IJZ75TMbLBrwtJS2/tFJkUuVjrVjzWJKSEvEy9djRiwHjUeaRIjqFfe2MK4xWlBXCTGfreTzcQj+EPjlSGv8fi6DJKpXKI9zZ+Y5asugL86F6nZxjEayQsbGxbfr58rJNSwr7+OxhdpZ36JdH6lE0+vl7XC7yWJISinhb40H/R7BnzzwCFm8XeBAESFJWwEAm81y9xr0u2CVCVwSzs5+1EFaI2zBNb2AXWOiJnOVa3iyAFaLJopeN8PSzj3O5GzfDVI+LS1Qi42CeJEULa6wYmV4Mv7Yi7EaEB6wYiV4QdxXHxhq2BT0sgPmleo17W/5eRB7Uz9/FxS1b/L3Bw7IFnZ1f0KTx6xZGx3yk/u1/gDUsCXPoZSakXhurrAi7EvGSpKi5kxTlr7snNevrh205TLLaipGw0CYrQhO5dVH0Cv8LC71g4v8ulsuXWggrzM32CZg/pMmjx/Fe8ueFtWv9dg/C0njblZ+PXr9+fZcF8Cj205KiL+BzJynC3pKU3z3ySIgkZQ61Bxw/flDQcukNFIOTV8LM1Kvd4DmLItPzeIN+wa7GMVMsla7Xm+4nLYxMr5l9ws4UxqasoI6dsz/SD1zkTW+Z6fD777+/IRuJJhlLbVxKZPoC7nIRrke7JCla4ytJ2TE5OfmwlWEXMjNzkhWjY/a1aRYsQSj8Civ6IfSF4XL5BxZBjAQz1Q9rEulhpVIj9MdWghVw9eTkfb5aU1Ieh0e0ED+NE8xHDpx66mNdar9vSfGUpIh4+kFbUCjiK/sOA5GfWBmapNDfl9e3qB4LI9MHYLmDCN08MeXGCOn59rZ2ChM/K5/JrLcQVgTfaIVI2N+9vHWwvx6UoCt4LB+pJSmZTOZgby0p7G3wTMvRY+wl+xaSnxYrFazo22RhGKzTL/vWo+iY5avXVip3WAgxJMLfcIPULYyMAzrTirACQqEJK0bDcoyVwEjop7vHCSX9+CSls56geLn5BuzvB2013maECHlZghgWb926k/fXpMLfA0ZoXFKdaEWJuZFyuaSZyjcsjIyJ12Wz2cMshCbTB95WK0aiyauXCRCtJOjqutmK0YXhEVaqJykex6PoP47unnmxn5YUvdGhq6fJHnlw/3V65L2tj6Bv518dGRnxulcMNEaQoq/rU+kBC6M6Oc3iWuRgBYSp1O0icq+Fy8ae7uWtpFgs7vTW6sjy2KattSQlDMTb1LjZMPS1G2LL0RPopSVFPG3mBIunH5SNVoxMhO4OOju97hMDjVMcrVytbwZFCyPTl0KvCwHC4o2Ojt6jX26vR8vn7uWFQiFtITxG7rRCJEzBE634WEvKwbXIA+4QLOQ2h0wmc5SvMSmapSBJaSI9d/tqYpixMDJmucS9dVgICSAUfM2KkekDbm0+n3/cJmrQRMyRX6RrvQ9TUxg8uzuhyK1UdfLYxq21JEUPuZd1H/TDd//0NLp75tLB7BKUjnq0fHqM7+sIQ3T3NFFnEJzqZmZYGJk+8DZbERIiZL5WP3teBqvrtbQmCMO1FkKzCXlp7a/W7+mwK2YvSYowPZaT1JIUEV+LU8k9ExMT91sAu9AbnFsa24ffXDs+/isrQ1NU/T1QRK4aKZU8bRsPzeI2qNO352ss9ABJykoRlsjdPQ4HmIa8p+jjfWp2yUnqLSksXpIU9tbU03r0gn6qFaMRwiJuTcfeHihCjFaUpGK51ko+IElZKRK9u8fR5x2SlN2w+GlJ0ZO0W5IifGDta1SemnpakqcLWt/mfmlFaIJ8Pv8kET8PFCH6laRCtKIkFO+cuZa8bUfBp/b392Ma6wroCAIvSYp+ntHdszv21JKyy9YjNibl94NUIvEwtatVeRs0y4IkpYk4DNcy83EWRiM0Pjo67mXFS2i+4uTk3cI0bmFUT0nR7KlWhiZKP/DA7fphjD7BAy0pe/LVkiK7t6R42zANLSnz8ZV1600SK5Q2Efscj0K0xb5CQrHwpBWjE3/diLB4m2+88SEhjr6/HHO3leBRnhoq3Cau9R3nLUnhXbKWKMRXU08LYuITrBiJVP2smAiLFeStEFkQVK+2IiQUh/6660TY27UFS8Me1kpRB9hXeFTgMQfYubOepJx99tkp/eqnJcXboJnWohnhY6vnRZaW31gJmkB8rcYs8vP0tGDQc8IVx8dv14vCT2sKk9vp1brcoZlE6HdWXD6RA+z5CUYk8JcDpFL1JOV3t99+EDE/oVYZkbDcZ0XY1c6dvjLuMJUK0d3TJKf39T1FP3XHWhgRb7lmy5bfWgAJpvc5L0mKvs0fXchkPF1fsBRMEvmzyMz73PPzn6M1ZReB+BszOVut1pOURzo6/LSiqBRaUuYWBF4uZH2r/2WxuMXbjqywsGoqdYTeiPa3MBIRqVgREk/KVogu5W9LElg8YQ8tKSrs6ECSsouAecaKkQWpVGfta4eIt63nq0ToiphLEHrqTpO7rQRNEFL4TCtGxkGArQxaBFPqNitGVhU6yYrQXF5aNafTaS8vMa0inJ2dsmJkgUg9SaGg6i0T1CzqISvCLqph0GXFiPhBK0AzCHtrik8ReXuwwcri2Vm3zoaXN8aA/F1jsHgs7CVJ0WsBLSm7qHZ1eUtSQg5rz81gdpb3qdV4wOJnB8RWw8xeLmQmiT5tDhaNiTw9QGTr/VNTP7cAEq44MbFD/MwOIfGYCMPiheSnu0dv7khSdnHQI494bEkJ6i0paWZv201XU1WMVJ9T6OdCZkKS0kzsZ9CsCP18cnLSW18trDx9IfOyaqleHUhSVkDAnlpSghDdPbvY99hjp0SkamEkYWDdPRLUsxUfghl/g2ZaCYunwZdEj1gRmsHbVgaMrp5W42G7/xrmY6wETcTV6nYrRhKGgZ8tZVrEpZdeWmVmL60pHHK9u0ePsqfxEkSpIJi2IuzKV3ePeFglERZNk8LDrBiJ/js/sSK0CBE/3T1MhIfcCphNp0MrRuKmIVsRHiXiJUmR37ek1As+THmcftRa/HT36MMOSUqTFAoF1w2qzxAPRB6wErQKkXusFNkZa9c+2YrQJF3VqpcuCX3dx5iU3YjvlpRHCz50dHSgJWUO4qm7hxgDZ5voAH1L8vLZ4BQhSWkxPs9pmE7jQddkmqP4SVJCDJzdk/eWFPLWktLx4INoSZkLi5/uHrSkNE1qasrfgDgRTB1vNR7P6bSnxR5h8apdXV6SFGbBwNndsPhpSdEE0FpShL0lKQ+iJWVOeoz3s2IkIuylHxX2bqfHB4dIgCSlxfg8p0G1igddk83OzvppSSG0pOxOmPx091C9ASUIWXx194RdXV1oSZmbl72R9KRhdk+T6IPD281Hzxu6e1qM13OKtTaarlKp+FknRTxtztta/OwFSGGt0SMIPLWkiMh0sVictRB2IUReBsbpSfNy8mHv9Jx5O9YchtguosX4PKehsiI0yQt6evy0bmOc4B58DUt4dN+0QB98XvbuwVSsBXm6kAM9/9AUafKXcGPMQevxeE6DIEB3T5PNHnqol+4eEWwFswfx0zujx7beklKLoLGY/FzI/rrmYC/SkvI3jgRJSuvxOmYJA6ub7ZFHHvGSpASMc7c78TUrkuuzhDRJ8TQADGtBLMDPhexzkDPsRRh6u/kIzaKbrsX4PKepIMDbeJP5Gpqgb/vo7tkN+25JYSIvM3KEqMOKsBtNLrw88AQtKU0TdnT4e3BUMTCy5fg8p2hJabrC2rWHWzEavJzvyVtLig2c1QeflySFmTttlU7YHYuXB54mO0hSmqRarXp7cOhnA0lKi/F6Tj1ea7BIqZSX8yeBn3t7KxFvLSlBvbtHsxQ/C6/ovzU1NYXWlDn5eVPShBLdPU1SKpXczcdPUy6Wzm49HpOUamcnHnRNJsx+uuuwBtLjrD/++C5N4L0kKQFbd0/oqSXFOWBmBg/Rufi6kNGS0kyhHnAv5y2U4ClWhBYRing5p/rWOfXII4/gQddkvpYYSKXQVber+w87zFsOED7a3eOxJYVmDjgALSlzEA7vs2IkzOJlbj8sjpCfQXF63p5uRWgRHs+pTE5OYhHM5vOSpEiIQc+76ujo8PYiLWE9N9EcpZ6t+DCDlpQ5iQQ7rRgRP8kK0AQs8lMrRiJCR1kRWoTHc3qDfYUm8rZYo8dZgK0gNTXlLUkJAmtJCcN6v48PHdUqkpQ5pIg8dffIIVaCpuCfWyESJj4ag8pbR+1cMh9jYSR6bdxmRWgi9rTpq3QgSdlVVcRbb0p1lmpbFwTKW3cPpiHPTbjqp0mQ+VD9GwvwNYlez34eIEzdNDV1tEWQcLJz5zFMtMrCaFi8JMKwNHoT9dKSMjubQnfPLkLmw6wYWSpdzyeCMPTX3VNNp9GSMhd/q5cenM1m0ZrSJByE3h4gkhIvb94QA+m0t4RTCEnKSghFDrRiJOVy+ddWBKXH1du4yeos1cZqBeKxeSYdhp62v24xHvstU6kqkpQmYUn5e4CEwclWgqQLQ3/nUgIkKSuAycOMOyzktod0ELjWfi9SzL91X4POdNrbbp7CfIQVYRfVdNpfk+Csv4sAFvbI7OzPRehuCyMRlh4rQsJ5PJfTQbWKJGUFCHsZ+IzxKLtjPshKkUlHx73ua8DVaq3gRRh6+wFbidfVS4MALSlNMjExcT8zeXmIsFBPLpfzM6MAVow7h+5cWhiJ6+opTkzssBCaSp5qhWXTl3Jv4zlbh58cQET0sVnPTYJqV9d9WuFlsyX2mEW1kkqlUhul7EcVD7qmkm1WiIb5aR1Ex1kECVU7h3ouLYyEiW61IjRRT09Phx77gy1cNib5sRXBhOIpB2C+t1Qq1brTgmKx6N7yvbSmVFmQpMxDfN2QhDBLpIn0ZjZsxcj0ZeAMK0JCeT6HZfsKTXRAOn2UfrIjz0LRe/pWK8KjPOUALPJYTlKfzqpZS+1rROwri2pFIjdbKSI+0grQDMKbrRQdy/OsBEnl8Rwyh9daEZqoyuxlIT59gUGSsgd/LSlWsiRll6wlErSkzI/pditF5GcRKVikzs5b9e3Z16qgJxUymeOtDAlj5+6kehRNrWU1ve8tFkITBSk/qwULCZKU3Ql5ygF2b0khPy0p+u8gSZmHHmhPSQrW22imYrHoxmttqUdR8RphPt0CSJj6ueM1FkYkW/Ta8nTfhSUR8bIQX8BIUnbHvhoqZLeWFP2H/XxYvGVRrUf8XdBH9/f3r7YyNEHAgackxX1ECONSEsrnudMbr7drCpZGJHp3j4hMhcEskpTdiL/hCI+tQWPdPZ7GpKC7Z15SZS8tKcyc4moVrSlNpDek6/WPlxlwxHR6f3/vsy2ChKidMz13FkYmFFxvRWgyJorcGubGo4yMfP9OC0GtX7++i0X2tzASIXlsRmw9SfHWkoLunvnMuO4eTysUcoAun2YaLpd/oHclL7Oz9OZ2SFANTrMQEsKdM3fuLIxEiO4aLpVGLITmO8G+LpsQoxVlN/fff/8qfYv2tNjobt09+pboZUVUYXqiFWE3bq0UYT+tKSQBkpQm0wfUV60YHdNrrQRJ4fGceb2WYEkG+/qeqkli5CTFtaRYEUwHz/pbDZ3lsZXw6y0pFPhZGl/kkELh2WhNmZencSmMtVKaTepTkb1sxsnMzylks6+0EGLOnSt3ziz0gK+wAjRbmk9wXeYWLZ+vF84WIhQca0UPgse60qy7J/SyP4me/AOC2QO8TO9qRSy+WlLQ3dNsI+XysB54b2umhEwvsSLEnOdzVXxoasrf2juwJCzRW1GcEC0pexLyMmvK0cTkDivWk5SAf18R1WwYevtBW5CfwbNExxUKBezh02QS0tVWjE7kpYO5vhdZBDFVO0d6riz0gDdPTk7WtqCH5tPk4hlWjEQfnEhSdifs5dkvImGYSj0+SQkD8ZakUOBnDnor8pZ9Mx8ZTk9j6/8m0w/OZv0EeRnRX2tylsDjww8aQs+Rl+6BuvvDatVfogtL56clRaqMgbO7E/bTkqIv4TtGRkYe393z298+eIfefL2MS2GPTT6txmf2LSyYxtpkY2NjP9ZP0LiF0TG9tpDLeRzrAD7Vzo3fQc4To+Pj/q4fWJLT+/qeog9AH0nK7Xov8LPxaEvx00Ahu3T1OLUk5eabb57e/RvL5qnJpxXpm7jr7nm4HkUTCKMlZQWEFHzNil6IyLsLhcI+FkJMuHPizo2FXgiJ12sHlmaa+QRifpKFyyaCrp7dnX322SlfDRS82/CTWpLi7P6N5fLV5NOKRkdHXWuVn8GzTEhSVkIQXKkPL39rXDD9oUxPv8YiiInaOdFzY2F0QpNBVTZZBCuAAz/jUdjXjvYt5Je//OVRmkQcYWEkc7akON5aUjw1+bQuudEKkeiD8uR8vvdEC6FJaomm0Nct9IPltdh4MD5q50LPiYVe6P31q8XxcUxbXUFMfKoVo8KWBrtJixxmxeiEd1ip5vctKd66e2hVoVA4wCLYjd6svm/FSJg5naqm0JqyEjo6viYkHm9UnJMAC7zFRf1ccM7C6IRu5DBEV88Kct0R+mLXY2FUP7CvYKp+xvrUsMgvrVjz+5YUT909+vA8iKan0ZoyDxH2kqQ4GDy7MkZGRrZTSF+20AsRekchm32WhbBC3Dlw58JCL4TCbwyPj//MQlgBd23f3qPPpsiD1PUl80fc2YkkZTeaWHhrCQ7n6+4Jqr66ezSr8rQVdiuaFfmBXuhemn31ZoqWlBUi6ep33Q3Lwsj0BrpPyHQhun1Wjlsy3Z0Ddy6sKjqhmyUl/2sRrJAgCLy1ohSLRT+bjbYQJvJ230rNl6Qob4OBGGulzMvt4aMn9BYLoxrEzJCVMTq65af6API6NkWvi/VhQG+xEJpMUvxmdw4s9IPla6OjEzdbBCtEyFNXTyhoRZmDr1Z9EdlZrFQel4s8lqRMEbmtkR+pR1Gxt/6pViRCY1aMRN/4DpCpqQ0WQpMFnZ0f0w+Vnx3EDRO/NZ/N/pGF0CTumLtjb6EX7trgjq5/sRBWiM/xKILxKHuo7dcndLiFUe0x1u+xJKW2Sy/RfRZGom8jz7QizEGTC4/jUjhjRWiyYrGoCQr/vYXeMMln0O3TPO5Yu2NuoUf8j/VrBFaSt/EoIrdNhyGSlN1Uq/scp8fXzzYtTHuM3dq1u8fdHCtWjESw6uyCJJX6gR4kT8urC5KUFRTMzn5Rr3evu9q6FrKQ+d8KuZyvKZMwD3eM3bF2x9yqPJErKZ3+ggWwgnyNR2GmH0xMTNxvIZhA+DgrRsd7Djt5XJKifI1LOd4tQWxl2E1tXwL2MxVZH5B9g9nsKRZCkxW3bLlLP0QX61vWg1blhd4Q14mE787n1z7NqsAzd2zdMXbH2qq80GthioW/sOv+I7ByhMJBK0YiwpNWhF2Jv0GzQch7SVKEvUyTc28l08xorl6Yl2ZDPdZdwtJnIayAYrl8KRNfbKE/zC/jMPXuwtq1vvp7wbhj6o6tO8ZW5Y1+Ji/Ra+IrFsIKci/LQuRlfywOwh9aEXahx9fbs17/rYWTlLn+g+XilL8fvCWFflpSHH1rQ5fPCtO350v0L+83MU1+zgk7Uu/OZDL7WhVE5I6lO6bu2FqVN3od/IQ5uMRCWGGzaS7oeY4+kUPkTp7GeJS5MJGX7h7NP+7izs6Fx6SEQXCra6q0MBIWPz94q0oxf19Pym8tjERIMoVC4SALYQWMVCqadDagNUXpTfZtHcwX5PP5Q60KlskdQ3cs3TG1Ks/4kuLYmJexfRCdCBWsGIneq3/gunYtBFN7efLV3SN0a7FY3KPb/HFJim0/7aU1RU8qWlIWcF25vFUPkq8un6dXp6bQmrLChsvli/TL1fXIL2b6qyCc/Q9sObF87ti5Y+iOpVV5pS941wednR+xEFZYodBziL4se0lSFFpR5tBF5DYWPNLCSJjlcXv2POrxY1KUfoB9Ld+MJGUv9FjfZMXIgoD6rQgriDl4v3tYWegZvzicmf4cBkovnTtm7ti5Y2hVXuk5/7Ge+7/BaqTxEc50FfQD6Wc5DMYibnMRZi+Dks2cK3jvkaQoLy0pTHxcJpM52EKYQyg0bsXIXLNmT09Ph4WwQlxTv56L91voHRO9Qli+XOjtxTT/RSr09R3tjpk7dlblnRBfMFwqXWchxACLeFk9WBPQ2aBjnysthMc7yb5GN8f0Y2ePJEWIbrNiVAd3BcFqK8McUp2dl+sHYKeFkTDzwAFdXdhwMAZGK5VNmqh4X+TtUW4gYJgOvj2Q63udVcE83DEKU/x1L4Mn56Hn+qOj5fJ/WwgxUHtBZuq1MBJm+uZcYyVAsXhLUqS6yCSFhH9qpcj0Aexvu/MW5C58vXl628Jdj3fD3hRhaYLZ2X8Vkq9a6J1eN6fo/8rHBnOZvztj7donWzUYd0zcsXHHqH6sGkW+Q+nqJyyAmOik2lgULxuwivD3rAi7cPvGaYLuZZiBPrserE8+2NMeSYrPGT7KX1NQi9Jj7bOJ+HTM8omH2kwAYffwurFe4x8THah/v38mnb5oIJPx8tbYCtyxcMfEHZv6MWoMIfqZPsA+MTIy8QurgrhgHrJSJHp/ng06p//HQtjV1FSeve0YziNW2MMeSUpthg+zl5UShSVvRZhPR3it3uxutygaph6Z3Xm6RbDCRsrl4VDove5GZ1WNwfQqCvhb2JiwvlGgOxa1Y9JA7pzqW+R79BxjrELMDAyc2i0kWQujYf56sTh5t0Wwq8BrI8Scg2aduQbOujVOilaMhIlXn5bNrrEQ5lB/C/PYmiKMJCVGRsvly/Vz8A4tPlyvaQwmOjxg+spgNvvfg7mcl7fIJHG/s/vd3TFwx8KqG6L2ds30Hj23DevOg+ULqp3r9Q3fy6yegNDVM5/QY0+JMC8tSVHz/j8s0ROrIl76BVuZUHCtFSMTojNyuZyXeevgh1s/Rd+6P2xhYzH9IUl4yUAu85HBTKblu1vd7+h+V/c71373puB/KJYqF1oAMROKbLBiJHov/ZVUq0hS5iM+k5TZpSUpC2U1S+a3SagldYbhdfp65mXAsr61n6AnFa0pMTNSLn9Qv3ysHjUY86F6Hfy1MA0PZPvOa8VxSu53cr+b+x3d7+p+Z/tWYwl9Ss/lByyCmMlnMgVm8jL1mEW+Nzw+/n8Wwi70Rfjp+pnz8mwXkpvGxiaW2JKSSv1IRHz1wyFJ2YtrK5U79CMxYWFkAYUbrQgxMh2KS1Q+XY8aj5kPYg4+EE5PjQ5ks+cVstln2bcSy/0O7ndxv5P73dzvaN9qOL2Z/gd3TjdsDRyIjgNyrShe9rnSBBitKPMIRE7i2oKzXrgEJawX9zRnkmJbjPtpTRE++eyzz05ZBPMJ5DIrRSbEpw1ms2sthJioVCq/447ON4vQqFU1heuf17fLD4QkI4O5zAcLmUziVoN2P7P72d3v4H4XX2MOFsuds6Cj620YRBlfAwMDR+jNz0srip7wO9MUYHG+eQQsPVaMTnjBGZDzjUnRO5unJIXpxF/fcQdaU/Yi5PR1rtnLwkg0w3Xbk7/AQogRt2y6voWco+f681bVNPVWB36fBHzjQC5z2UAm8/Y4j1upjTdxP6P+rO5ndj97M1tOHuXOlTtneu68LLwIjRHMzroBs14WtHStKNeVSj+xEHYjwt6SFE1CFnzuzZ+k+Bs8634jJCl7MTo6+hs9Hd4G0GqisrH2ZgGxU6xUbtW38jfo0++LVtVs+zLxCzjgj+rN+PsuCXArs7rl4+37K8b9DO5nqSUm+rO5n1GvZpdwe2nCXzKhS9y5cufMaiCmQq519XjBWMBtXqfVxqP4Wc1X3a9JyIK5hj7L5lbIZk/Qm4SvQUMfGy6V/9LKMI98NvvigOkbFkYWEv+/0VLpMxZCzKxbt27/nQ8++B5mOlfDeT+LTSRqUhOY64VlMqDg+mKpdIN9ryEKudxzQgpP1YdCj5Ccqm/C7g0tJseCPrTPAQf8w+bNmx+yOoip2v5MqcDLonp64ncGnV2HYin8uWlu8GrNDf7TwqjGNDdYcD21eW8GPT09++3X2XGj3jSOs6plc/25I+XygIUwjzN7eg6c7uy8Rs+Kn6Y0kW8NlysN2fUV/HFdGvUWg/jRz64bg3Gr3ihuEqLb9M+tKeZbqVq9l/bZZ4frvqr/l3MrFApp2rlzFaVSB1VFjtd/x/05Tv8dN4j3eE3QDqn/l/EiofzlSKXSnNlYENlANvvPei39lYXRCH1puFz+E4tgN4PZ7Cf0GfVmC6MR+pQe6zdZNKcF31gGcplv6FuVj4fctP47fY1+K2sFg7nMhXpa3OJfkekbQZUDeeHw2PgVVgUxlc/1/QkLX6wvBWmrSgy9zu4l5nstrBM5aCXGj0Slv8usEL8aGwYmhyb5z6WAv6YPMy/dlULyZyOlymcthN0M5LK/8Hesw3NGSuOXWDinhcak6L+w8KjbJejUDz/2FlkUf6vP6kMiJVLrz4eYGy2Nf1Efjq/Uz0lTZ/744JIRd9N63J9kJigj7hwgQUkWDuhsbw9N19XT0YXzPw+3L5bHY12VYO9jXxdMUvQfKVvRB3T3LMJwafy7etz9tTgJvb5Q6Illkzo8Xm2ZdaG3CXnr74VFqh1zobdjqftkGezre4aeO39d2kyfx1iUBaS8DZjVlxsaHx0dn7RwXgsmKakwvEkzlV9aGIkwPTuTyazMCP2kYbnISpHpG+0+4XTnGy2EmHPblUuQersIna/J6uO7UMA/kXtqx1qP+XxbxUN8SRC8jIlPsDCqR/SR+C0rw1zEX5KiT6dFLWC6YJJSnJjYocmFl5VQmeikNPn8BVtX0BFu0htnxUIP5OX5/NqnWQAxNzo6es9IuXyee7PXEA/Oxvm+O8buWLtjbnWQEAO9vcfoC91LLYxO6NsjpdJVFsFu3MQOn0kKy+Jyi4XHpDjC41aKjAMkKYtRLG65S5O6b1oYGTM/Owg7zrYQEkLf7L/As9U/0OKmeg14tMkd2+FKBV1rCcWp1EuZ+BQLI9N7LlpRFjC9T7pXnyVPtzASIbq7mkotKrfYe5JCflpSHL0IkKQs0izzN/VE+tvcSuQVtUV4IFFca+ZTjlr1AjfjQMOxei1EMOaOpTum7thaHSRMYe3aw322oojQ5genp5GkLEDCoM+K0QndMjo6+nOLFrTXJCXo7JzQf/BmC6MR6q1dXLBXJbcks/hb2E0zxJNnNVGxCBLk0ksvrbopkWEw+3q9Jj6kd1S3txYshTtm7til3ZTHymfdMbXvQAKFHcF6vanlLIyO5X8nJycftgjmwEwFK0bGLFdbca/2mqTURjqz+OnyYV4tHQFaUxbJdfkI0R0WRsd0tltJ2CJImNHRLT8dLpffEwq5ZOV/rBr2Ro+VO2bu2A0Pj//MaiGh3HYfTHyOhT58n1KzV1oZ5pDv6+vTZ9GghdGxLLqHZjHdPfoZl2EresDYnXeR9Ka6hUn8jU0hOkkYrSlJN1qpbNJr44/0wfsSr9PVW4w7Nu4YuWPljplVQ9LNzPyh3s38PTBJvjUycv12C2AOHAQD+vzotDAS/Vze1jEd+k1SKOQb9R9ecPnrJTi9tlQ2LEoo/A09qw9YGJlmw2e7tQUshAQbLZe/WeVgkIVeL0Lfteq2546FOybu2LhjZNXQAk7LZtcQsyYpfuj98PYUpzAWZe/8rXPGPH7Nli2/tWivFpWkuPUD2NNUZP0JczIzg4XdFklvstcIe5zpQ/wsSjFaU1pEqVR6oFguX/zw9PTZmtG+Vm+6l9m32k7td9dj4I6FOybu2Ni3oEVUWf5Qn0UZCz2Qb183NvZDC2AOg5nMSXqcvLVcLXbq8aMW15LiyOIWXlmc0GNTXesLq/J5K3qhb5pvxwDm1uIG/bnptCOl8otcF4dWXe2x9TO27Hfc5H5n97u7Y4ABkK2pUCgcIMRed9MPhP/dijAPCajP5zYXLPIdKy7KopOUkKhoxcj0IYmdeZdgbHx8WA+atyZJd8GFHalzLYQW47o4hkvldelUOqOfNT3Pcq19q2Xo7/U9/fu9TJzT33UDunVaXzg9/W4m8vdyJfLFYrl8i0UwDxY604oeyLXFSuVWCxZl0UlKKgxvECIv6wroQ/KZg7lc1kLYu1DY3wBaRy+8Vw9mMi+0EFrQdaOjkyPl8odPW/f8dfpQXy8k/0xCyW3aFvmx/v0xvXo3Pjw9fdZwqfIPbnB5/ZvQygay2eczic8ZPa7rG2NR9uK0XO44/eJteIYIj1hx0TQxXbyBXPZL+v/wxxZGI/RuvcH8o0WwF4VC4SB9k/gGMz3PqiLTpPPSoKPzNcVicadVQYtzg9arU1NnBgEV9IbxPL/9+/65GTr6M14dhnRNqqvre7hW249es/uE01Mj+nJ7qlVF5q6rkXLF22q1rWogl3udJocXWxhZKHSmG2dp4aIsfkxKjSw5C5qPvtVhXMoS6M35XuLwCxZ6oQnn2dXpaXS9tRG9jmZrU5hLlXNHyuVsGKSerp/FP9E/F+mnsqT/yUz9v1wRmje7QXXySQnldVQNT3QPEv1Z3+l+ZiQo7Ummp//dZ4LiCMs/WxEW5G/8qAhVfnfffY1tSenv739mSkK3ZsrB9ZoIatNquTBcLv/AamAvzli79snT6dR/6gd2yKoi0wtnlNLV14yMTPzCqqCNFQo9h1SnOk7VG8PxHNT26ThBM4dnaex1oLX+m25/qpu0eIsmJLdpfIvbdR1L1cOuBjKZ5+p16DZb7ajXRCci350RenWlUvmdVcEc8vn8sUF19ipidl0+0QldqM/7v7Fo0ZaUpDiD2cw39Yd2m55FJ/R2/aH1DQ4WayDX94f6GvAFTVS6rMoDOU/fVs+3AGAPbmYFzcycUKXqCXrTSJMEh+hb1gF6He6v16OWKa2Jxir33+r3XaIxSyx36wPhIaLgQeJQy8HOFPOt1NFxS9GtZA2wF4O5zFf0ivojC70IQ1k3Wqkseln2djWYzf4//TB/2sLoWF40PFZZ8hIJS05SNLN9u2a2H7UwqqvdLAQrwyLpxfMZPXN/amF0IreFQq/VDy42sAOAWPD8rDFyub6QYcLAImiCeKmmCC+3MBJ9gflR0NE5WBu2sERLHJOiPzLzmL4deekb1h/8FNecZyEsEofh3/s6BzXMxwUBvdkiAIAV5QZ469Pp/7PQC71nzrLwOy2EBeiL8Foh9taAwCTDy0lQnCUnKfUpf0ufRjQXJnqyJj1oSVmi4vj47Xr0PM+M4j/SzPlDZ599dsoqAACarre394kyM/Wx2urYPjFdhHVRFollnT6fD7QoMqFg2TnDkpMU422WjzsY+vdyf462FXR2flg8rVvze/zuu3bswJsGAKyYfdLBuXov+gsLvRCSmwIKvmghLMC1Yon4azwQkduqEXKGZSUHYRj6S1KIzxjIZtGaskRuOiYLfdBCb5jp7waz2XdZCADQNAOZzJvdy5KF/gh/oVgqYcfwxZiZeY7P9biYuFwqlX5p4ZItK0k5cvVql6T4G2RZb02BJRoul/+jNoXYrw69qj48kOt7ncUAAA1XyGZfrA9H79t16Jv8dR0iX7EQ9iIU8bNgqwmZr7TisiwrSbn00kureuqvszA64dfWBkrBkgmRG5vif76/8PsGstmNFgEANExtVVmmC4n5SKvyRoj/7dpK5Q4LYQG1jWfZ5149dGNntbrZysuy7LEgofD3NEPVZCU6zZ4PCWem/tBCWILRcvlyIfkvC71h5uOY5K36dnOCVQEANITMTP0VEx1voTf6EnfpEffd920LYS+qHR1n6nk4ycLI9Nm0+drx8V9ZuCzLTlJq6+8zR8qQdsUeB+q0m6Bj5gJNGJc1vWtBzGfph/xtFgEAeJfP9/UI8Z9Y6NP9TOEXL7355mmLYS8CCl9mRS8CCv7bisu27CTF0SzpKit6IOtO6+9/pgWwBMXi5N3M9CEL/WJ6xWA/dksGAP/cSsZBGLxJ396fYVXe6PPpi8OlcbSiLJImi3160Pot9ECuPeyooyJvexMpSeng1FUksuxRu4/DfOQsVdGaskzc0fUv+qFsxBoAB0vI73F9xhYDAHgRTk25AfpeF21zRGRnMBs25sWtRQUhv0Cfw4daGJkIb66PX40mUpJy3djYj/VN2+2c6kfIGJeyTMVicVZCeouFXjFTJpye+k0+m8WOyQDghWtFoYDfa6Fn8o/YrHLxBgZO7RYhfy3mIvdIKvQyHCRSklIT0jesFJl7GA5m0LWwXPVNs+QjFnrFzAfo+fG8jwYAtKtwevod7Hl37RqRq6qc8j6ZoJUF1dQL9B7/bAsjE+LNo6PjkxZGEjlJ4a6uq4Qkcr/ToySgF1gRlmGWgo9qRvx1C73SG8rRhVzuTRYCACxLIZt9lt7t/9pCb8Ttz8PBe0ul0m1WBXvxgQ98IAiF/T53WbxNqom8T8vWrVsfXtO96hgmzltVJCx0RPfRRxW3bbvjTquCJdi+ffsDa7q779aMoleTCm/9i7s4tHvNkSU9P7+xGABg0QqFnkPCMHWdvrkfZlUeyQeHy5UvWwCLEM7MvIiZ3m9hdEI/TROff/uOHfdZTSTRu3uUGyDja80UN4C2NoAHlm2kXL5WKPwHC33rDcIUWlMAYMncop0y0/lfrlXWqrwRoUrQuc8FFsIisYj3VpTryuWtFkWm14ofA7nsFfqPrbcwGqHJWeYXRVnvH2rbbX9Cz/CbLfRpWm8If6XJ0CcthgSoPSCmpz+hxcTM1OKg+uni2ETFQkg4vSf9td6TvI+bE6Jbg0DeVBx14/JgsdwKs2E6tZ2Zva34zlzN+vzMektS8rnMXwbE/2JhdEJvcHvTWATL4FaLDZk+oSfZ5zLHdSK36RPkr4ZLJaxDkBD5XO5PggasTtxI+vD5z5FS+bUWQoIV+vvyYchXuEH4VuWNhPKWkUrlXy2ERRrIZs9jpg9YGJmIfPfwVd0v8jH1+FFeunucVEfXxW5uuoWR6c3pHCvCMhXL5Vs0cTzXDSazKn+YjxOSi2p7PUAiMMkGKybJxkJ/b8bKkEBuDIo+DEdEgpFGJCj6tLgcCcrS5XK5IzVB8dzVQ5f5TFAcb0lKsVi8l4k/Y2FkmI7sR7FUul6Ppr9BUbtw/cqSTn0h39fXZ1UQU4O5XFZfc4YsTAy9xp6sD7fE/dxQpw/C48KZzk/q/dzLxIrduZmlzKm/txCWIEXVs/RLTz2KTojuCjq6LrHQG29JiqM/5Hf0y0w9ig7Tkf0IOjv/VU/OFyz0i/msIMXvG8xmT7EaiKVwg77FHmRBwvDGQgEtdkmTz+cPTYucq4nmK6zKKxEJWfhTxbExjFlaokKhcBD73i9J6D+KxaK33pRHeU1SRsrlKzVRudzCyFjoBW7zKQthmfTCeVC/uEGuE7UK7/gFet7fj72X4imbzR5GwklujXhuOJXaaGVIiCCs/i2x/yXvH6UP2S9j3OLyhLNTL9MjeIaF0YncGTBfZpFXXpMURxMLb0mKm47MVX6JRRCBfpi36Llx/bb312v8YqaXVMPq+wcH+55qVRAT6UA26B092ck+JzrJajsD/ZnXNnJcoYiMMNE/WghL0NPTsx+F7HW3Y2G6rD60wD/vScpUGLouH59v7C+vr04IURXL5f/Sy6lxbx7MfygzwectgrgIW+EBLxvzmYz/WWrgXW1PHuELNInY36q8C0P5W72f3WQhLMEBnZ0v05dKr4PoOfTYOLEb70nK+Pj4r/SG4hIVL5j56aEmKhZCRNzRda4IjVron8jXrAQx4KZ9JnRWz+PofaArQGtKIsjM1N9ogrLKQu+E5B/Hxse/ZyEsQW2tJBK/rShElw1XKg3p6nG8JymOuKxKxONCbOJaU06wACJwuyXrDeStekyvtCo/RB7Q95u/HqlUPmY1EAPVMBjSJ/wTLEw42VjIZI63AGKo0Nd3tL4EvdNC7/QBe1PQ0XWehbBE4czOl+n94A8s9CKgxoxFeVRDkhR9UH1f2OMAWuZnojXFn+Fy+QfVqnxYRMpWFYn+Ow/qWTp/uDTubzE/iGxgYOCIVmhFeQzz04QZA2hjKp/J9EuKP6f364asaKz3meuZgrc2YgZJ+wj8tqLoOaGOmeQlKY7eHL11+dTJy/AW5Y9rLmWWD+uryc1WtSxC9FAtQSmX/9mqIC5mZob0gfEci1qEDPX09HRYADGi19oF+vfpFnqlD8OdQSB/OVwqXWdVsET1rl8620JP+FvF4pa7LGiIhiUp+lZ9uV5Y37UwMnezDZnRmuKRnqNv6zH9kCYaO6xqqR4OSM4fKZe978UB0fkeHBcLzGft19WFsSkxFIj8o761jFvojd6fHtYT/47i2HjjxtK1AQmDN1jRCyG5RROIb1rYMA1LUlQoLF+xsh9MbysUConZHC0JRkulL+rV9mEtLmlqsnuz0av+74qlyoVWBTHS39f3PH2gt+bDXEJ0+cRQsVLZREF4vha9JipM8k/YzDSaQi73HD2Qnhdvk/9pxgyrRiYpVJXgKn2YjVgYGRMdLtPTf2EheOJuAJpQukRlUfScTunZOH+4PI51CmIqCALXirJvPWotrMlX7aYLsTM8Nn4FcS1R8bQMhXzyoakZvAhFFJJ4HcwsRD8LONXwVhSnoUlKuVz+NRN/1UIvhOTlp2cyR1kInoyMVT7spvZZuJBpvWrODzo7P+U2DrM6iJGBgVO7iZO3T88SHCVURWtKTNUSFX2J0fvJFqtaFhH63xnhCycnJx+2KliGwUzmj/UF/48t9IJJvlYslW6wsKEamqQ43Nn5b5p1eRtYo29RmRkirELrn3RNzXxIRP7d4rnooZfzAwk2h9M7314sTt5t9RAjPNuxQV8OWnwBRB7K5/NPsgBiZrhU+i5JlERFrpVU+E/6orvVKmAZzuzpOVCf8l4TFPWLMBCvjQ8LaXiSUl+XI/TaXKeJyuuwbop/V09O3hcGKTfj50tW9RhNXqp65M+XkB4OJfxM0LkPBsvGVku3ohjOcTiLAbQxNlIuf6eWqLhpqkugL7U/4pAuHB0dn7QqWKaZri5NUHxP25evNfPcNDxJcaqc/mrUpr/HYeoRlldZBB6NjY1tYyLX9fPYOjciFOpB/0ei8FQ99h8MiF9tmxZCzOSz2TM0i2+9WT1zQ5dPzLlERfTlRjOPxT3UhO4MhC6sDcKFSPr7+1drgui3FUVoezNbUZymJCn24PP7iwm/aiCbzVkEHrkR28FM9c8em5oscon+ndVE5cVM/D7smRFfXG9F6axHrY6H3NoPFkBMjZbLl+v9/7y9JSr6QJ1llgvre4xBVEEY/rHeEHx/Plwrivdp5gtpSpLihEHaJSnfr0ceMB2jF7TvvjYwxS1b7tI3mnWaqHxZj/VrmOk0vclcMlwuX2T/CcSMW5K8jVpR9LKkA0UCdPkkgCYel1MgbtbPvM8AfQG6sFiqfNRCiGAwkzmJfPc2iNwZSnNbUZymJSmjo6M/19/S6+ZzIuRaU9Dk2yB6Y7kl4NANpN0pJDdxZ+db6t+BOJIgGNIH9zMsbBcbB049tdvKEGPDY24TutANpv2BVf2e0GfDVApTjT2RgF7lf/A8f3W0UhmzoGmalqQ4YVB1WdiN9Sg6Zj7IskW9N0MjuFUeg0A2BMKvxDiUmOMW2qdn8U6mdBqtKQnhVrnWe8kf7zrj0+3Kri9Af6kvsvdYFURQa1EVepuFXtS64kQ+bmFTNTVJGR3d8lNhv2NTNFt8ZT6XwyDaBnKJCsahxNtANvt8vdm3Y5Li3lbQmpogtRZaodNcouISlKCzcwNegPyRIPigvsB7XZldn7OfLVYqt1rYVE1NUpwg3fkJzcrutdALpvBdhUIhbSFA+2HZoDemlEVtRobymcx6CyABaolKKANIUPwqZLNnC8mLLfRD5Cd6b/mcRU3X9CRFL0hNUNx0Vn9c35tMT/+5hQBtxe0OztI+A2Z355KzoFX3KWph7s0cCYo/p/f1PSUkOkc/DwdYlR9MXy6WSkta68anpicpjmbPHxOi2y30QpjOLRQKB1kI0DaqAW3QG8nTLGxTshELPEI7mwkCTVC8d/mOc0hftvKKWJEkRbPnnRQufkO7xWC3+eDM1HstBGgX3M6tKI9hPlZffDA2BdqSWzOMSc6x0B+hL6/UWJRHrUiS4gRdXV8SkW9b6IUQnzOYy73IQoCWp9f7hga8PSUTy1Amk2nJnZ8BFqIv6edoou63NVXkKu6cXtFWFGfFkhTXF8lBbY+YmXpNdHqinkwSvl5vVAdbFUCLa8tpx/Pg09OY6QNtppDNvloa04rypThsIrtiSYozPFb5X9ecZKEfzH/Qwfx6iwBaVi6Xe7q+7WDA6C6YcTygfZyWza4JNUHxPbNPhP6Xu7pWvBXFWdEkpSYIv6SH5NcWeeGavvL5vj4LAVpSisMNbiyGhaD0s7+xkMudaiFAS5utz+Y5zUIvRORB5vBLxWJR//mVt+JJyvDY+GYS9tyaQidyiNYUaF21dYFCTLvdEx8mFKLLB1reQDZ7ekMGyzJ92a0MbNGKW/mWFKWZ4JfcgjEWesHE5+RzuT+xEKClyOyUGzC7zkJ4HB7K5/OHWgDQkvTz/079a7WFXojIziCkWO2hFIskpbZQjGZvFvrSwRK+vraPAUCrQSvKQnpZZnF8oGUNZrNv1S/eV1nWxOfDKz3leHexSFIc7uj6JyHaYaEXrq9OUvz/WQjQEvL53hPbdDPBxRPM8oHWNJjLDeiXN9Qjn+SaKqcutiA2YpOkuAXeROgtFnqj/+Y7CrnccywESDyupob07zUWwtyGCv19z7MyQEsoFAoH6EPtDW7cpVV5ISJT+m9+fmxsbJtVxUZskhRntFz+NgldYqEXzLxPSOEHC729q6wKILHWr1/fxWhF2Ssm2l/QmgItRqanXYLifdd/Jr54eKwSiynHu4tVkqJCIbpYs7rbLPZCT8ALJB00oHkMoLkevvde14pyuoWwEOGhgd7eYywCSDQ3m0fYfzePkNykXz5fj+InbkkKjZTLw8z+D5i+Vb0xn82+3EKAZAroFVaKHbe+gvtj4cpzTeLp4AyLABIrn88/Sb+8gYmeWq/xR5OAzw+Xy1ssjJ3YJSmOpDouFqJNFnqhic8hAcsb3bb2VgWQKIVCzyEi9GILY4eJv+n+WBgP0ogBhgDNxdXqG/QZ5v0FRZ+z36COrtgNlt1VLJOUkZGROwOhz/t/K+MzwoDeaAFAooTTna9zY6wsjJ2QwyvdHwtjQY/XqYX+3oyFAIkzkM0+XxOU/2ehPyK/cc/ZYrF4r9XEUiyTFKdYLl9KHPjvJxN6o9uQySKARFh38sn7M8sLLYwfveGFlNri/riy1caChKnXWBEgUbLZ7GH6xSUo3sdWCfHF+py93MLYim2S4ugPd7GQ/MBCL/TNan83+GgwkznJqgBi75H999+gV++ghbGjn6mxUqn0E/fHla06JmSjvpg8ywKAxEhT+OfM9FILvXFrkgWdnR+0MNZinaQUS6UbqAGDaFW/oNsHEiTuu/uy8KgVH1eOBebVelPGdGRIlHwmc6ZevO+10CsRelOxWIzPIPcFxDpJcUbGKv+qB9T7TY+J/xyzfSAJBrPZU/SKje3aKCIyG6bC3ycpQXXM1VkYD5rk5XK5J1gEEGuF/v5MEPDfM3PaqrzR5+knRhPQzfOo2Ccpjv6Qf6Y3vZ0WesMkn8FsH4g9DoeY6HCLYohHR0fHxy2g4thERW+uMevy4cFABK0pEHtuHEooVbc3T2+9xicZllT1UxYkQiKSlGK5fItmFH9roTd6Iz0oDPhf8vn8sVYFEDtCwZ9aMZaYZY6WTilbITYCFu8rdQL4liZ5KxO/0kKf7qeQPj06OnGzxYmQiCTFqVLwKb1bf8lCb/QN9YUczr6tXgSIl3wms14vzFjv5M0cfseKjwlDusaKsSFC67E9BsRZIZs9Rz/vrhXFO73+PzVciefS9wtJTJJSKpUe0Lvhp0Xkx1bljWatbx3oz7hEBSBWOGjIG5VPE1PV4IdWfkwYBO5t7Y56FA+ufx/bY0Bc6QtJISR5m16oDRg7JVdSNVndPI9KTJLiDJdKI/oTN+ZAC79tIJf7A4sAVtxgNrtWX39iPatHPzj6clZ5xILH6EvFL/V7sVtq283yGRgYOMJCgFhwLXyaRL9V/zzbqrzRa/5XLPypkYmJX1hVoiQqSXGCdJfr9vmshd7UmtRF3tbf3+v9IgFYFpYNetM6xKJY0ptf0Yp7YKYJK8YGE59C1RkMoIVYkXTwtkash1Ij9KliuRyv7SqWIHFJSrFYnNUbt+v2ud6qvNGL5LRAgrf19vY+0aoAVkQmkznY7eJrYSy5hRYfqVaHLdxDtUox3bQs3scV2ks+m/0jvSbfYaFX7jkZdHZeYGEiJS5JcYql0vXW7TNTr/FH37TO6UqlMD4FVlRHQBv0YuyzMK6GJyYm7rfyHqbDcELvkj+xMDaYaGMh7xbKAlhZg7nci/QhfL6FXgnR7Xq1v8+92FtVIiUySXFGxiqfc81YFvrF9LZ8LvcnFgE0nT5I9e0q3iSkBReEqiUwTP9nYZx0SsgYfwYrqrB27eFC8kn9jDzNqvwK5aKRcjlWG34uR2KTFCdMVT8lIiMWeqMPiCcHJG8fyGZPtyqApnGrTWoC3m9hLOnN9aauanWv+2oJ07xjVlaU0FmDfX1PtQigqQZ6e4+RdOpf9VnTmCnxIp/Z5+GHP2NRoiU6SXGL0oSh/K0mKo1ozuohlk8WCoWDLAZoijAMNxDzkyyMq2uv2bLlt1aeX8jft1K86NurMGMALTRdT0/PfpQO3qGf8ZdZlW9XM/HHN99440MWJ1qikxRnbHz8e3rH+TsLvdITfUI4M/XxQmFtjJckh1aSz+cP1deg2A/sZKarrbigfQ54aFJIbrEwXpiHTjzxxE6LAJpi/66Od+iz5c8t9EvkNgrl48Vy+SarSbzEJynOVLV6kd4IL7bQK72YXh1Op9959tlnp6wKoGGC2Vk37fhUC2NKSg/tnFnUirKbN+vbnMSzNUUTrXWHHnggZvpA0wxkMm8goYbM5FGhXtUfH65ULrO4JbREkuIG6IWcukiEvmdVXunN7K/u2rHjnRYCNI6+3Vspzq6ZnJx82Mp7xRxOWjF23OJuVgRoqEI2+2IK2HXzNGY3bqGPD5fLH7eoZbREkuKMjY39UG84rkVlq1V5pYnKOwf6M/+fhQDe9ff35Ylpg4VxNSPCi+rqeVQYcmyTFNe1NpjNnmIBQEMM5nJZYXoHEzVm132Rb3EYXmRRS2mZJMUZLZe/qb9Qo07UwRzSOwdzfS+yGMCrlNQGcsZ6IUER+eFIuTzvAm5zGa1Uivr/d6+F8cJ8pL7cPN8iAO9yudxxev27Lp7GzNgTupE4vKg4Pn671bSUlkpSnOete/5FetI+YaFfzE8XCTRRyWWtBsCLQqGQFuLXWRhfy9yJnJlGrRg/TG9wx98iAG9O7+t7SlrkXL3+G7TkvTygf180XJq4rl7RelouSTn//PPDFPNFevYWXGhqufRiywvJOwuZTGOa7aAtyfT0a5go1rPIrDVkSa0ovxdUrBA7etyPrs7MxH7xPEiWXC73hJkUv0cvsMYNE2BNUMrlz1vUklouSXGuK5Vu44Au0rvqj63KK72pvSQM6Fy9CI+0KoBoWOI+FkXxdSOVyrJm6miCc4MVY4kpxCwf8CpN8ndM/FYLG+Fq7uhqyJL6cdKSSYpTHK1czRy48SmLnoWwFHrxvT4l4ftqG8EBRJDPZAp6RcX/IRnItVZasg6XpIj8xsLY0c/zxkJ/f95CgEgGstn365e31yP/ROhqEvqbpO/Lsxgtm6Q4xVLpM3o6GzYli5nf1Mn89xYCLAu7zQSJ9qtH8SREvxIOl52kXFup3CHEcW5NeaJIFdORIbLBXO6v9BPzHgv9E/mhPnwuHC6X97otRSto6STFmQ7pQr3Dfs5C/5jeOJjL/gMWe4PlKBQK+5Bw7Ke2M0nZbUNh4TKFJSvEkgj/ae18ACzTQC7zRr2S3qsvsI25jkR+KUwXjpRKV1lNy2v5JKVSqfwupVmnCH3bqhrh3F/dsf19VgZYvJmZVzPTIRbFV0jfsNKyaRKwWb80pPvVB3cewpmp+M+wglgazGRew8SuBaVRQwBmJHAJSmVZM+ySquWTFOe6UuknQRBooiJlq2oAfu9gNvsuCwAWJUzAgE0h+hF3VSO/uY1WKmP6r8X8DTARK/5CzOSz2ZcTk0tQuus1/oVCHxkZq3zMwrbRFkmKUxwbG+VAPqKJym1W5VuHkLxvIJNp2GApaC16YztDM4AEzOqRq4rFLXdZEE29NSW+RDYWMpn1FgHsVSGbPYGJ/p2Yn25VDSDfTHV2/q0FbaVtkhRneGz86/pQuFCL99dr/GLmA/Sv99b7JQEWxixuM8EuC+PLY2LBIldpIvBzC2NHz0cgXFv5F2Cv8prQhkQXN7TLVuRbYVB9VzvM5JlL2w323LZjx+TqVd1pvahOtyqv9N/dTxOh9atXrSrr/1Zsb8awsgp9fUcTBx8gpkOtKpZEaPNIuextLYatO3b8bk1394n6e8d4p2c5ZM1RR23eescdd1sFwB4Ka9ceTunUFXrPP8GqvBOiu4LZ6gtHKlsasiddErRVS8qj9j/wwAuFuHFTk4m/lBK51UKAPVRTtEEvlBMtjC8W14qi90qPgjDe41KYj5UgQGsKLGy//e7Vj8YXLPJOP3Q/C4TeVNziqas1odoySdm0adNUMDt7oV4G/21V3uiF9Z9SrZ7fqps9gR8sQRLGovw65JT3hILT+1zV2EHsPshQT09PrNeugZVVLBZ3jpQq79ai98Gs+vmYFbdYW7n8TatqW22ZpDjFiYkd4tZQIbnGqiJzCQqlqueNTEz8wqoA9jCQy52lV0v8kxShq8bGxn5okTd6c39QU5VYt6Yw82n7dnZipg/s1XQo79GE4p8s9OF+Jv5rt6u/xW2tbZMUx+1DwsJvdv1+VrVsepGOBh2dfzEyggQFFsaaoOhDMPa77uqNspGJxFX6mXnIyrEUkKDLB/aqUqk88vD09Pma1LtJGZGIyJSQXDBcLjdsOELStHWS4hTL5Vv0ZvwGLd5Yr1k6vaj+q8r8uvobIsD8TsvljtM7UQK6evTzMDvbsOnCI+VySbOgmI9NoaHBbHatRQDzmpycfLjroYfO16fBR6xqmfiCkVIlcrLTSto+SXGGS6Vvs9AF+vD4iVUtnsgX0xScXyqVGrX+CrSQWQ43UEPXU/BFrmr0gD2hMN5rphAfRizo8oFF2XzjjQ917f/wectPVOQCTd4vsAAMkhRTLJcvDTm4QIgWP+BV6Eua3Jx/HRIUWKyQk9CKopd20PAEooNSbs2UWH929H6wMZvNHmYhwII2b77xIe7oOl9I/tmqFkfowv2eeBASlDlgU7xdbNu+/cY1q1c9yMJriekJVj23WoIi5xUrFUw1hkUZ7O/bwMT6phVvIuLWRmn4z3n79u33rOnufoZ+1mK7Zoqer6MCDm/etv2OOO/gDDGydevW6WOOPa4k4WyXXj85q56XJjQfn6qG5xeLxdjua7WS0JKym5Gxitsx2XX93FOv2ZO+XX2ZQr2okKDAUoRBQroOmjjzxq1AG3tYgRaWxo1PrFJwvib8/2JV8/m0BOkLJiYmGrIKeitAkjKH4XL535jpg5qM7JHZatb7FQlmzx8eH/+ZVQHsVT6ff5peO7Hv6tFr/leSat5ia11PeIL+b0nJwljSt+GhwVzvaRYCLEqpVHrAtZCI0NyJitAlPFu9YHR09DdWA3NAkjKPYqnyUb2IPqiZcNWqLEFJnzc6uuWnVgWwKDw7O8TMx1kYY3LV6Oj4sme6LdXmzZvdNOS4t6bsp7dKDKCFJXMtJCPl8l9r8XELvrklK7iz8y1uvS6rgnkgSVmAXlwf1supNpipvg5K1//TrBcJCixJoVBwe0UlZcBs0xMGEd6sLwOxnr4vxBsHBnqPsRBgSYZL5b/UL7VEpfYs6ezcgCUrFgdJyl6MlMfPk1DegosKlkumpty047MsjC+hH3ZWq02fFlxbMyXuK9ASPYNC7OcDy+cSFTxLlg6zexZh244dE27EtoUAS7K6u/vtzBT/RcFYvvi9yvg3LGqqNatXHczEL7AwnoT5nB07vlJ06RzAMuBZsnRoSQFooHy+90R9DU9CV49okrJirRkSpN2mg7FeM8V12V2XyaA1BaCJkKQANFBQTW1goqMtjC+RzcNj4yu2Auzo6OjP497lU8OMAbQATYQkBaBB1q9f30WciH161MonCHozin+SQrJxMJM5yQIAaDAkKQAN8uB992mCwmdYGFvidgGPwaJqnQ895FpyxupRTDF3C2NxN4BmQZIC0CCcmFYUumq4UvmRlVeM26BNU6YktKYM9fb2PtECAGggJCkADVDvEkjG+IV47UYcbCaRByyIJWYe2DeVwtgUgCZAkgLQCAG5AbOrLIotEbmhKs1fwG0+w6VSWYhjlDTNTUjQ5QPQBEhSADx7QU/PfslpReHN5XL51xbGQxI2HWS3n08uaxEANAiSFADP7u3sdAlKoR7FWpiKY0LQEV4lRHHfYfxgkRCtKQANhiQFwLPkDJiVzcVK5WoLYmNkZOIX+rMloDWFhnK53JEWAUADIEkB8Ggwmz2FJRmbCerHP8aJQJx/tjomPiVFIQbQAjQQkhQAn1wrCvMRFsWXyJ0UxmlWz+M9PDW12e0Wa2GcocsHoIGQpAB44tbOEOHErDAbh7VR5jM5Ofkws8R+lg8TDw32962zEAA8Q5IC4ElXmjcwU97CWJMkJAAcui6f++tRbHWSBOjyAWgQJCkAnrAEiWhFEZIfuF2HLYyt4thEhST+yZQQbczn1z7NQgDwCEkKgAeFXO5UfVwl441aePPo6OhvLIq5+O+MzERP5VmsQAvQCEhSADwIpTZg9lALY0tEQn3zj/2D/1Ec1tZM+ZmF8cW88ewTT+y0CAA8QZICEFE+n39SYlpRmK8aLZevsSj2iuPjt3MC1kxhpjN/9cQnYqYPgGdIUgAiCmR2AzNnLIy1IBG7DD+euE0Hk4CTsRUCQJIgSQGIKkzIw0nkl248ikWJMeO6fERGLIwx2egW87MAADxAkgIQQT7f10eclBVm+apiuXyTBYlRqVQe0Z89/skV8xFupo9FAOABkhSACLhaWyPj4HoUcwmYzjsfSdUG0N5nYYzJUCaTScb1AJAASFIAlqlQKBxSWwY/AdzaKNzVlbjxKI8aHR0fZ0rCAnSc7WJGawqAJ0hSAJZJpqaGmHithXF3VbFYvNvKicQJ2HTQEU7ITC+ABECSArBcQTLGoohIVZ+ciW1FeUy1upmEfmpRfAltHMzlBiwCgAiQpAAsQz6T6RdKypRTvmqkXL7WgsRya6YQJ2AhOuYnCIXo8gHwAEkKwDIw8wYmeqKF8RYkb22U+YUJGfzLQ/39/astAIBlQpICsESFtWsPp4SMOxCiO0JKJXZWz+64Yx9NuGTYwtjSBPakQKoYmwIQEZIUgKVKpzcwcSIW7WKRzWNjYz+2MPGKxeJOSciCdJqooMsHICIkKQBLFCZo9oYmUy3U1WNEErJmCg8N9vclZKE/gHhCkgKwBAPZ7CAJJ+XB8/307GzLJSkjlcqEfknC7xXotYLWFIAIkKQALAXLEDPtb1HMyVXXbNnyWwtaTFIGA/NQPt97ogUAsERIUgAW6fRM5iimZLSiiMisfrxbr6vHzLpxKSI/sTDOjuFqCgNoAZYJSQrAIk0HtbEoJ9ejuOOrhkul6yxoOeVyeav7HS2Mu40v6OnZz8oAsARIUgAWiSlIziDIBG8muGgJ+R2Z6XkPdHZibArAMiBJAViEgWz2dH0oJqOrh2iHpMOW7ep51H4HHaS/Y/zXTHH0nKDLB2AZkKQALAKzbGDmfSyMOdk8OjpxswUta9OmTVP6uyYkGZONA5lMrwUAsEhIUgD2IpvNrtFX4cR09UgrbCa4WBJcJSL3WhRfzIfqH7SmACwRkhSAvUizbNAHzDMtjDehyVlppb16FjZcLm9JzgBa2agJ72EWAMAiIEkB2JvkLN7mRvdeValUfmdRe0jIBorMfGonlsoHWBIkKQALGOzvW6dZSlKa6WeIqq0/q2c3bgNFIbnFwliTBG2pABAHSFIAFhIGbsBs2qKYk6uGSxMtuzbKfMbGxrbp0z8hyRlvHMzlTrMAAPYCSQrAPPL5/LH6hp6cN9/EPKj9k2Ts5ePsKxSiywdgkZCkAMyDZ2eHmPnpFsaaWxuFwtZfG2U+R9x3n/vdi/Uo7tx+PvljLQCABSBJAZgPJ2faca2rZ3z8/yxoO5fefPO0OwYWxhoTPYPCWbSmACwCkhSAOQz29bmxKIlKUqzQtthtqChyj4WxFhAPnX322SkLAWAeSFIA5iBBbZ8efemNPxG5fiZs3/EojyqWStfrKUtKsrb+V7/cjpk+AHuBJAVgN/n82qclq6uH229tlHlowpacZE0YXT4Ae5GIN0WAZhrIZd7IxP9uYewJyZvCajLWCWk0t78SM12WhGnjmlDtDDpnuovFybutCgB2gyQFYBdunMCv7tj+Hf1oPN+qABpGQnnPSKXyIQsBYDfo7gHYxa937NiABAWahnnozJ6eAy0CgN0gSQHYReg2EwRoEmbKz3R2YgAtwDyQpACYwb6+Z+hjAw8MaCrBpoMA80KSAvCoIBhioqMtAmgSGRrIZnMWAMAukKQAqLNPPLGT0NUDK4H5Sfo3WvAA5oAkBUDdeeCB+pDgMywEaDLZmMlkjrIAAAySFADFaEWBFcTMz+kKArSmAOwGSQq0vcFM5iSWJO3TA61IJMQAWoDdIEkBCGgDMXVbBLAymIcGcrmzLAIAhSQF2lpPT89+glYUiIcOohBdPgC7QJICbW2/rq4NzPQ8CwFWGG/M5/NPswCg7SFJgbbGhAGzEB9MdDyFsxibAmCQpEDbKuRyzyERNK9DrATEQ+vXr++yEKCtIUmBthVyuIGYj7AQIC7OfPiBe9CaAqCQpEBbyuVyT9AsBa0oEE8h1kwBcJCkQFtKc+gGzOYtBIgVt+ngQCbzXAsB2haSFGhPaEWBGNME+nD9C10+0PaQpEDbKeRyp2IzQUiAoTPWrn2ylQHaEpIUaDuhuASFD7MQIJaYKTObTqPFD9oakhRoK/l8/kmEtVEgIdzYFCsCtCUkKdBWgtnZDcyctRAg5mRoIJsdtACg7SBJgfbChFYUSA7mJ+gfdPlA20KSAm0j39fXhxs+JE+4MZvNrrEAoK0gSYG2wUHgWlEOrkcAycDEz+pEcg1tCkkKtIVCoecQYuzTA8kkFGIALbQlJCnQHqY7N+gb6VqLABKGhwZzfUiyoe0gSYG2IGhFgWRjl6hYGaBtIEmBljeQzeaEGLN6INH0Gt6Yz/eeaCFAW0CSAm1AhvQ19EALABJJr+GjOQwwNgXaCpIUaGmn9/U9hRmtKNAamHho3bqT97cQoOUhSYGWVg0C14+PLe+hVTxv6oH90JoCbQNJCrS0ECvMQqvBminQRpCkQMuq7XkimNUDrUVINg5kMr0WArQ0JCnQspjFbSaI/ntoKXpNH6J/ocsH2gKSFGhJp2cyR5GgWRxalQy5QeEWALQstq8ALSWfzf5RwPQVC2NLiG7Xv263EFYIMz3PiokRCp09Wi5/1UKAloQkBVrSQDb7NX3wvNTC2NIHzUv0QfNNC2GFDGazX9S74assTAaRrw2XKy+3CKAlobsHWs5gLneaaw63MMaktO8BD222AFZSIN+2UmII0UZNxk+3EKAlIUmB1iO1AbP7WBRbIrx58+YbH7IQVtB0lS7TL1fXo2SoX+OCAbTQ0pCkQEvp7+9frTfuJAyYfVhE0IoSE5VK5RGSWqKSLExDuVzuOIsAWg6SFGgpgVSH9BXzmRbGlyYoo5XKmEUQA1KtXiYkN1mYCEx8QgeFmMUGLQtJCrQWScY+PUKMVpSYGZmY+IUIJ641xY1NKRQKaQsBWgqSFGgZg/196zgBy+C7acfcEV5lIcRIKgi+TSK/sTAh+PkysxOtKdCSkKRA6wgDl6B01IP4YpHNw8PjP7MQYqQ4NlYRTt7YFCGsQAutCUkKtIR8/tRjhSURXT2Mrp5YS2KXj15VQ/39vc+2AKBlIEmBlsDVjg1uEKGFsSUkW6izE0lKjB2xatVlIvJdCxOBiVYFFKDLB1oOkhRoCW4zQSvGm/DmYrF4r0UQQ5deemlVn/qJa01h4Y1nntlzoIUALQFJCiRePpNZ75q7LYyzmSAI0YqSAFVyA2hp0sKk6J9+sANjU6ClIEmBxOOgNqMn9vtQucXbimPj37MQYqxUKv2SWBK4uBt2/obWgiQFEm2wr++pCWlFcQNS0IqSIBLSZUJ0h4WJICQb85lMv4UAiYckBZItCDYw0fEWxdkdksbaKEkyUql8nxO2VD4zH6R/0JoCLQNJCiRZQJyIfXpqrSijoxM3WwRJwaGb6TNrUULIxtMzmaMsAEg0JCmQWAPZ7AZ9ijzfwngLsJlgEg2Xxr9LnKx1U5j52bOMxd2gNSBJgeRKSCuKvonfEHIaSUpCBUncHTkZO4ED7BWSFEikQjZ7AlMyNhN0K8yOjo4mbD8YeEzntOvyKVuUCG7TwYFc7iwLARILSQokknBte/pj6lHMYW2URCsWJ+/Wp37SunzSRCG6fCDxkKRA4vT09HTopZuIVhQR2jw8No4kJeECNy5F6OcWJgQPnZbLPd0CgERCkgKJs19Xl2tFObMexRxjwGwrKJbLN0nCFndzU/OrVEVrCiQakhRIHKaE7NND8uuAAiQpLcJ2R364HiUFDxUKhX0sAEgcJCmQKIVs9ln6tEjI2ii8uVgq3WARJNxouXxN0samaJJyhszuxEwfSCwkKZAsbrdj5m6LYk2wNkrLSVqXjyOCNVMguZCkQGJkMpl9Q0nKPj3y46qgq6fVTM2GLklJ2CaRPJTP9/VYAJAoSFIgMTpTsoGZnmdhvDFvru2kCy1lYmLifj25SRtAe3hKAnT5QCIhSYHkCJN0o2W0orSqavUyIbnFokSQkDYWenoOsRAgMZCkQCKc1t//bL3VJmVtlO89NDWFJKVFDY+P/4zrM32Sg6lPOjrQmgKJgyQFEmG2Wh0i5iMtjDVm2Tw5OTljIbQiZrdU/r0WJYJg00FIICQpEHuFQuEAfRNMSCuKPrgEXT2tbrhUGtFE5dsWJoQM5TOZggUAiYAkBWJPZqeGmHnAwnhjvmq4XN5iEbSwpO2OrJ+hA/QPunwgUZCkQPyFydjtuA5ro7SLfQ888DISucrChJCNp2WzaywAiD0kKRBrtfUdOCkrzNJP0+jqaRubNm2akiBxrSnPrBJhbAokBpIUiDWuut2O+TAL441l83Xl8laLoA3MhrXdkW+0MBmSkvQDKCQpEFuFQuEgN9jPwtgTbCbYdsouKWVJ2ABa3jiQzaI1BRIBSQrE1/T0BmbOWhR3Yw9jbZS2JCFdJkS/sjAZ0JoCCYEkBWJLEtSKoj+tWxslYdv4gw8jlcoEJ253ZNp4Wn//M60MEFtIUiCWBjKZXuFkzOoRkYcEA2bbG9c2HkwMJl5TlSq6fCD2kKRAPDEPMdGTLYo35qtGyuWSRdCGhkvjbj+fyy1MCB6qLZQIEGNIUiB2zli79smckBVmnQCbCQKRBBQkbAAtFdxCiVYGiCUkKRA7s+m0u3H21qPY+wWFIZIUIOqYca0piVptWAT7+UC8IUmB2Ak5GbsdO/pQ2lysVG61ENpYsbjlLkra7shEQ/l8X5+VAWIHSQrEykA2m9MbfXLWRsGAWdhFwG5xN9luYewx0SHBLFpTIL6QpECsMMsGZjrQwrib2Gd6GkkKPKZYKt0gnLDpyMxDhbVrD7cIIFaQpEBsnN7X9xQ348DC2BORzVdPTt5nIUCdsBtAO10PEoCpR+rjwABiB0kKxMZMqjaj57n1KN5EH0IihFYU2MNIuXylZrCJak3R6xldPhBLSFIgRoLEvM0xyVWjlUrRQoDHSdruyPoTD+Wz2TMsAIgNJCkQC4O53IC+fSZmVg9hwCwsYKZaS1LG6lH8MfM+TIQuH4gdJCkQE+GQ3igTsfqlEO3A2iiwkEql8ju9UBLVmsIkGwuZzPEWAsQCkhRYcblc7ki9oSenFYVk8/D4+P9ZADC3MPy2JrTJWUOH+enCyRm4Du0BSQqsuBSFQ3qDfLaFsRegqwcWwSWyydsdWTYWCoW0BQArDkkKrDxJxm7HjpD8gDqxNgosEvNlIvKgRfHHfFY4M4OZPhAbSFJgRQ3mek9L0maCbsBssTh5t0UACxoula6jpC3u5lo2AWICSQqsLEm5BGXfehB7+lIsaEWBJQkSt58Pbyzkcs+xAGBFIUmBFdPf379aErSZoOYobm2Uqy0AWJzOTk1S5FqLYo+JjhK0pkBMIEmBFRNUqxuY+FkWxh8GzMIyFIvFBxO3nw+RG0B7kJUBVgySFFgxSRqLIkS/ClNYGwWWJy3BZXoR3WxhAnAunJnCAFpYcUhSYEUUMpkzNUtJzjL4IptHR8dvtBBgSa4rlW4TTtZ+PnrVo8sHVhzbV4CmGsxlP6Ff3lyP4k9E7tWk6l4LAZbDLT1/uJUTgavhMcXx8dstBGg6JCnQdAO9vcdQOvguE59gVQAQR0IfGi6X32MRQNOhuweajlMpN2AWCQpA/G0s9PausjJA0yFJgeZjQV83QBIwnRwGAQbQwopBkgJNNZDNPl/vfAlaGwWgzWHTQVhBSFKgueqtKLjuABJDNtZfLgCaDw8LaJpCJnM8WlEAkoWZU/oFXT6wIpCkQNMI8xATPdVCAEgIJhkqZLMY7A5NhyQFmoX1/9CKApBEzMe5lwyLAJoGSQo0xUA2625w6+sRACRPuDGTySRlx3JoEUhSoCk4UbsdA8Ce+PSOIEBrCjQVkhRouFpftmDALEDyhRhAC02FJAUarupaUZiOtRAAEouHCrncqRYANBySFGionp6eDkYrCkBLYKKnCIXo8oGmQZICDbV/V3oDM62zEAASjzcWCoVDLABoKCQp0FgSoBUFoLX0hrNTGJsCTYEkBRqmv7//mZqloGkYoNUI1kyB5kCSAg0ThOEGYl5tIQC0CqGN/X19z7MIoGGQpEBDFAqFfdCKAtCamGn/FNZMgSZAkgINIbNTG5j5NAsBoPVsLPT1HW1lgIZAkgKNEaLPGqClMZ0YBgEG0EJDIUkB7/L5vpOxmSBAW3AvI1wvAviHJAW842qtr/qoegQArYqZhmzzUICGQJICXq1bt25/bCYI0FbQ5QMNgyQFvJp+8EF9q+JBCwGgxelLyVAhm32WhQBeIUkBr0K0ogC0GV4j2B0ZGgRJCngzkMk8V29Y6J8GaDfMQ7lc7gkWAXiDJAW84SDY4HZJtRAA2gYPpqiKFxTwDkkKeHFmT8+BhC3cAdoYo8sHvEOSAl7s7OzcoDepnIUA0HZ4qNDfm7EAwAskKeCFG+FvRQBoQ0z0ZBHs5wN+IUmByAaz2bUkjFk9AG2PNxYKaw+3ACAyJCkQHcsQMx1iEQC0r+eGsymMTQFvkKRAJJlM5mDNUtCKAgB12FwUPEKSApGkg1ofdF89AgCQjflM5kwLACJBkgKRMGGFWQD4PWbuChitKeAHkhRYtsFcLkuCWT0AsDvZWMhkjrcAYNnYvgIs2WAu8yG9hN5tYQLIf1er8mkLABIjleIz9LP2PgsTQUjeNFKqfMpCgGVBkgLLks1mD0uTfIeZT7Wq+ONwaHhs/AqLABLDtUqEAX9Xb9hPtar4E7nqoemZF0xOTs5YDcCSobsHliUdyIYkJSgislkTlCstBEiUYqVyq17FyUqwmc/at7MT05EhEiQpsDwJm2bIHGzSL2E9Akgg4e/q34m6hpkwZg2iQZICS1bo788naVaPEO2oMqMVBRJtpFzWazhZrSlMtLGQyz3HQoAlQ5ICS1YNwyFifoKFscdCm8bGxn5sIUBiiXDSunyOFKqiyweWDUkKLEkulzsyaWujhERoRYHWkK5+V0husSgheCifzz/JAoAlQZICS5IKQzdgNkHNt1IK0dUDLWJkZOIXlLTWFOIch7MYmwLLgiQFloSZEtWKognVplKp9ICFAInHQeiSlKRN60WXDywLkhRYtEJ/3/P0qZ+cJEXknrAqaEWBljI8Nr5ZhJLWmjKk94+8BQCLhiQFFi0MA5eg7FePEoDpypFKZcIigNbBiZvlc6AIozUFlgxJCizKwMCp3XqnSVRXjzC5tVEAWs6sG5cikrAZazxUu48ALAGSFFgUnu3YoG9DJ1kYfyI/DKar6OqBllQul7fqS0PCunzoZJpJYwAtLAmSFFgcTta0YyG+srhly10WArQct2aKiExZmAyMLh9YGiQpsFf5bPYMfegn6Q1o2s3qsTJASxopl6/Vh75bKj9BZCifyay3AGCvkKTAXrn9N5io08LYE6Erh0ul6ywEaFkBJWvNFH15SAWcrH2/YGUhSYEFFfr6jk7UtOM6jEWB9jA7e4UQ/ciihJCNg319z7AAYEFIUmBBEgSuFSUxNxS9Yd+aRlcPtInixMQOveqT1eXDfCzpfcUigAUhSYEFScIGzDLJldeVSrdZCNDyJKzN8nm4HiWDkGzMZDL7WggwLyQpMK+BbPb5ejdJVldPiK4eaC+jlUqRJGGLuzGflsZMH1gEJCkwPxa3mWDKogSQax+amUFXD7ShpM3ycYmKoMsH9gpJCsypkMkcz5K8AbOTk5NJ23gNIDJJp92aKTdYmAhMtLGQy51qIcCckKTA3ALaoHeRp1kUf0J3VjlEVw+0pZGRkTuT15rChwmF6PKBBSFJgblwmMBWlLGxiR9aGaDtBEHo9vN5wMKE4KF8Pn+oBQB7QJICexjM5TZwwjYTDLE2CrS54tj4qCRscTfVy+EMWlNgXkhSYA7JmnasximVQpICECRszZQarJkC80OSAo9zWi73dJJkjbp3y+CPjo7eYyFA25oN+QoSmrQwKTYW+vueZ2WAx0GSAo8zy+GG2oqQSVHvg0crCoAql8u/Jk7YmilE+4lgzRSYG5IUeEyhUEhTmKzNv4R500i5XLIQACj4rojca0FC8NBAb+8xFgA8BkkKPEZmdg4x0zoLk4EFrSgAuxgulcrEtaXyk+RESqUwNgX2gCQFfk+CRA2Y1bfFHwczWBsFYHeBJG6Wj+O6fPBMgsfBBQE1/f39z0zaZoL6tripvgssAOwqPTvrZvlM1KNkcMseFLJZtKbA4yBJgZogDDcw8RoLY0+IQkZXD8Ccrtmy5bciievycZ9rDKCFx0GSAm7A7D76wE9WK4rQlcNj45stAoDdSBheoQ/931qYEDI0mMmcZAEAkhTQ28LUlCYofLqFicBE2O0YYAGj4+PjLMmajkzMq/UPunzgMUhSgCRhS+Dr2+Hts8zo6gHYm0R2+cjGXC73BAuhzSFJaXP5vr6T9c0lUUkKC11ZKpV+YiEAzCNMp68QkbKFicDMA4EIxqZADZKUNhcEwQYmWmVhIqCrB2Bx6ttFJG86csDJ2poDGgdJShtbt27d/pS4m4EMTwlm9QAsVsBuPx/5jYUJwRsHc7msBdDGkKS0sekHH3QDZgctTIorK5XKI1YGgL0olkrX6+c8absjH0wUojUFkKS0szBprSj6NighunoAlko4TOSaKQMDA0dYCG0KSUqbGshknqtvV8laG4XoypFK5ftWBoBFmpqVK/SpP2ZhIjDxKVSdwQDaNockpU1xIG7A7OEWJoIwWlEAlmNiYuJ+Yklal4/CmintDklKGzqzp+dAPfXJakURmgw6ujBgFmC5hK8QobssSoqNhXzmTCtDG0KS0oZ2dna6BKW/HiWDEF1ZLBbvthAAlmi4XP4BcbJWoGWiTgkZXT5tDElKG3K7jVoxKR5mZnT1AEQkkrhZPu4NZWiwr++pFkGbQZLSZgaz2bUsydpM0LWiDJdKIxYCwDLt+9BDV+gnatjCZGB6mjBaU9oVkpR243Y7Zj7UomQIsXgbgA+bb7zxIUpiawrz0IknnthpEbQRJCltJJPJHCySrGnHQnJLGl09AN6EqfAKIbrDwkRgpnWHHnggZvq0ISQpbaQjoA36Yc9YmBRXXlcub7UyAEQ0Ojp+Iydyd2RCl08bQpLSRjhhrSgOM7p6ALwLkrhmigwNZrOnWABtAklKmyj092fch9zCZBC5anhsHF09AJ5xuusKEbnOwmRgPtKNTbEI2gSSlDYh1eqQfsCfZGEy1FtRpB4AgC/FYnEncQK7fCTc6MbWWQhtAElKG8jn84dKwtZG0cxkR5XT6OoBaJA0p76rT/1tFiYCM2fTQYDWlDaCJKUNsMwO6Yf7VAsTgYU2jY2N/dhCAPDsOvf5Yk5ca0pAIQbQthEkKW2Aw+QNmA2J0IoC0GBCyUtS9I42NJjLDVgALQ5JSosr9PflKXnL4I+FzEhSABrs4akpN8vn6nqUGE/U1xh0+bQJJCktLgxrux3rhzo5ROjKUqn0gIUA0CCTk5MzepdI4JopvHFgYKDbQmhhSFJamH6Ij6gtg58kIvfoH7SiADRLtTbL5xf1IBmY6CSqzmBsShtAktLCeHZ2AxMnavEjYdo0UqlMWAgADTY8Pv5/QpLIsSlWgBaGJKWVJa0VxWEMmAVoNpHkDaBloo2D/X3Ju8fBkiBJaVH5TKYgCXvTEJEfBtNVJCkATXbEqlWapCSumzWgEGumtDokKS2Kg2CDvmnsZ2EyMG0qbtlyl0UA0CSXXnpplRLYmqI2Dvb1PcPK0IKQpLSgQm/vKn0rStobxjRTgFYUgBUSpmbdfj63WZgMTMdIEGAAbQtDktKCJJUaqo1+TxA37Xi4VErWhmcALWR0dMtPmTiBuyPTUE9PT7JajWHRkKS0IEnggFlNqrDbMcBKC5K3ZgoznXZAZyfGprQoJCktJp/NnkGSuM0Eb01hhVmAFTc8Nn6FSAJ3RyZCl0+LQpLSYphlAzN3WZgITHLldaVSsvrCAVpVIMnr8mEZGsxm11oELQRJSgsp9PUdzZK8zQT1Z0ZXD0BMpCW4gkR+amFC8GFoTWlNSFJaSYo2ENOJFiWEXPvg9DS6egBiwrVqCievy8e1pmSz2cMsghaBJKWFhFTbTDBprqxvcgYA8RF8V0SqFiQCE69NM5bKbzVIUlrEQC53FkniNhO8MwwEXT0AMTNSKl2lT/3kzfShEF0+LQZJSotgqg2YTVuYEHzl6Oj4jRYAQIwEFCRwzRQeGszlTrMAWgCSlBZwWi53HEniVpilkLCZIEBsVatXCNH/WZQU++mdBV0+LQRJSguY5XADMT/NwqQYT3V2oqsHIKaK4+O368tPAtdM4Y35fP5YCyHhkKS0gjB5g8XcMvjFYvFeCwEghvSB77p8putRMjDRM1hm0ZrSIpCkJNxgrm+IOVkrzKr79Q+6egBibrRcviaJrSkkvPEDH/gAnm8tACcx6SR5045FE5SRcrlkIQDEWBKXyWei9dddeSVm+rQAJCkJlsvlni6UvM0EKRS0ogAkRUfHd/U+c5NFyYE1U1oCkpQES4Whm3Z8nIWJ4G52HdjxGCAxRkZGtrNw8rp8SDbm+/pOtgASCklKQhUKhXQCx6I4V15bqdxhZQBIAq66JOWRepAQzN0cBGhNSTgkKQklU1Nu2vFZFiaCiITM6OoBSJrh0sR1SRyb4lpTent7n2gBJBCSlKTi5O12rD/0puGx8c0WAECScPJm+TBzft9UCgNoEwxJSgLl870nSgK7ehjTjgESayakK0johxYmhlDyVuOG30OSkkBBNbVBH/hHW5gIQnT7LDOSFICEqrixZAlsTVEbB3O5rJUhYZCkJMz69eu79EaRvFYUoU2lUuknFgJAAonwFSLykIXJwPwkEeyOnFRIUhLmkfvu0wSFz7AwMbCZIEDyjZTLw/rQT97uyExDuVzuSIsgQZCkJEyYyP5VGZ4VzOoBaAVBIleg5VMCqqI1JYGQpCTIYCZzUhJn9QjTpkqlkqw1FgBgbrOzVwjJDyxKjICwAm0SIUlJEuYhJlplUTKI/Iaq6OoBaBXFLVvu0jeP5HX5EG8c7O9bZwEkBJKUhFh38sn7UxJXmGXaNFKpfN8iAGgBUt8Z2e1mniQdIowun4RBkpIQj+y/v0tQCvUoOdyOx1YEgBYxWqmMaaaSwOnIPJTPr32aBZAASFISghM47VgzlMmgYwZJCkArEkpclw8TPZUlhbEpCYIkJQEGs9lTWJLX1SNEm4rFybstBIAWEqbTbs2U6y1MjpA3rj/++C6LIOaQpCSBa0VhPsKipHiYscIsQMsaHR39TRI3HWSmMx8+5BC0piQEkpSYczt4iiRw2jHRlcOl0oiFANCCUqnUd0nkHguTgzGANimQpMRcV5o3aOaftzAx3DL4VgSAFlUcG6sIcQIH0MrQQCbzXAsgxpCkxBxLkMBWFLklhVk9AO2BJYHL5PMR+gddPgmAJCXGCrncqS7jtzBJrryuXN5qZQBoYTMhXaFvJuMWJohszGQyB1sAMYUkJcaEwiHN9g+1MDGCEF09AO2iUqn8jjh5a6Ywc6YLY1NiD0lKTOXz+SdJAqcdk8hVxUoFXT0A7UT4u0KUuOUGhBPZUt1WkKTEFIezQy7TtzA5uLbbsd6vAKBdDJfLW/Rjn7wBtEIbB7LZQYsghpCkxBQncNqxfuC3h4GgqwegDQWSwFk+zE/Qmy1aU2IMSUoMFfp7M4ncTJDoytHRiZutDABtpGP/6e/qm0rJwiTZ2N/fv9rKEDNIUmIoDFMuQUncqPMQ044B2tbVV0/eJwlsTWHiZ7HMYgBtTCFJiZl8Pn8oJXEzQaKxVGcnunoA2pikQpek/KoeJUdAWDMlrpCkxEwwO7tBM/u1FiaGCF1ZLBYftBAA2tDo6PgkJXA/HyLeONjfl8SXw5aHJCVugkSORfmdZino6gEAvYclcJaP6/URrJkSR0hSYiSfyfRLApsdheTKkUplwkIAaGOzElwhIgncXJSH8vneEy2AmECSEiPMvIGJnmhhcjAGzAJAXalUekCfLElsTTmGwwCtKTGDJCUmCoW1hydxvr6+Md0QTFeRpADAYwIJrtCbw50WJofw0LqTT97fIogBJCkxIdPpISY+xcLkYLqyuGXLXRYBAFCxVLqBmBO3OzIzPW96//0x0ydGkKTERQKnHQvRNFOIVhQA2INQAlegVXpfQ5dPjCBJiYF8JlOQZC6Dv2m4NHGdRQAAj3l4asolKcV6lCQyNJDJ9FoAKwxJSgxwQBuYKXH9oIwVZgFgHpOTkw/rAz9xXT7EfKj+QZdPTCBJWWGF3t5VTMlrRRGiW2eZkaQAwPxCukLvFTssShDZ2NfX9xQLYAUhSVlp6bRLUE6uB8nBRJtKpdJtFgIA7GG4UvkRSfIWd2PmU/cJArSmxACSlBUWUiL36aFQ0NUDAHsXUPJm+ThCggG0MaAvxLBSXFdPmE4lb2VGodtHyuXTLAIAWNBANjuiT5tVFiZGMFsdKE5MJLC7qlUQ/f/kqc5cBrup7AAAAABJRU5ErkJggg==" vertex="1" parent="1">
          <mxGeometry x="304.26" y="470.18" width="63.49" height="76" as="geometry" />
        </mxCell>
        <mxCell id="BonBhimJJVAcB3Fh496H-2" value="" style="endArrow=none;html=1;strokeWidth=2;strokeColor=#FF3333;entryX=0;entryY=0.5;entryDx=0;entryDy=0;dashed=1;dashPattern=1 4;" edge="1" parent="1" target="BonBhimJJVAcB3Fh496H-1">
          <mxGeometry x="328" y="360.4" width="50" height="50" as="geometry">
            <mxPoint x="253" y="508" as="sourcePoint" />
            <mxPoint x="420" y="507.94091979445193" as="targetPoint" />
          </mxGeometry>
        </mxCell>
      </root>
    </mxGraphModel>
  </diagram>
</mxfile>
